{"glyphs":{"0":{"ha":1217,"x_min":0,"x_max":0,"o":"m 38 314 l 38 476 l 485 476 l 485 478 l 485 490 b 485 491 485 491 485 491 l 485 493 b 486 499 485 495 486 497 b 487 505 487 501 487 503 b 487 509 487 506 487 507 b 489 514 487 510 488 512 b 540 591 497 545 514 571 b 628 621 565 611 595 621 b 700 602 654 621 678 615 b 752 550 722 589 739 571 b 771 478 765 528 771 504 l 771 476 l 1217 476 l 1217 314 m 695 361 b 743 410 715 373 731 389 b 761 476 755 430 761 452 b 743 542 761 500 755 522 b 695 590 731 562 715 578 b 629 607 675 601 653 607 b 562 590 605 607 583 601 b 514 542 542 578 526 562 b 497 476 502 522 497 500 b 514 409 497 452 502 430 b 562 361 526 389 542 373 b 629 343 583 349 605 343 b 695 361 653 343 675 349 m 697 570 b 706 564 700 568 703 566 l 548 564 b 566 577 552 568 558 573 b 585 585 574 581 581 584 b 628 594 596 591 611 594 b 672 585 642 594 657 591 l 689 575 b 697 570 692 573 694 572 m 745 476 b 739 435 745 461 743 448 b 718 399 736 425 729 413 l 563 399 l 716 555 b 745 476 736 529 745 503 m 539 395 b 516 433 529 408 521 421 b 509 476 511 447 509 461 b 510 494 509 484 509 490 b 517 517 511 503 513 510 b 537 550 521 530 528 541 l 694 550 l 539 395 m 90 423 l 90 347 l 119 347 l 119 423 l 145 423 l 145 450 l 64 450 l 64 423 m 196 379 l 208 356 b 220 347 211 350 215 347 l 246 347 l 228 379 b 210 389 222 386 216 389 l 213 389 b 228 397 218 389 223 392 b 236 414 233 401 236 407 b 225 439 236 424 232 433 b 199 450 218 446 209 450 l 157 450 l 157 347 l 187 347 l 187 379 m 286 450 l 257 450 l 257 347 l 286 347 m 296 347 l 320 347 b 333 357 325 347 329 350 l 336 364 l 371 364 l 376 357 b 388 347 379 350 383 347 l 411 347 l 367 450 l 341 450 m 487 347 l 487 374 l 450 374 l 450 450 l 422 450 l 422 347 m 809 435 b 795 397 799 425 795 412 b 809 359 795 381 799 369 b 847 344 819 349 832 344 b 886 359 863 344 876 349 b 901 397 896 369 901 381 b 886 435 901 412 896 425 b 847 450 876 445 863 450 b 809 435 832 450 819 445 m 980 412 b 983 392 980 404 981 398 l 951 438 b 946 445 950 442 948 444 b 939 447 945 447 942 447 l 914 447 l 914 346 l 945 346 l 945 386 b 942 405 945 389 944 396 l 976 352 b 989 346 980 348 984 346 l 1010 346 l 1010 447 l 980 447 l 980 412 m 1095 346 l 1095 373 l 1059 373 l 1059 447 l 1030 447 l 1030 346 m 1153 376 b 1155 386 1153 380 1154 384 l 1192 447 l 1164 447 b 1153 441 1159 447 1155 445 l 1141 421 b 1139 412 1140 418 1139 415 b 1136 405 1138 409 1137 407 b 1133 421 1136 410 1135 416 l 1122 441 b 1110 447 1119 445 1115 447 l 1083 447 l 1120 386 b 1122 376 1121 384 1122 381 l 1122 346 l 1153 346 l 1153 376 m 197 421 b 205 414 202 421 205 419 b 203 408 205 412 204 410 b 198 406 201 407 200 406 l 187 406 l 187 421 l 197 421 m 830 379 b 823 397 825 384 823 390 b 830 414 823 403 825 409 b 847 421 835 419 840 421 b 864 414 854 421 859 419 b 870 397 868 409 870 403 b 864 379 870 390 868 384 b 847 373 859 375 854 373 b 830 379 840 373 835 375 m 349 398 b 352 405 350 399 351 401 b 353 417 353 409 353 413 l 355 417 b 358 398 355 408 356 402 l 364 385 l 344 385 l 349 398 m 706 386 b 689 373 696 378 690 374 b 681 369 687 372 684 371 b 672 364 678 366 675 365 b 662 362 669 364 666 363 b 649 359 658 361 653 360 b 628 356 642 357 635 356 b 586 364 612 356 598 359 b 550 386 574 369 562 377 m 50 218 l 50 247 l 78 247 l 78 254 l 50 254 l 50 277 l 84 277 l 84 285 l 43 285 l 43 218 m 108 230 b 102 244 104 233 102 238 l 102 285 l 95 285 l 95 244 b 102 224 95 236 97 229 b 121 217 107 219 113 217 b 141 224 129 217 136 219 b 149 244 146 230 149 236 l 149 285 l 140 285 l 140 244 b 135 229 140 238 138 233 b 121 224 132 226 127 224 b 108 230 115 224 111 226 m 202 218 l 202 225 l 174 225 l 174 285 l 166 285 l 166 218 m 254 218 l 254 225 l 223 225 l 223 285 l 217 285 l 217 218 m 343 284 b 342 282 342 284 342 283 l 321 233 b 320 226 321 231 320 228 l 319 226 b 318 233 319 228 319 231 l 296 282 b 291 285 296 284 295 285 l 286 285 l 316 218 l 323 218 l 351 285 l 346 285 b 343 284 345 285 344 285 m 403 225 l 368 225 l 368 248 l 397 248 l 397 256 l 368 256 l 368 277 l 403 277 l 403 285 l 362 285 l 362 218 l 403 218 m 435 246 l 455 221 b 463 218 458 219 460 218 l 467 218 l 447 245 b 444 247 447 246 446 247 l 444 247 b 455 253 448 248 451 250 b 461 265 459 256 461 260 b 455 279 461 271 459 275 b 441 285 451 283 446 285 l 417 285 l 417 218 l 426 218 l 426 246 m 482 220 b 493 217 486 218 489 217 b 509 222 500 217 505 218 b 514 237 512 226 514 231 b 495 257 514 247 508 253 b 484 268 488 260 484 264 b 494 278 484 275 487 278 b 506 275 498 278 502 277 b 510 277 507 274 509 275 l 511 279 b 494 285 508 283 502 285 b 481 281 489 285 484 284 b 475 268 477 278 475 274 b 493 250 475 261 481 255 b 508 237 503 246 508 242 b 504 227 508 233 506 230 b 493 224 501 225 497 224 b 479 230 488 225 484 227 b 476 230 479 230 478 231 b 473 228 475 230 474 229 l 472 227 b 482 220 474 224 478 222 m 536 285 l 530 285 l 530 218 l 536 218 m 561 275 b 551 251 554 268 551 260 b 561 227 551 241 554 233 b 586 217 568 220 576 217 b 611 226 596 217 604 220 b 621 251 617 233 621 241 b 611 276 621 261 617 269 b 586 285 604 282 596 285 b 561 275 576 285 568 282 m 680 235 b 681 230 680 233 681 231 l 646 283 b 640 285 644 284 642 285 l 634 285 l 634 218 l 642 218 l 642 270 l 641 275 l 680 220 b 682 218 680 219 681 218 l 689 218 l 689 285 l 680 285 l 680 235 m 567 232 b 558 251 561 238 558 244 b 566 270 558 258 561 265 b 586 278 572 275 579 278 b 605 270 593 278 599 275 b 613 251 610 265 613 258 b 605 232 613 244 610 238 b 586 224 599 227 593 224 b 567 232 579 224 573 227 m 441 277 b 449 274 444 277 446 276 b 453 265 451 271 453 269 b 449 257 453 262 451 259 b 441 254 446 255 444 254 l 426 254 l 426 277 l 441 277 m 1178 273 l 1176 270 b 1177 264 1174 268 1174 266 l 1186 255 l 727 255 l 727 248 l 1185 248 l 1177 239 b 1176 233 1175 237 1175 235 l 1178 230 l 1196 248 b 1198 252 1197 248 1198 250 b 1196 256 1198 253 1197 255 m 479 170 b 464 134 469 161 464 149 b 478 99 464 120 469 108 b 514 84 487 89 499 84 b 551 99 529 84 541 89 b 566 134 561 108 566 120 b 551 170 566 148 561 160 b 514 184 541 179 529 184 b 479 170 500 184 488 179 m 800 84 b 826 93 811 84 819 87 b 836 116 832 99 836 107 b 806 149 836 134 826 145 b 796 155 799 151 796 153 b 800 158 796 157 797 158 b 806 157 801 158 803 158 b 812 155 809 156 811 155 b 825 163 818 155 822 158 l 830 172 b 817 181 827 176 822 179 b 800 184 811 183 805 184 b 776 176 791 184 782 181 b 767 155 770 171 767 164 b 775 136 767 147 769 141 b 800 123 780 132 788 127 b 806 116 804 122 806 119 b 800 111 806 113 804 111 b 791 113 797 111 794 111 b 786 116 788 114 787 115 b 778 118 784 117 781 118 b 765 111 774 118 769 116 l 761 100 b 800 84 773 90 786 84 m 897 99 b 932 84 906 89 918 84 b 954 90 940 84 947 86 b 969 104 961 94 966 98 l 963 113 b 953 117 960 116 957 117 b 944 114 949 117 946 116 b 931 111 939 112 935 111 b 916 117 925 111 920 113 b 910 134 912 122 910 127 b 916 151 910 141 912 146 b 931 158 920 155 925 158 b 939 156 934 158 937 157 b 944 154 941 155 943 154 b 952 151 946 152 949 151 b 963 155 957 151 960 152 l 969 164 b 954 178 966 170 961 174 b 932 184 947 182 940 184 b 897 170 918 184 906 179 b 883 134 887 160 883 148 b 897 99 883 120 887 108 m 991 170 b 976 134 981 161 976 149 b 991 99 976 120 981 108 b 1027 84 1000 89 1013 84 b 1063 99 1042 84 1054 89 b 1078 134 1073 108 1078 120 b 1063 170 1078 149 1073 161 b 1027 184 1054 179 1042 184 b 991 170 1013 184 1000 179 m 116 113 l 89 113 b 75 108 84 113 79 111 l 113 158 b 116 170 115 161 116 165 l 116 183 l 41 183 l 41 157 l 69 157 b 78 161 73 157 76 158 l 43 111 b 38 106 41 109 39 107 b 37 99 38 104 37 102 l 37 85 l 116 85 m 196 113 l 157 113 l 157 122 l 189 122 l 189 146 l 157 146 l 157 157 l 196 157 l 196 183 l 130 183 l 130 85 l 196 85 m 228 157 l 228 85 l 256 85 l 256 157 l 279 157 l 279 183 l 202 183 l 202 157 m 270 85 l 292 85 b 299 88 295 85 297 86 b 304 96 301 90 303 93 l 307 102 l 342 102 l 345 96 b 351 88 346 93 348 90 b 358 85 353 86 356 85 l 380 85 l 338 183 l 313 183 m 417 85 l 417 119 l 449 119 l 449 143 l 417 143 l 417 157 l 455 157 l 455 183 l 388 183 l 388 85 m 640 149 b 643 131 640 141 641 135 l 614 174 b 609 181 612 177 611 180 b 601 183 608 182 605 183 l 579 183 l 579 85 l 608 85 l 608 125 b 604 142 608 131 607 137 l 605 142 l 638 91 b 649 85 641 87 644 85 l 669 85 l 669 183 l 640 183 l 640 149 m 704 157 l 704 85 l 733 85 l 733 157 l 759 157 l 759 183 l 680 183 l 680 157 m 1153 139 b 1150 128 1151 136 1150 133 l 1148 128 b 1145 139 1148 133 1147 136 l 1129 174 b 1123 180 1127 176 1125 179 b 1116 183 1122 182 1119 183 l 1092 183 l 1092 85 l 1120 85 l 1120 128 b 1116 143 1120 132 1119 137 l 1118 143 l 1136 102 b 1150 94 1138 97 1143 94 b 1161 102 1154 94 1158 97 l 1180 143 b 1178 136 1179 141 1179 138 b 1178 128 1178 133 1178 131 l 1178 85 l 1205 85 l 1205 183 l 1181 183 b 1170 174 1177 183 1173 180 m 498 117 b 492 134 494 122 492 127 b 498 151 492 141 494 146 b 514 158 503 155 508 158 b 530 151 521 158 526 155 b 536 134 534 147 536 141 b 530 117 536 127 534 122 b 514 111 526 113 521 111 b 498 117 508 111 503 113 m 1011 117 b 1005 134 1007 122 1005 127 b 1011 151 1005 141 1007 147 b 1027 158 1016 155 1021 158 b 1044 151 1033 158 1039 155 b 1051 134 1048 146 1051 141 b 1044 117 1051 127 1048 122 b 1027 111 1039 113 1033 111 b 1011 117 1021 111 1016 113 m 321 134 b 324 152 323 139 324 145 l 326 152 b 329 134 326 143 327 137 l 335 120 l 316 120 l 321 134 m 848 88 b 859 84 851 86 854 84 b 869 88 863 84 866 86 b 873 99 872 91 873 95 b 869 110 873 103 872 107 b 859 114 866 113 863 114 b 848 110 854 114 851 113 b 844 99 845 107 844 103 b 848 88 844 95 845 91 "},"1":{"ha":1217,"x_min":0,"x_max":0,"o":"m 38 314 l 38 476 l 485 476 l 485 478 l 485 490 b 485 491 485 491 485 491 l 485 493 b 486 499 485 495 486 497 b 487 505 487 501 487 503 b 487 509 487 506 487 507 b 489 514 487 510 488 512 b 540 591 497 545 514 571 b 628 621 565 611 595 621 b 700 602 654 621 678 615 b 752 550 722 589 739 571 b 771 478 765 528 771 504 l 771 476 l 1217 476 l 1217 314 m 695 361 b 743 410 715 373 731 389 b 761 476 755 430 761 452 b 743 542 761 500 755 522 b 695 590 731 562 715 578 b 629 607 675 601 653 607 b 562 590 605 607 583 601 b 514 542 542 578 526 562 b 497 476 502 522 497 500 b 514 409 497 452 502 430 b 562 361 526 389 542 373 b 629 343 583 349 605 343 b 695 361 653 343 675 349 m 697 570 b 706 564 700 568 703 566 l 548 564 b 566 577 552 568 558 573 b 585 585 574 581 581 584 b 628 594 596 591 611 594 b 672 585 642 594 657 591 l 689 575 b 697 570 692 573 694 572 m 745 476 b 739 435 745 461 743 448 b 718 399 736 425 729 413 l 563 399 l 716 555 b 745 476 736 529 745 503 m 539 395 b 516 433 529 408 521 421 b 509 476 511 447 509 461 b 510 494 509 484 509 490 b 517 517 511 503 513 510 b 537 550 521 530 528 541 l 694 550 l 539 395 m 90 423 l 90 347 l 119 347 l 119 423 l 145 423 l 145 450 l 64 450 l 64 423 m 196 379 l 208 356 b 220 347 211 350 215 347 l 246 347 l 228 379 b 210 389 222 386 216 389 l 213 389 b 228 397 218 389 223 392 b 236 414 233 401 236 407 b 225 439 236 424 232 433 b 199 450 218 446 209 450 l 157 450 l 157 347 l 187 347 l 187 379 m 286 450 l 257 450 l 257 347 l 286 347 m 296 347 l 320 347 b 333 357 325 347 329 350 l 336 364 l 371 364 l 376 357 b 388 347 379 350 383 347 l 411 347 l 367 450 l 341 450 m 487 347 l 487 374 l 450 374 l 450 450 l 422 450 l 422 347 m 809 435 b 795 397 799 425 795 412 b 809 359 795 381 799 369 b 847 344 819 349 832 344 b 886 359 863 344 876 349 b 901 397 896 369 901 381 b 886 435 901 412 896 425 b 847 450 876 445 863 450 b 809 435 832 450 819 445 m 980 412 b 983 392 980 404 981 398 l 951 438 b 946 445 950 442 948 444 b 939 447 945 447 942 447 l 914 447 l 914 346 l 945 346 l 945 386 b 942 405 945 389 944 396 l 976 352 b 989 346 980 348 984 346 l 1010 346 l 1010 447 l 980 447 l 980 412 m 1095 346 l 1095 373 l 1059 373 l 1059 447 l 1030 447 l 1030 346 m 1153 376 b 1155 386 1153 380 1154 384 l 1192 447 l 1164 447 b 1153 441 1159 447 1155 445 l 1141 421 b 1139 412 1140 418 1139 415 b 1136 405 1138 409 1137 407 b 1133 421 1136 410 1135 416 l 1122 441 b 1110 447 1119 445 1115 447 l 1083 447 l 1120 386 b 1122 376 1121 384 1122 381 l 1122 346 l 1153 346 l 1153 376 m 197 421 b 205 414 202 421 205 419 b 203 408 205 412 204 410 b 198 406 201 407 200 406 l 187 406 l 187 421 l 197 421 m 830 379 b 823 397 825 384 823 390 b 830 414 823 403 825 409 b 847 421 835 419 840 421 b 864 414 854 421 859 419 b 870 397 868 409 870 403 b 864 379 870 390 868 384 b 847 373 859 375 854 373 b 830 379 840 373 835 375 m 349 398 b 352 405 350 399 351 401 b 353 417 353 409 353 413 l 355 417 b 358 398 355 408 356 402 l 364 385 l 344 385 l 349 398 m 706 386 b 689 373 696 378 690 374 b 681 369 687 372 684 371 b 672 364 678 366 675 365 b 662 362 669 364 666 363 b 649 359 658 361 653 360 b 628 356 642 357 635 356 b 586 364 612 356 598 359 b 550 386 574 369 562 377 m 50 218 l 50 247 l 78 247 l 78 254 l 50 254 l 50 277 l 84 277 l 84 285 l 43 285 l 43 218 m 108 230 b 102 244 104 233 102 238 l 102 285 l 95 285 l 95 244 b 102 224 95 236 97 229 b 121 217 107 219 113 217 b 141 224 129 217 136 219 b 149 244 146 230 149 236 l 149 285 l 140 285 l 140 244 b 135 229 140 238 138 233 b 121 224 132 226 127 224 b 108 230 115 224 111 226 m 202 218 l 202 225 l 174 225 l 174 285 l 166 285 l 166 218 m 254 218 l 254 225 l 223 225 l 223 285 l 217 285 l 217 218 m 343 284 b 342 282 342 284 342 283 l 321 233 b 320 226 321 231 320 228 l 319 226 b 318 233 319 228 319 231 l 296 282 b 291 285 296 284 295 285 l 286 285 l 316 218 l 323 218 l 351 285 l 346 285 b 343 284 345 285 344 285 m 403 225 l 368 225 l 368 248 l 397 248 l 397 256 l 368 256 l 368 277 l 403 277 l 403 285 l 362 285 l 362 218 l 403 218 m 435 246 l 455 221 b 463 218 458 219 460 218 l 467 218 l 447 245 b 444 247 447 246 446 247 l 444 247 b 455 253 448 248 451 250 b 461 265 459 256 461 260 b 455 279 461 271 459 275 b 441 285 451 283 446 285 l 417 285 l 417 218 l 426 218 l 426 246 m 482 220 b 493 217 486 218 489 217 b 509 222 500 217 505 218 b 514 237 512 226 514 231 b 495 257 514 247 508 253 b 484 268 488 260 484 264 b 494 278 484 275 487 278 b 506 275 498 278 502 277 b 510 277 507 274 509 275 l 511 279 b 494 285 508 283 502 285 b 481 281 489 285 484 284 b 475 268 477 278 475 274 b 493 250 475 261 481 255 b 508 237 503 246 508 242 b 504 227 508 233 506 230 b 493 224 501 225 497 224 b 479 230 488 225 484 227 b 476 230 479 230 478 231 b 473 228 475 230 474 229 l 472 227 b 482 220 474 224 478 222 m 536 285 l 530 285 l 530 218 l 536 218 m 561 275 b 551 251 554 268 551 260 b 561 227 551 241 554 233 b 586 217 568 220 576 217 b 611 226 596 217 604 220 b 621 251 617 233 621 241 b 611 276 621 261 617 269 b 586 285 604 282 596 285 b 561 275 576 285 568 282 m 680 235 b 681 230 680 233 681 231 l 646 283 b 640 285 644 284 642 285 l 634 285 l 634 218 l 642 218 l 642 270 l 641 275 l 680 220 b 682 218 680 219 681 218 l 689 218 l 689 285 l 680 285 l 680 235 m 567 232 b 558 251 561 238 558 244 b 566 270 558 258 561 265 b 586 278 572 275 579 278 b 605 270 593 278 599 275 b 613 251 610 265 613 258 b 605 232 613 244 610 238 b 586 224 599 227 593 224 b 567 232 579 224 573 227 m 441 277 b 449 274 444 277 446 276 b 453 265 451 271 453 269 b 449 257 453 262 451 259 b 441 254 446 255 444 254 l 426 254 l 426 277 l 441 277 m 1178 273 l 1176 270 b 1177 264 1174 268 1174 266 l 1186 255 l 727 255 l 727 248 l 1185 248 l 1177 239 b 1176 233 1175 237 1175 235 l 1178 230 l 1196 248 b 1198 252 1197 248 1198 250 b 1196 256 1198 253 1197 255 m 479 170 b 464 134 469 161 464 149 b 478 99 464 120 469 108 b 514 84 487 89 499 84 b 551 99 529 84 541 89 b 566 134 561 108 566 120 b 551 170 566 148 561 160 b 514 184 541 179 529 184 b 479 170 500 184 488 179 m 800 84 b 826 93 811 84 819 87 b 836 116 832 99 836 107 b 806 149 836 134 826 145 b 796 155 799 151 796 153 b 800 158 796 157 797 158 b 806 157 801 158 803 158 b 812 155 809 156 811 155 b 825 163 818 155 822 158 l 830 172 b 817 181 827 176 822 179 b 800 184 811 183 805 184 b 776 176 791 184 782 181 b 767 155 770 171 767 164 b 775 136 767 147 769 141 b 800 123 780 132 788 127 b 806 116 804 122 806 119 b 800 111 806 113 804 111 b 791 113 797 111 794 111 b 786 116 788 114 787 115 b 778 118 784 117 781 118 b 765 111 774 118 769 116 l 761 100 b 800 84 773 90 786 84 m 897 99 b 932 84 906 89 918 84 b 954 90 940 84 947 86 b 969 104 961 94 966 98 l 963 113 b 953 117 960 116 957 117 b 944 114 949 117 946 116 b 931 111 939 112 935 111 b 916 117 925 111 920 113 b 910 134 912 122 910 127 b 916 151 910 141 912 146 b 931 158 920 155 925 158 b 939 156 934 158 937 157 b 944 154 941 155 943 154 b 952 151 946 152 949 151 b 963 155 957 151 960 152 l 969 164 b 954 178 966 170 961 174 b 932 184 947 182 940 184 b 897 170 918 184 906 179 b 883 134 887 160 883 148 b 897 99 883 120 887 108 m 991 170 b 976 134 981 161 976 149 b 991 99 976 120 981 108 b 1027 84 1000 89 1013 84 b 1063 99 1042 84 1054 89 b 1078 134 1073 108 1078 120 b 1063 170 1078 149 1073 161 b 1027 184 1054 179 1042 184 b 991 170 1013 184 1000 179 m 116 113 l 89 113 b 75 108 84 113 79 111 l 113 158 b 116 170 115 161 116 165 l 116 183 l 41 183 l 41 157 l 69 157 b 78 161 73 157 76 158 l 43 111 b 38 106 41 109 39 107 b 37 99 38 104 37 102 l 37 85 l 116 85 m 196 113 l 157 113 l 157 122 l 189 122 l 189 146 l 157 146 l 157 157 l 196 157 l 196 183 l 130 183 l 130 85 l 196 85 m 228 157 l 228 85 l 256 85 l 256 157 l 279 157 l 279 183 l 202 183 l 202 157 m 270 85 l 292 85 b 299 88 295 85 297 86 b 304 96 301 90 303 93 l 307 102 l 342 102 l 345 96 b 351 88 346 93 348 90 b 358 85 353 86 356 85 l 380 85 l 338 183 l 313 183 m 417 85 l 417 119 l 449 119 l 449 143 l 417 143 l 417 157 l 455 157 l 455 183 l 388 183 l 388 85 m 640 149 b 643 131 640 141 641 135 l 614 174 b 609 181 612 177 611 180 b 601 183 608 182 605 183 l 579 183 l 579 85 l 608 85 l 608 125 b 604 142 608 131 607 137 l 605 142 l 638 91 b 649 85 641 87 644 85 l 669 85 l 669 183 l 640 183 l 640 149 m 704 157 l 704 85 l 733 85 l 733 157 l 759 157 l 759 183 l 680 183 l 680 157 m 1153 139 b 1150 128 1151 136 1150 133 l 1148 128 b 1145 139 1148 133 1147 136 l 1129 174 b 1123 180 1127 176 1125 179 b 1116 183 1122 182 1119 183 l 1092 183 l 1092 85 l 1120 85 l 1120 128 b 1116 143 1120 132 1119 137 l 1118 143 l 1136 102 b 1150 94 1138 97 1143 94 b 1161 102 1154 94 1158 97 l 1180 143 b 1178 136 1179 141 1179 138 b 1178 128 1178 133 1178 131 l 1178 85 l 1205 85 l 1205 183 l 1181 183 b 1170 174 1177 183 1173 180 m 498 117 b 492 134 494 122 492 127 b 498 151 492 141 494 146 b 514 158 503 155 508 158 b 530 151 521 158 526 155 b 536 134 534 147 536 141 b 530 117 536 127 534 122 b 514 111 526 113 521 111 b 498 117 508 111 503 113 m 1011 117 b 1005 134 1007 122 1005 127 b 1011 151 1005 141 1007 147 b 1027 158 1016 155 1021 158 b 1044 151 1033 158 1039 155 b 1051 134 1048 146 1051 141 b 1044 117 1051 127 1048 122 b 1027 111 1039 113 1033 111 b 1011 117 1021 111 1016 113 m 321 134 b 324 152 323 139 324 145 l 326 152 b 329 134 326 143 327 137 l 335 120 l 316 120 l 321 134 m 848 88 b 859 84 851 86 854 84 b 869 88 863 84 866 86 b 873 99 872 91 873 95 b 869 110 873 103 872 107 b 859 114 866 113 863 114 b 848 110 854 114 851 113 b 844 99 845 107 844 103 b 848 88 844 95 845 91 "},"2":{"ha":1217,"x_min":0,"x_max":0,"o":"m 38 314 l 38 476 l 485 476 l 485 478 l 485 490 b 485 491 485 491 485 491 l 485 493 b 486 499 485 495 486 497 b 487 505 487 501 487 503 b 487 509 487 506 487 507 b 489 514 487 510 488 512 b 540 591 497 545 514 571 b 628 621 565 611 595 621 b 700 602 654 621 678 615 b 752 550 722 589 739 571 b 771 478 765 528 771 504 l 771 476 l 1217 476 l 1217 314 m 695 361 b 743 410 715 373 731 389 b 761 476 755 430 761 452 b 743 542 761 500 755 522 b 695 590 731 562 715 578 b 629 607 675 601 653 607 b 562 590 605 607 583 601 b 514 542 542 578 526 562 b 497 476 502 522 497 500 b 514 409 497 452 502 430 b 562 361 526 389 542 373 b 629 343 583 349 605 343 b 695 361 653 343 675 349 m 697 570 b 706 564 700 568 703 566 l 548 564 b 566 577 552 568 558 573 b 585 585 574 581 581 584 b 628 594 596 591 611 594 b 672 585 642 594 657 591 l 689 575 b 697 570 692 573 694 572 m 745 476 b 739 435 745 461 743 448 b 718 399 736 425 729 413 l 563 399 l 716 555 b 745 476 736 529 745 503 m 539 395 b 516 433 529 408 521 421 b 509 476 511 447 509 461 b 510 494 509 484 509 490 b 517 517 511 503 513 510 b 537 550 521 530 528 541 l 694 550 l 539 395 m 90 423 l 90 347 l 119 347 l 119 423 l 145 423 l 145 450 l 64 450 l 64 423 m 196 379 l 208 356 b 220 347 211 350 215 347 l 246 347 l 228 379 b 210 389 222 386 216 389 l 213 389 b 228 397 218 389 223 392 b 236 414 233 401 236 407 b 225 439 236 424 232 433 b 199 450 218 446 209 450 l 157 450 l 157 347 l 187 347 l 187 379 m 286 450 l 257 450 l 257 347 l 286 347 m 296 347 l 320 347 b 333 357 325 347 329 350 l 336 364 l 371 364 l 376 357 b 388 347 379 350 383 347 l 411 347 l 367 450 l 341 450 m 487 347 l 487 374 l 450 374 l 450 450 l 422 450 l 422 347 m 809 435 b 795 397 799 425 795 412 b 809 359 795 381 799 369 b 847 344 819 349 832 344 b 886 359 863 344 876 349 b 901 397 896 369 901 381 b 886 435 901 412 896 425 b 847 450 876 445 863 450 b 809 435 832 450 819 445 m 980 412 b 983 392 980 404 981 398 l 951 438 b 946 445 950 442 948 444 b 939 447 945 447 942 447 l 914 447 l 914 346 l 945 346 l 945 386 b 942 405 945 389 944 396 l 976 352 b 989 346 980 348 984 346 l 1010 346 l 1010 447 l 980 447 l 980 412 m 1095 346 l 1095 373 l 1059 373 l 1059 447 l 1030 447 l 1030 346 m 1153 376 b 1155 386 1153 380 1154 384 l 1192 447 l 1164 447 b 1153 441 1159 447 1155 445 l 1141 421 b 1139 412 1140 418 1139 415 b 1136 405 1138 409 1137 407 b 1133 421 1136 410 1135 416 l 1122 441 b 1110 447 1119 445 1115 447 l 1083 447 l 1120 386 b 1122 376 1121 384 1122 381 l 1122 346 l 1153 346 l 1153 376 m 197 421 b 205 414 202 421 205 419 b 203 408 205 412 204 410 b 198 406 201 407 200 406 l 187 406 l 187 421 l 197 421 m 830 379 b 823 397 825 384 823 390 b 830 414 823 403 825 409 b 847 421 835 419 840 421 b 864 414 854 421 859 419 b 870 397 868 409 870 403 b 864 379 870 390 868 384 b 847 373 859 375 854 373 b 830 379 840 373 835 375 m 349 398 b 352 405 350 399 351 401 b 353 417 353 409 353 413 l 355 417 b 358 398 355 408 356 402 l 364 385 l 344 385 l 349 398 m 706 386 b 689 373 696 378 690 374 b 681 369 687 372 684 371 b 672 364 678 366 675 365 b 662 362 669 364 666 363 b 649 359 658 361 653 360 b 628 356 642 357 635 356 b 586 364 612 356 598 359 b 550 386 574 369 562 377 m 50 218 l 50 247 l 78 247 l 78 254 l 50 254 l 50 277 l 84 277 l 84 285 l 43 285 l 43 218 m 108 230 b 102 244 104 233 102 238 l 102 285 l 95 285 l 95 244 b 102 224 95 236 97 229 b 121 217 107 219 113 217 b 141 224 129 217 136 219 b 149 244 146 230 149 236 l 149 285 l 140 285 l 140 244 b 135 229 140 238 138 233 b 121 224 132 226 127 224 b 108 230 115 224 111 226 m 202 218 l 202 225 l 174 225 l 174 285 l 166 285 l 166 218 m 254 218 l 254 225 l 223 225 l 223 285 l 217 285 l 217 218 m 343 284 b 342 282 342 284 342 283 l 321 233 b 320 226 321 231 320 228 l 319 226 b 318 233 319 228 319 231 l 296 282 b 291 285 296 284 295 285 l 286 285 l 316 218 l 323 218 l 351 285 l 346 285 b 343 284 345 285 344 285 m 403 225 l 368 225 l 368 248 l 397 248 l 397 256 l 368 256 l 368 277 l 403 277 l 403 285 l 362 285 l 362 218 l 403 218 m 435 246 l 455 221 b 463 218 458 219 460 218 l 467 218 l 447 245 b 444 247 447 246 446 247 l 444 247 b 455 253 448 248 451 250 b 461 265 459 256 461 260 b 455 279 461 271 459 275 b 441 285 451 283 446 285 l 417 285 l 417 218 l 426 218 l 426 246 m 482 220 b 493 217 486 218 489 217 b 509 222 500 217 505 218 b 514 237 512 226 514 231 b 495 257 514 247 508 253 b 484 268 488 260 484 264 b 494 278 484 275 487 278 b 506 275 498 278 502 277 b 510 277 507 274 509 275 l 511 279 b 494 285 508 283 502 285 b 481 281 489 285 484 284 b 475 268 477 278 475 274 b 493 250 475 261 481 255 b 508 237 503 246 508 242 b 504 227 508 233 506 230 b 493 224 501 225 497 224 b 479 230 488 225 484 227 b 476 230 479 230 478 231 b 473 228 475 230 474 229 l 472 227 b 482 220 474 224 478 222 m 536 285 l 530 285 l 530 218 l 536 218 m 561 275 b 551 251 554 268 551 260 b 561 227 551 241 554 233 b 586 217 568 220 576 217 b 611 226 596 217 604 220 b 621 251 617 233 621 241 b 611 276 621 261 617 269 b 586 285 604 282 596 285 b 561 275 576 285 568 282 m 680 235 b 681 230 680 233 681 231 l 646 283 b 640 285 644 284 642 285 l 634 285 l 634 218 l 642 218 l 642 270 l 641 275 l 680 220 b 682 218 680 219 681 218 l 689 218 l 689 285 l 680 285 l 680 235 m 567 232 b 558 251 561 238 558 244 b 566 270 558 258 561 265 b 586 278 572 275 579 278 b 605 270 593 278 599 275 b 613 251 610 265 613 258 b 605 232 613 244 610 238 b 586 224 599 227 593 224 b 567 232 579 224 573 227 m 441 277 b 449 274 444 277 446 276 b 453 265 451 271 453 269 b 449 257 453 262 451 259 b 441 254 446 255 444 254 l 426 254 l 426 277 l 441 277 m 1178 273 l 1176 270 b 1177 264 1174 268 1174 266 l 1186 255 l 727 255 l 727 248 l 1185 248 l 1177 239 b 1176 233 1175 237 1175 235 l 1178 230 l 1196 248 b 1198 252 1197 248 1198 250 b 1196 256 1198 253 1197 255 m 479 170 b 464 134 469 161 464 149 b 478 99 464 120 469 108 b 514 84 487 89 499 84 b 551 99 529 84 541 89 b 566 134 561 108 566 120 b 551 170 566 148 561 160 b 514 184 541 179 529 184 b 479 170 500 184 488 179 m 800 84 b 826 93 811 84 819 87 b 836 116 832 99 836 107 b 806 149 836 134 826 145 b 796 155 799 151 796 153 b 800 158 796 157 797 158 b 806 157 801 158 803 158 b 812 155 809 156 811 155 b 825 163 818 155 822 158 l 830 172 b 817 181 827 176 822 179 b 800 184 811 183 805 184 b 776 176 791 184 782 181 b 767 155 770 171 767 164 b 775 136 767 147 769 141 b 800 123 780 132 788 127 b 806 116 804 122 806 119 b 800 111 806 113 804 111 b 791 113 797 111 794 111 b 786 116 788 114 787 115 b 778 118 784 117 781 118 b 765 111 774 118 769 116 l 761 100 b 800 84 773 90 786 84 m 897 99 b 932 84 906 89 918 84 b 954 90 940 84 947 86 b 969 104 961 94 966 98 l 963 113 b 953 117 960 116 957 117 b 944 114 949 117 946 116 b 931 111 939 112 935 111 b 916 117 925 111 920 113 b 910 134 912 122 910 127 b 916 151 910 141 912 146 b 931 158 920 155 925 158 b 939 156 934 158 937 157 b 944 154 941 155 943 154 b 952 151 946 152 949 151 b 963 155 957 151 960 152 l 969 164 b 954 178 966 170 961 174 b 932 184 947 182 940 184 b 897 170 918 184 906 179 b 883 134 887 160 883 148 b 897 99 883 120 887 108 m 991 170 b 976 134 981 161 976 149 b 991 99 976 120 981 108 b 1027 84 1000 89 1013 84 b 1063 99 1042 84 1054 89 b 1078 134 1073 108 1078 120 b 1063 170 1078 149 1073 161 b 1027 184 1054 179 1042 184 b 991 170 1013 184 1000 179 m 116 113 l 89 113 b 75 108 84 113 79 111 l 113 158 b 116 170 115 161 116 165 l 116 183 l 41 183 l 41 157 l 69 157 b 78 161 73 157 76 158 l 43 111 b 38 106 41 109 39 107 b 37 99 38 104 37 102 l 37 85 l 116 85 m 196 113 l 157 113 l 157 122 l 189 122 l 189 146 l 157 146 l 157 157 l 196 157 l 196 183 l 130 183 l 130 85 l 196 85 m 228 157 l 228 85 l 256 85 l 256 157 l 279 157 l 279 183 l 202 183 l 202 157 m 270 85 l 292 85 b 299 88 295 85 297 86 b 304 96 301 90 303 93 l 307 102 l 342 102 l 345 96 b 351 88 346 93 348 90 b 358 85 353 86 356 85 l 380 85 l 338 183 l 313 183 m 417 85 l 417 119 l 449 119 l 449 143 l 417 143 l 417 157 l 455 157 l 455 183 l 388 183 l 388 85 m 640 149 b 643 131 640 141 641 135 l 614 174 b 609 181 612 177 611 180 b 601 183 608 182 605 183 l 579 183 l 579 85 l 608 85 l 608 125 b 604 142 608 131 607 137 l 605 142 l 638 91 b 649 85 641 87 644 85 l 669 85 l 669 183 l 640 183 l 640 149 m 704 157 l 704 85 l 733 85 l 733 157 l 759 157 l 759 183 l 680 183 l 680 157 m 1153 139 b 1150 128 1151 136 1150 133 l 1148 128 b 1145 139 1148 133 1147 136 l 1129 174 b 1123 180 1127 176 1125 179 b 1116 183 1122 182 1119 183 l 1092 183 l 1092 85 l 1120 85 l 1120 128 b 1116 143 1120 132 1119 137 l 1118 143 l 1136 102 b 1150 94 1138 97 1143 94 b 1161 102 1154 94 1158 97 l 1180 143 b 1178 136 1179 141 1179 138 b 1178 128 1178 133 1178 131 l 1178 85 l 1205 85 l 1205 183 l 1181 183 b 1170 174 1177 183 1173 180 m 498 117 b 492 134 494 122 492 127 b 498 151 492 141 494 146 b 514 158 503 155 508 158 b 530 151 521 158 526 155 b 536 134 534 147 536 141 b 530 117 536 127 534 122 b 514 111 526 113 521 111 b 498 117 508 111 503 113 m 1011 117 b 1005 134 1007 122 1005 127 b 1011 151 1005 141 1007 147 b 1027 158 1016 155 1021 158 b 1044 151 1033 158 1039 155 b 1051 134 1048 146 1051 141 b 1044 117 1051 127 1048 122 b 1027 111 1039 113 1033 111 b 1011 117 1021 111 1016 113 m 321 134 b 324 152 323 139 324 145 l 326 152 b 329 134 326 143 327 137 l 335 120 l 316 120 l 321 134 m 848 88 b 859 84 851 86 854 84 b 869 88 863 84 866 86 b 873 99 872 91 873 95 b 869 110 873 103 872 107 b 859 114 866 113 863 114 b 848 110 854 114 851 113 b 844 99 845 107 844 103 b 848 88 844 95 845 91 "},"3":{"ha":1217,"x_min":0,"x_max":0,"o":"m 38 314 l 38 476 l 485 476 l 485 478 l 485 490 b 485 491 485 491 485 491 l 485 493 b 486 499 485 495 486 497 b 487 505 487 501 487 503 b 487 509 487 506 487 507 b 489 514 487 510 488 512 b 540 591 497 545 514 571 b 628 621 565 611 595 621 b 700 602 654 621 678 615 b 752 550 722 589 739 571 b 771 478 765 528 771 504 l 771 476 l 1217 476 l 1217 314 m 695 361 b 743 410 715 373 731 389 b 761 476 755 430 761 452 b 743 542 761 500 755 522 b 695 590 731 562 715 578 b 629 607 675 601 653 607 b 562 590 605 607 583 601 b 514 542 542 578 526 562 b 497 476 502 522 497 500 b 514 409 497 452 502 430 b 562 361 526 389 542 373 b 629 343 583 349 605 343 b 695 361 653 343 675 349 m 697 570 b 706 564 700 568 703 566 l 548 564 b 566 577 552 568 558 573 b 585 585 574 581 581 584 b 628 594 596 591 611 594 b 672 585 642 594 657 591 l 689 575 b 697 570 692 573 694 572 m 745 476 b 739 435 745 461 743 448 b 718 399 736 425 729 413 l 563 399 l 716 555 b 745 476 736 529 745 503 m 539 395 b 516 433 529 408 521 421 b 509 476 511 447 509 461 b 510 494 509 484 509 490 b 517 517 511 503 513 510 b 537 550 521 530 528 541 l 694 550 l 539 395 m 90 423 l 90 347 l 119 347 l 119 423 l 145 423 l 145 450 l 64 450 l 64 423 m 196 379 l 208 356 b 220 347 211 350 215 347 l 246 347 l 228 379 b 210 389 222 386 216 389 l 213 389 b 228 397 218 389 223 392 b 236 414 233 401 236 407 b 225 439 236 424 232 433 b 199 450 218 446 209 450 l 157 450 l 157 347 l 187 347 l 187 379 m 286 450 l 257 450 l 257 347 l 286 347 m 296 347 l 320 347 b 333 357 325 347 329 350 l 336 364 l 371 364 l 376 357 b 388 347 379 350 383 347 l 411 347 l 367 450 l 341 450 m 487 347 l 487 374 l 450 374 l 450 450 l 422 450 l 422 347 m 809 435 b 795 397 799 425 795 412 b 809 359 795 381 799 369 b 847 344 819 349 832 344 b 886 359 863 344 876 349 b 901 397 896 369 901 381 b 886 435 901 412 896 425 b 847 450 876 445 863 450 b 809 435 832 450 819 445 m 980 412 b 983 392 980 404 981 398 l 951 438 b 946 445 950 442 948 444 b 939 447 945 447 942 447 l 914 447 l 914 346 l 945 346 l 945 386 b 942 405 945 389 944 396 l 976 352 b 989 346 980 348 984 346 l 1010 346 l 1010 447 l 980 447 l 980 412 m 1095 346 l 1095 373 l 1059 373 l 1059 447 l 1030 447 l 1030 346 m 1153 376 b 1155 386 1153 380 1154 384 l 1192 447 l 1164 447 b 1153 441 1159 447 1155 445 l 1141 421 b 1139 412 1140 418 1139 415 b 1136 405 1138 409 1137 407 b 1133 421 1136 410 1135 416 l 1122 441 b 1110 447 1119 445 1115 447 l 1083 447 l 1120 386 b 1122 376 1121 384 1122 381 l 1122 346 l 1153 346 l 1153 376 m 197 421 b 205 414 202 421 205 419 b 203 408 205 412 204 410 b 198 406 201 407 200 406 l 187 406 l 187 421 l 197 421 m 830 379 b 823 397 825 384 823 390 b 830 414 823 403 825 409 b 847 421 835 419 840 421 b 864 414 854 421 859 419 b 870 397 868 409 870 403 b 864 379 870 390 868 384 b 847 373 859 375 854 373 b 830 379 840 373 835 375 m 349 398 b 352 405 350 399 351 401 b 353 417 353 409 353 413 l 355 417 b 358 398 355 408 356 402 l 364 385 l 344 385 l 349 398 m 706 386 b 689 373 696 378 690 374 b 681 369 687 372 684 371 b 672 364 678 366 675 365 b 662 362 669 364 666 363 b 649 359 658 361 653 360 b 628 356 642 357 635 356 b 586 364 612 356 598 359 b 550 386 574 369 562 377 m 50 218 l 50 247 l 78 247 l 78 254 l 50 254 l 50 277 l 84 277 l 84 285 l 43 285 l 43 218 m 108 230 b 102 244 104 233 102 238 l 102 285 l 95 285 l 95 244 b 102 224 95 236 97 229 b 121 217 107 219 113 217 b 141 224 129 217 136 219 b 149 244 146 230 149 236 l 149 285 l 140 285 l 140 244 b 135 229 140 238 138 233 b 121 224 132 226 127 224 b 108 230 115 224 111 226 m 202 218 l 202 225 l 174 225 l 174 285 l 166 285 l 166 218 m 254 218 l 254 225 l 223 225 l 223 285 l 217 285 l 217 218 m 343 284 b 342 282 342 284 342 283 l 321 233 b 320 226 321 231 320 228 l 319 226 b 318 233 319 228 319 231 l 296 282 b 291 285 296 284 295 285 l 286 285 l 316 218 l 323 218 l 351 285 l 346 285 b 343 284 345 285 344 285 m 403 225 l 368 225 l 368 248 l 397 248 l 397 256 l 368 256 l 368 277 l 403 277 l 403 285 l 362 285 l 362 218 l 403 218 m 435 246 l 455 221 b 463 218 458 219 460 218 l 467 218 l 447 245 b 444 247 447 246 446 247 l 444 247 b 455 253 448 248 451 250 b 461 265 459 256 461 260 b 455 279 461 271 459 275 b 441 285 451 283 446 285 l 417 285 l 417 218 l 426 218 l 426 246 m 482 220 b 493 217 486 218 489 217 b 509 222 500 217 505 218 b 514 237 512 226 514 231 b 495 257 514 247 508 253 b 484 268 488 260 484 264 b 494 278 484 275 487 278 b 506 275 498 278 502 277 b 510 277 507 274 509 275 l 511 279 b 494 285 508 283 502 285 b 481 281 489 285 484 284 b 475 268 477 278 475 274 b 493 250 475 261 481 255 b 508 237 503 246 508 242 b 504 227 508 233 506 230 b 493 224 501 225 497 224 b 479 230 488 225 484 227 b 476 230 479 230 478 231 b 473 228 475 230 474 229 l 472 227 b 482 220 474 224 478 222 m 536 285 l 530 285 l 530 218 l 536 218 m 561 275 b 551 251 554 268 551 260 b 561 227 551 241 554 233 b 586 217 568 220 576 217 b 611 226 596 217 604 220 b 621 251 617 233 621 241 b 611 276 621 261 617 269 b 586 285 604 282 596 285 b 561 275 576 285 568 282 m 680 235 b 681 230 680 233 681 231 l 646 283 b 640 285 644 284 642 285 l 634 285 l 634 218 l 642 218 l 642 270 l 641 275 l 680 220 b 682 218 680 219 681 218 l 689 218 l 689 285 l 680 285 l 680 235 m 567 232 b 558 251 561 238 558 244 b 566 270 558 258 561 265 b 586 278 572 275 579 278 b 605 270 593 278 599 275 b 613 251 610 265 613 258 b 605 232 613 244 610 238 b 586 224 599 227 593 224 b 567 232 579 224 573 227 m 441 277 b 449 274 444 277 446 276 b 453 265 451 271 453 269 b 449 257 453 262 451 259 b 441 254 446 255 444 254 l 426 254 l 426 277 l 441 277 m 1178 273 l 1176 270 b 1177 264 1174 268 1174 266 l 1186 255 l 727 255 l 727 248 l 1185 248 l 1177 239 b 1176 233 1175 237 1175 235 l 1178 230 l 1196 248 b 1198 252 1197 248 1198 250 b 1196 256 1198 253 1197 255 m 479 170 b 464 134 469 161 464 149 b 478 99 464 120 469 108 b 514 84 487 89 499 84 b 551 99 529 84 541 89 b 566 134 561 108 566 120 b 551 170 566 148 561 160 b 514 184 541 179 529 184 b 479 170 500 184 488 179 m 800 84 b 826 93 811 84 819 87 b 836 116 832 99 836 107 b 806 149 836 134 826 145 b 796 155 799 151 796 153 b 800 158 796 157 797 158 b 806 157 801 158 803 158 b 812 155 809 156 811 155 b 825 163 818 155 822 158 l 830 172 b 817 181 827 176 822 179 b 800 184 811 183 805 184 b 776 176 791 184 782 181 b 767 155 770 171 767 164 b 775 136 767 147 769 141 b 800 123 780 132 788 127 b 806 116 804 122 806 119 b 800 111 806 113 804 111 b 791 113 797 111 794 111 b 786 116 788 114 787 115 b 778 118 784 117 781 118 b 765 111 774 118 769 116 l 761 100 b 800 84 773 90 786 84 m 897 99 b 932 84 906 89 918 84 b 954 90 940 84 947 86 b 969 104 961 94 966 98 l 963 113 b 953 117 960 116 957 117 b 944 114 949 117 946 116 b 931 111 939 112 935 111 b 916 117 925 111 920 113 b 910 134 912 122 910 127 b 916 151 910 141 912 146 b 931 158 920 155 925 158 b 939 156 934 158 937 157 b 944 154 941 155 943 154 b 952 151 946 152 949 151 b 963 155 957 151 960 152 l 969 164 b 954 178 966 170 961 174 b 932 184 947 182 940 184 b 897 170 918 184 906 179 b 883 134 887 160 883 148 b 897 99 883 120 887 108 m 991 170 b 976 134 981 161 976 149 b 991 99 976 120 981 108 b 1027 84 1000 89 1013 84 b 1063 99 1042 84 1054 89 b 1078 134 1073 108 1078 120 b 1063 170 1078 149 1073 161 b 1027 184 1054 179 1042 184 b 991 170 1013 184 1000 179 m 116 113 l 89 113 b 75 108 84 113 79 111 l 113 158 b 116 170 115 161 116 165 l 116 183 l 41 183 l 41 157 l 69 157 b 78 161 73 157 76 158 l 43 111 b 38 106 41 109 39 107 b 37 99 38 104 37 102 l 37 85 l 116 85 m 196 113 l 157 113 l 157 122 l 189 122 l 189 146 l 157 146 l 157 157 l 196 157 l 196 183 l 130 183 l 130 85 l 196 85 m 228 157 l 228 85 l 256 85 l 256 157 l 279 157 l 279 183 l 202 183 l 202 157 m 270 85 l 292 85 b 299 88 295 85 297 86 b 304 96 301 90 303 93 l 307 102 l 342 102 l 345 96 b 351 88 346 93 348 90 b 358 85 353 86 356 85 l 380 85 l 338 183 l 313 183 m 417 85 l 417 119 l 449 119 l 449 143 l 417 143 l 417 157 l 455 157 l 455 183 l 388 183 l 388 85 m 640 149 b 643 131 640 141 641 135 l 614 174 b 609 181 612 177 611 180 b 601 183 608 182 605 183 l 579 183 l 579 85 l 608 85 l 608 125 b 604 142 608 131 607 137 l 605 142 l 638 91 b 649 85 641 87 644 85 l 669 85 l 669 183 l 640 183 l 640 149 m 704 157 l 704 85 l 733 85 l 733 157 l 759 157 l 759 183 l 680 183 l 680 157 m 1153 139 b 1150 128 1151 136 1150 133 l 1148 128 b 1145 139 1148 133 1147 136 l 1129 174 b 1123 180 1127 176 1125 179 b 1116 183 1122 182 1119 183 l 1092 183 l 1092 85 l 1120 85 l 1120 128 b 1116 143 1120 132 1119 137 l 1118 143 l 1136 102 b 1150 94 1138 97 1143 94 b 1161 102 1154 94 1158 97 l 1180 143 b 1178 136 1179 141 1179 138 b 1178 128 1178 133 1178 131 l 1178 85 l 1205 85 l 1205 183 l 1181 183 b 1170 174 1177 183 1173 180 m 498 117 b 492 134 494 122 492 127 b 498 151 492 141 494 146 b 514 158 503 155 508 158 b 530 151 521 158 526 155 b 536 134 534 147 536 141 b 530 117 536 127 534 122 b 514 111 526 113 521 111 b 498 117 508 111 503 113 m 1011 117 b 1005 134 1007 122 1005 127 b 1011 151 1005 141 1007 147 b 1027 158 1016 155 1021 158 b 1044 151 1033 158 1039 155 b 1051 134 1048 146 1051 141 b 1044 117 1051 127 1048 122 b 1027 111 1039 113 1033 111 b 1011 117 1021 111 1016 113 m 321 134 b 324 152 323 139 324 145 l 326 152 b 329 134 326 143 327 137 l 335 120 l 316 120 l 321 134 m 848 88 b 859 84 851 86 854 84 b 869 88 863 84 866 86 b 873 99 872 91 873 95 b 869 110 873 103 872 107 b 859 114 866 113 863 114 b 848 110 854 114 851 113 b 844 99 845 107 844 103 b 848 88 844 95 845 91 "},"4":{"ha":1217,"x_min":0,"x_max":0,"o":"m 38 314 l 38 476 l 485 476 l 485 478 l 485 490 b 485 491 485 491 485 491 l 485 493 b 486 499 485 495 486 497 b 487 505 487 501 487 503 b 487 509 487 506 487 507 b 489 514 487 510 488 512 b 540 591 497 545 514 571 b 628 621 565 611 595 621 b 700 602 654 621 678 615 b 752 550 722 589 739 571 b 771 478 765 528 771 504 l 771 476 l 1217 476 l 1217 314 m 695 361 b 743 410 715 373 731 389 b 761 476 755 430 761 452 b 743 542 761 500 755 522 b 695 590 731 562 715 578 b 629 607 675 601 653 607 b 562 590 605 607 583 601 b 514 542 542 578 526 562 b 497 476 502 522 497 500 b 514 409 497 452 502 430 b 562 361 526 389 542 373 b 629 343 583 349 605 343 b 695 361 653 343 675 349 m 697 570 b 706 564 700 568 703 566 l 548 564 b 566 577 552 568 558 573 b 585 585 574 581 581 584 b 628 594 596 591 611 594 b 672 585 642 594 657 591 l 689 575 b 697 570 692 573 694 572 m 745 476 b 739 435 745 461 743 448 b 718 399 736 425 729 413 l 563 399 l 716 555 b 745 476 736 529 745 503 m 539 395 b 516 433 529 408 521 421 b 509 476 511 447 509 461 b 510 494 509 484 509 490 b 517 517 511 503 513 510 b 537 550 521 530 528 541 l 694 550 l 539 395 m 90 423 l 90 347 l 119 347 l 119 423 l 145 423 l 145 450 l 64 450 l 64 423 m 196 379 l 208 356 b 220 347 211 350 215 347 l 246 347 l 228 379 b 210 389 222 386 216 389 l 213 389 b 228 397 218 389 223 392 b 236 414 233 401 236 407 b 225 439 236 424 232 433 b 199 450 218 446 209 450 l 157 450 l 157 347 l 187 347 l 187 379 m 286 450 l 257 450 l 257 347 l 286 347 m 296 347 l 320 347 b 333 357 325 347 329 350 l 336 364 l 371 364 l 376 357 b 388 347 379 350 383 347 l 411 347 l 367 450 l 341 450 m 487 347 l 487 374 l 450 374 l 450 450 l 422 450 l 422 347 m 809 435 b 795 397 799 425 795 412 b 809 359 795 381 799 369 b 847 344 819 349 832 344 b 886 359 863 344 876 349 b 901 397 896 369 901 381 b 886 435 901 412 896 425 b 847 450 876 445 863 450 b 809 435 832 450 819 445 m 980 412 b 983 392 980 404 981 398 l 951 438 b 946 445 950 442 948 444 b 939 447 945 447 942 447 l 914 447 l 914 346 l 945 346 l 945 386 b 942 405 945 389 944 396 l 976 352 b 989 346 980 348 984 346 l 1010 346 l 1010 447 l 980 447 l 980 412 m 1095 346 l 1095 373 l 1059 373 l 1059 447 l 1030 447 l 1030 346 m 1153 376 b 1155 386 1153 380 1154 384 l 1192 447 l 1164 447 b 1153 441 1159 447 1155 445 l 1141 421 b 1139 412 1140 418 1139 415 b 1136 405 1138 409 1137 407 b 1133 421 1136 410 1135 416 l 1122 441 b 1110 447 1119 445 1115 447 l 1083 447 l 1120 386 b 1122 376 1121 384 1122 381 l 1122 346 l 1153 346 l 1153 376 m 197 421 b 205 414 202 421 205 419 b 203 408 205 412 204 410 b 198 406 201 407 200 406 l 187 406 l 187 421 l 197 421 m 830 379 b 823 397 825 384 823 390 b 830 414 823 403 825 409 b 847 421 835 419 840 421 b 864 414 854 421 859 419 b 870 397 868 409 870 403 b 864 379 870 390 868 384 b 847 373 859 375 854 373 b 830 379 840 373 835 375 m 349 398 b 352 405 350 399 351 401 b 353 417 353 409 353 413 l 355 417 b 358 398 355 408 356 402 l 364 385 l 344 385 l 349 398 m 706 386 b 689 373 696 378 690 374 b 681 369 687 372 684 371 b 672 364 678 366 675 365 b 662 362 669 364 666 363 b 649 359 658 361 653 360 b 628 356 642 357 635 356 b 586 364 612 356 598 359 b 550 386 574 369 562 377 m 50 218 l 50 247 l 78 247 l 78 254 l 50 254 l 50 277 l 84 277 l 84 285 l 43 285 l 43 218 m 108 230 b 102 244 104 233 102 238 l 102 285 l 95 285 l 95 244 b 102 224 95 236 97 229 b 121 217 107 219 113 217 b 141 224 129 217 136 219 b 149 244 146 230 149 236 l 149 285 l 140 285 l 140 244 b 135 229 140 238 138 233 b 121 224 132 226 127 224 b 108 230 115 224 111 226 m 202 218 l 202 225 l 174 225 l 174 285 l 166 285 l 166 218 m 254 218 l 254 225 l 223 225 l 223 285 l 217 285 l 217 218 m 343 284 b 342 282 342 284 342 283 l 321 233 b 320 226 321 231 320 228 l 319 226 b 318 233 319 228 319 231 l 296 282 b 291 285 296 284 295 285 l 286 285 l 316 218 l 323 218 l 351 285 l 346 285 b 343 284 345 285 344 285 m 403 225 l 368 225 l 368 248 l 397 248 l 397 256 l 368 256 l 368 277 l 403 277 l 403 285 l 362 285 l 362 218 l 403 218 m 435 246 l 455 221 b 463 218 458 219 460 218 l 467 218 l 447 245 b 444 247 447 246 446 247 l 444 247 b 455 253 448 248 451 250 b 461 265 459 256 461 260 b 455 279 461 271 459 275 b 441 285 451 283 446 285 l 417 285 l 417 218 l 426 218 l 426 246 m 482 220 b 493 217 486 218 489 217 b 509 222 500 217 505 218 b 514 237 512 226 514 231 b 495 257 514 247 508 253 b 484 268 488 260 484 264 b 494 278 484 275 487 278 b 506 275 498 278 502 277 b 510 277 507 274 509 275 l 511 279 b 494 285 508 283 502 285 b 481 281 489 285 484 284 b 475 268 477 278 475 274 b 493 250 475 261 481 255 b 508 237 503 246 508 242 b 504 227 508 233 506 230 b 493 224 501 225 497 224 b 479 230 488 225 484 227 b 476 230 479 230 478 231 b 473 228 475 230 474 229 l 472 227 b 482 220 474 224 478 222 m 536 285 l 530 285 l 530 218 l 536 218 m 561 275 b 551 251 554 268 551 260 b 561 227 551 241 554 233 b 586 217 568 220 576 217 b 611 226 596 217 604 220 b 621 251 617 233 621 241 b 611 276 621 261 617 269 b 586 285 604 282 596 285 b 561 275 576 285 568 282 m 680 235 b 681 230 680 233 681 231 l 646 283 b 640 285 644 284 642 285 l 634 285 l 634 218 l 642 218 l 642 270 l 641 275 l 680 220 b 682 218 680 219 681 218 l 689 218 l 689 285 l 680 285 l 680 235 m 567 232 b 558 251 561 238 558 244 b 566 270 558 258 561 265 b 586 278 572 275 579 278 b 605 270 593 278 599 275 b 613 251 610 265 613 258 b 605 232 613 244 610 238 b 586 224 599 227 593 224 b 567 232 579 224 573 227 m 441 277 b 449 274 444 277 446 276 b 453 265 451 271 453 269 b 449 257 453 262 451 259 b 441 254 446 255 444 254 l 426 254 l 426 277 l 441 277 m 1178 273 l 1176 270 b 1177 264 1174 268 1174 266 l 1186 255 l 727 255 l 727 248 l 1185 248 l 1177 239 b 1176 233 1175 237 1175 235 l 1178 230 l 1196 248 b 1198 252 1197 248 1198 250 b 1196 256 1198 253 1197 255 m 479 170 b 464 134 469 161 464 149 b 478 99 464 120 469 108 b 514 84 487 89 499 84 b 551 99 529 84 541 89 b 566 134 561 108 566 120 b 551 170 566 148 561 160 b 514 184 541 179 529 184 b 479 170 500 184 488 179 m 800 84 b 826 93 811 84 819 87 b 836 116 832 99 836 107 b 806 149 836 134 826 145 b 796 155 799 151 796 153 b 800 158 796 157 797 158 b 806 157 801 158 803 158 b 812 155 809 156 811 155 b 825 163 818 155 822 158 l 830 172 b 817 181 827 176 822 179 b 800 184 811 183 805 184 b 776 176 791 184 782 181 b 767 155 770 171 767 164 b 775 136 767 147 769 141 b 800 123 780 132 788 127 b 806 116 804 122 806 119 b 800 111 806 113 804 111 b 791 113 797 111 794 111 b 786 116 788 114 787 115 b 778 118 784 117 781 118 b 765 111 774 118 769 116 l 761 100 b 800 84 773 90 786 84 m 897 99 b 932 84 906 89 918 84 b 954 90 940 84 947 86 b 969 104 961 94 966 98 l 963 113 b 953 117 960 116 957 117 b 944 114 949 117 946 116 b 931 111 939 112 935 111 b 916 117 925 111 920 113 b 910 134 912 122 910 127 b 916 151 910 141 912 146 b 931 158 920 155 925 158 b 939 156 934 158 937 157 b 944 154 941 155 943 154 b 952 151 946 152 949 151 b 963 155 957 151 960 152 l 969 164 b 954 178 966 170 961 174 b 932 184 947 182 940 184 b 897 170 918 184 906 179 b 883 134 887 160 883 148 b 897 99 883 120 887 108 m 991 170 b 976 134 981 161 976 149 b 991 99 976 120 981 108 b 1027 84 1000 89 1013 84 b 1063 99 1042 84 1054 89 b 1078 134 1073 108 1078 120 b 1063 170 1078 149 1073 161 b 1027 184 1054 179 1042 184 b 991 170 1013 184 1000 179 m 116 113 l 89 113 b 75 108 84 113 79 111 l 113 158 b 116 170 115 161 116 165 l 116 183 l 41 183 l 41 157 l 69 157 b 78 161 73 157 76 158 l 43 111 b 38 106 41 109 39 107 b 37 99 38 104 37 102 l 37 85 l 116 85 m 196 113 l 157 113 l 157 122 l 189 122 l 189 146 l 157 146 l 157 157 l 196 157 l 196 183 l 130 183 l 130 85 l 196 85 m 228 157 l 228 85 l 256 85 l 256 157 l 279 157 l 279 183 l 202 183 l 202 157 m 270 85 l 292 85 b 299 88 295 85 297 86 b 304 96 301 90 303 93 l 307 102 l 342 102 l 345 96 b 351 88 346 93 348 90 b 358 85 353 86 356 85 l 380 85 l 338 183 l 313 183 m 417 85 l 417 119 l 449 119 l 449 143 l 417 143 l 417 157 l 455 157 l 455 183 l 388 183 l 388 85 m 640 149 b 643 131 640 141 641 135 l 614 174 b 609 181 612 177 611 180 b 601 183 608 182 605 183 l 579 183 l 579 85 l 608 85 l 608 125 b 604 142 608 131 607 137 l 605 142 l 638 91 b 649 85 641 87 644 85 l 669 85 l 669 183 l 640 183 l 640 149 m 704 157 l 704 85 l 733 85 l 733 157 l 759 157 l 759 183 l 680 183 l 680 157 m 1153 139 b 1150 128 1151 136 1150 133 l 1148 128 b 1145 139 1148 133 1147 136 l 1129 174 b 1123 180 1127 176 1125 179 b 1116 183 1122 182 1119 183 l 1092 183 l 1092 85 l 1120 85 l 1120 128 b 1116 143 1120 132 1119 137 l 1118 143 l 1136 102 b 1150 94 1138 97 1143 94 b 1161 102 1154 94 1158 97 l 1180 143 b 1178 136 1179 141 1179 138 b 1178 128 1178 133 1178 131 l 1178 85 l 1205 85 l 1205 183 l 1181 183 b 1170 174 1177 183 1173 180 m 498 117 b 492 134 494 122 492 127 b 498 151 492 141 494 146 b 514 158 503 155 508 158 b 530 151 521 158 526 155 b 536 134 534 147 536 141 b 530 117 536 127 534 122 b 514 111 526 113 521 111 b 498 117 508 111 503 113 m 1011 117 b 1005 134 1007 122 1005 127 b 1011 151 1005 141 1007 147 b 1027 158 1016 155 1021 158 b 1044 151 1033 158 1039 155 b 1051 134 1048 146 1051 141 b 1044 117 1051 127 1048 122 b 1027 111 1039 113 1033 111 b 1011 117 1021 111 1016 113 m 321 134 b 324 152 323 139 324 145 l 326 152 b 329 134 326 143 327 137 l 335 120 l 316 120 l 321 134 m 848 88 b 859 84 851 86 854 84 b 869 88 863 84 866 86 b 873 99 872 91 873 95 b 869 110 873 103 872 107 b 859 114 866 113 863 114 b 848 110 854 114 851 113 b 844 99 845 107 844 103 b 848 88 844 95 845 91 "},"5":{"ha":1217,"x_min":0,"x_max":0,"o":"m 38 314 l 38 476 l 485 476 l 485 478 l 485 490 b 485 491 485 491 485 491 l 485 493 b 486 499 485 495 486 497 b 487 505 487 501 487 503 b 487 509 487 506 487 507 b 489 514 487 510 488 512 b 540 591 497 545 514 571 b 628 621 565 611 595 621 b 700 602 654 621 678 615 b 752 550 722 589 739 571 b 771 478 765 528 771 504 l 771 476 l 1217 476 l 1217 314 m 695 361 b 743 410 715 373 731 389 b 761 476 755 430 761 452 b 743 542 761 500 755 522 b 695 590 731 562 715 578 b 629 607 675 601 653 607 b 562 590 605 607 583 601 b 514 542 542 578 526 562 b 497 476 502 522 497 500 b 514 409 497 452 502 430 b 562 361 526 389 542 373 b 629 343 583 349 605 343 b 695 361 653 343 675 349 m 697 570 b 706 564 700 568 703 566 l 548 564 b 566 577 552 568 558 573 b 585 585 574 581 581 584 b 628 594 596 591 611 594 b 672 585 642 594 657 591 l 689 575 b 697 570 692 573 694 572 m 745 476 b 739 435 745 461 743 448 b 718 399 736 425 729 413 l 563 399 l 716 555 b 745 476 736 529 745 503 m 539 395 b 516 433 529 408 521 421 b 509 476 511 447 509 461 b 510 494 509 484 509 490 b 517 517 511 503 513 510 b 537 550 521 530 528 541 l 694 550 l 539 395 m 90 423 l 90 347 l 119 347 l 119 423 l 145 423 l 145 450 l 64 450 l 64 423 m 196 379 l 208 356 b 220 347 211 350 215 347 l 246 347 l 228 379 b 210 389 222 386 216 389 l 213 389 b 228 397 218 389 223 392 b 236 414 233 401 236 407 b 225 439 236 424 232 433 b 199 450 218 446 209 450 l 157 450 l 157 347 l 187 347 l 187 379 m 286 450 l 257 450 l 257 347 l 286 347 m 296 347 l 320 347 b 333 357 325 347 329 350 l 336 364 l 371 364 l 376 357 b 388 347 379 350 383 347 l 411 347 l 367 450 l 341 450 m 487 347 l 487 374 l 450 374 l 450 450 l 422 450 l 422 347 m 809 435 b 795 397 799 425 795 412 b 809 359 795 381 799 369 b 847 344 819 349 832 344 b 886 359 863 344 876 349 b 901 397 896 369 901 381 b 886 435 901 412 896 425 b 847 450 876 445 863 450 b 809 435 832 450 819 445 m 980 412 b 983 392 980 404 981 398 l 951 438 b 946 445 950 442 948 444 b 939 447 945 447 942 447 l 914 447 l 914 346 l 945 346 l 945 386 b 942 405 945 389 944 396 l 976 352 b 989 346 980 348 984 346 l 1010 346 l 1010 447 l 980 447 l 980 412 m 1095 346 l 1095 373 l 1059 373 l 1059 447 l 1030 447 l 1030 346 m 1153 376 b 1155 386 1153 380 1154 384 l 1192 447 l 1164 447 b 1153 441 1159 447 1155 445 l 1141 421 b 1139 412 1140 418 1139 415 b 1136 405 1138 409 1137 407 b 1133 421 1136 410 1135 416 l 1122 441 b 1110 447 1119 445 1115 447 l 1083 447 l 1120 386 b 1122 376 1121 384 1122 381 l 1122 346 l 1153 346 l 1153 376 m 197 421 b 205 414 202 421 205 419 b 203 408 205 412 204 410 b 198 406 201 407 200 406 l 187 406 l 187 421 l 197 421 m 830 379 b 823 397 825 384 823 390 b 830 414 823 403 825 409 b 847 421 835 419 840 421 b 864 414 854 421 859 419 b 870 397 868 409 870 403 b 864 379 870 390 868 384 b 847 373 859 375 854 373 b 830 379 840 373 835 375 m 349 398 b 352 405 350 399 351 401 b 353 417 353 409 353 413 l 355 417 b 358 398 355 408 356 402 l 364 385 l 344 385 l 349 398 m 706 386 b 689 373 696 378 690 374 b 681 369 687 372 684 371 b 672 364 678 366 675 365 b 662 362 669 364 666 363 b 649 359 658 361 653 360 b 628 356 642 357 635 356 b 586 364 612 356 598 359 b 550 386 574 369 562 377 m 50 218 l 50 247 l 78 247 l 78 254 l 50 254 l 50 277 l 84 277 l 84 285 l 43 285 l 43 218 m 108 230 b 102 244 104 233 102 238 l 102 285 l 95 285 l 95 244 b 102 224 95 236 97 229 b 121 217 107 219 113 217 b 141 224 129 217 136 219 b 149 244 146 230 149 236 l 149 285 l 140 285 l 140 244 b 135 229 140 238 138 233 b 121 224 132 226 127 224 b 108 230 115 224 111 226 m 202 218 l 202 225 l 174 225 l 174 285 l 166 285 l 166 218 m 254 218 l 254 225 l 223 225 l 223 285 l 217 285 l 217 218 m 343 284 b 342 282 342 284 342 283 l 321 233 b 320 226 321 231 320 228 l 319 226 b 318 233 319 228 319 231 l 296 282 b 291 285 296 284 295 285 l 286 285 l 316 218 l 323 218 l 351 285 l 346 285 b 343 284 345 285 344 285 m 403 225 l 368 225 l 368 248 l 397 248 l 397 256 l 368 256 l 368 277 l 403 277 l 403 285 l 362 285 l 362 218 l 403 218 m 435 246 l 455 221 b 463 218 458 219 460 218 l 467 218 l 447 245 b 444 247 447 246 446 247 l 444 247 b 455 253 448 248 451 250 b 461 265 459 256 461 260 b 455 279 461 271 459 275 b 441 285 451 283 446 285 l 417 285 l 417 218 l 426 218 l 426 246 m 482 220 b 493 217 486 218 489 217 b 509 222 500 217 505 218 b 514 237 512 226 514 231 b 495 257 514 247 508 253 b 484 268 488 260 484 264 b 494 278 484 275 487 278 b 506 275 498 278 502 277 b 510 277 507 274 509 275 l 511 279 b 494 285 508 283 502 285 b 481 281 489 285 484 284 b 475 268 477 278 475 274 b 493 250 475 261 481 255 b 508 237 503 246 508 242 b 504 227 508 233 506 230 b 493 224 501 225 497 224 b 479 230 488 225 484 227 b 476 230 479 230 478 231 b 473 228 475 230 474 229 l 472 227 b 482 220 474 224 478 222 m 536 285 l 530 285 l 530 218 l 536 218 m 561 275 b 551 251 554 268 551 260 b 561 227 551 241 554 233 b 586 217 568 220 576 217 b 611 226 596 217 604 220 b 621 251 617 233 621 241 b 611 276 621 261 617 269 b 586 285 604 282 596 285 b 561 275 576 285 568 282 m 680 235 b 681 230 680 233 681 231 l 646 283 b 640 285 644 284 642 285 l 634 285 l 634 218 l 642 218 l 642 270 l 641 275 l 680 220 b 682 218 680 219 681 218 l 689 218 l 689 285 l 680 285 l 680 235 m 567 232 b 558 251 561 238 558 244 b 566 270 558 258 561 265 b 586 278 572 275 579 278 b 605 270 593 278 599 275 b 613 251 610 265 613 258 b 605 232 613 244 610 238 b 586 224 599 227 593 224 b 567 232 579 224 573 227 m 441 277 b 449 274 444 277 446 276 b 453 265 451 271 453 269 b 449 257 453 262 451 259 b 441 254 446 255 444 254 l 426 254 l 426 277 l 441 277 m 1178 273 l 1176 270 b 1177 264 1174 268 1174 266 l 1186 255 l 727 255 l 727 248 l 1185 248 l 1177 239 b 1176 233 1175 237 1175 235 l 1178 230 l 1196 248 b 1198 252 1197 248 1198 250 b 1196 256 1198 253 1197 255 m 479 170 b 464 134 469 161 464 149 b 478 99 464 120 469 108 b 514 84 487 89 499 84 b 551 99 529 84 541 89 b 566 134 561 108 566 120 b 551 170 566 148 561 160 b 514 184 541 179 529 184 b 479 170 500 184 488 179 m 800 84 b 826 93 811 84 819 87 b 836 116 832 99 836 107 b 806 149 836 134 826 145 b 796 155 799 151 796 153 b 800 158 796 157 797 158 b 806 157 801 158 803 158 b 812 155 809 156 811 155 b 825 163 818 155 822 158 l 830 172 b 817 181 827 176 822 179 b 800 184 811 183 805 184 b 776 176 791 184 782 181 b 767 155 770 171 767 164 b 775 136 767 147 769 141 b 800 123 780 132 788 127 b 806 116 804 122 806 119 b 800 111 806 113 804 111 b 791 113 797 111 794 111 b 786 116 788 114 787 115 b 778 118 784 117 781 118 b 765 111 774 118 769 116 l 761 100 b 800 84 773 90 786 84 m 897 99 b 932 84 906 89 918 84 b 954 90 940 84 947 86 b 969 104 961 94 966 98 l 963 113 b 953 117 960 116 957 117 b 944 114 949 117 946 116 b 931 111 939 112 935 111 b 916 117 925 111 920 113 b 910 134 912 122 910 127 b 916 151 910 141 912 146 b 931 158 920 155 925 158 b 939 156 934 158 937 157 b 944 154 941 155 943 154 b 952 151 946 152 949 151 b 963 155 957 151 960 152 l 969 164 b 954 178 966 170 961 174 b 932 184 947 182 940 184 b 897 170 918 184 906 179 b 883 134 887 160 883 148 b 897 99 883 120 887 108 m 991 170 b 976 134 981 161 976 149 b 991 99 976 120 981 108 b 1027 84 1000 89 1013 84 b 1063 99 1042 84 1054 89 b 1078 134 1073 108 1078 120 b 1063 170 1078 149 1073 161 b 1027 184 1054 179 1042 184 b 991 170 1013 184 1000 179 m 116 113 l 89 113 b 75 108 84 113 79 111 l 113 158 b 116 170 115 161 116 165 l 116 183 l 41 183 l 41 157 l 69 157 b 78 161 73 157 76 158 l 43 111 b 38 106 41 109 39 107 b 37 99 38 104 37 102 l 37 85 l 116 85 m 196 113 l 157 113 l 157 122 l 189 122 l 189 146 l 157 146 l 157 157 l 196 157 l 196 183 l 130 183 l 130 85 l 196 85 m 228 157 l 228 85 l 256 85 l 256 157 l 279 157 l 279 183 l 202 183 l 202 157 m 270 85 l 292 85 b 299 88 295 85 297 86 b 304 96 301 90 303 93 l 307 102 l 342 102 l 345 96 b 351 88 346 93 348 90 b 358 85 353 86 356 85 l 380 85 l 338 183 l 313 183 m 417 85 l 417 119 l 449 119 l 449 143 l 417 143 l 417 157 l 455 157 l 455 183 l 388 183 l 388 85 m 640 149 b 643 131 640 141 641 135 l 614 174 b 609 181 612 177 611 180 b 601 183 608 182 605 183 l 579 183 l 579 85 l 608 85 l 608 125 b 604 142 608 131 607 137 l 605 142 l 638 91 b 649 85 641 87 644 85 l 669 85 l 669 183 l 640 183 l 640 149 m 704 157 l 704 85 l 733 85 l 733 157 l 759 157 l 759 183 l 680 183 l 680 157 m 1153 139 b 1150 128 1151 136 1150 133 l 1148 128 b 1145 139 1148 133 1147 136 l 1129 174 b 1123 180 1127 176 1125 179 b 1116 183 1122 182 1119 183 l 1092 183 l 1092 85 l 1120 85 l 1120 128 b 1116 143 1120 132 1119 137 l 1118 143 l 1136 102 b 1150 94 1138 97 1143 94 b 1161 102 1154 94 1158 97 l 1180 143 b 1178 136 1179 141 1179 138 b 1178 128 1178 133 1178 131 l 1178 85 l 1205 85 l 1205 183 l 1181 183 b 1170 174 1177 183 1173 180 m 498 117 b 492 134 494 122 492 127 b 498 151 492 141 494 146 b 514 158 503 155 508 158 b 530 151 521 158 526 155 b 536 134 534 147 536 141 b 530 117 536 127 534 122 b 514 111 526 113 521 111 b 498 117 508 111 503 113 m 1011 117 b 1005 134 1007 122 1005 127 b 1011 151 1005 141 1007 147 b 1027 158 1016 155 1021 158 b 1044 151 1033 158 1039 155 b 1051 134 1048 146 1051 141 b 1044 117 1051 127 1048 122 b 1027 111 1039 113 1033 111 b 1011 117 1021 111 1016 113 m 321 134 b 324 152 323 139 324 145 l 326 152 b 329 134 326 143 327 137 l 335 120 l 316 120 l 321 134 m 848 88 b 859 84 851 86 854 84 b 869 88 863 84 866 86 b 873 99 872 91 873 95 b 869 110 873 103 872 107 b 859 114 866 113 863 114 b 848 110 854 114 851 113 b 844 99 845 107 844 103 b 848 88 844 95 845 91 "},"6":{"ha":1217,"x_min":0,"x_max":0,"o":"m 38 314 l 38 476 l 485 476 l 485 478 l 485 490 b 485 491 485 491 485 491 l 485 493 b 486 499 485 495 486 497 b 487 505 487 501 487 503 b 487 509 487 506 487 507 b 489 514 487 510 488 512 b 540 591 497 545 514 571 b 628 621 565 611 595 621 b 700 602 654 621 678 615 b 752 550 722 589 739 571 b 771 478 765 528 771 504 l 771 476 l 1217 476 l 1217 314 m 695 361 b 743 410 715 373 731 389 b 761 476 755 430 761 452 b 743 542 761 500 755 522 b 695 590 731 562 715 578 b 629 607 675 601 653 607 b 562 590 605 607 583 601 b 514 542 542 578 526 562 b 497 476 502 522 497 500 b 514 409 497 452 502 430 b 562 361 526 389 542 373 b 629 343 583 349 605 343 b 695 361 653 343 675 349 m 697 570 b 706 564 700 568 703 566 l 548 564 b 566 577 552 568 558 573 b 585 585 574 581 581 584 b 628 594 596 591 611 594 b 672 585 642 594 657 591 l 689 575 b 697 570 692 573 694 572 m 745 476 b 739 435 745 461 743 448 b 718 399 736 425 729 413 l 563 399 l 716 555 b 745 476 736 529 745 503 m 539 395 b 516 433 529 408 521 421 b 509 476 511 447 509 461 b 510 494 509 484 509 490 b 517 517 511 503 513 510 b 537 550 521 530 528 541 l 694 550 l 539 395 m 90 423 l 90 347 l 119 347 l 119 423 l 145 423 l 145 450 l 64 450 l 64 423 m 196 379 l 208 356 b 220 347 211 350 215 347 l 246 347 l 228 379 b 210 389 222 386 216 389 l 213 389 b 228 397 218 389 223 392 b 236 414 233 401 236 407 b 225 439 236 424 232 433 b 199 450 218 446 209 450 l 157 450 l 157 347 l 187 347 l 187 379 m 286 450 l 257 450 l 257 347 l 286 347 m 296 347 l 320 347 b 333 357 325 347 329 350 l 336 364 l 371 364 l 376 357 b 388 347 379 350 383 347 l 411 347 l 367 450 l 341 450 m 487 347 l 487 374 l 450 374 l 450 450 l 422 450 l 422 347 m 809 435 b 795 397 799 425 795 412 b 809 359 795 381 799 369 b 847 344 819 349 832 344 b 886 359 863 344 876 349 b 901 397 896 369 901 381 b 886 435 901 412 896 425 b 847 450 876 445 863 450 b 809 435 832 450 819 445 m 980 412 b 983 392 980 404 981 398 l 951 438 b 946 445 950 442 948 444 b 939 447 945 447 942 447 l 914 447 l 914 346 l 945 346 l 945 386 b 942 405 945 389 944 396 l 976 352 b 989 346 980 348 984 346 l 1010 346 l 1010 447 l 980 447 l 980 412 m 1095 346 l 1095 373 l 1059 373 l 1059 447 l 1030 447 l 1030 346 m 1153 376 b 1155 386 1153 380 1154 384 l 1192 447 l 1164 447 b 1153 441 1159 447 1155 445 l 1141 421 b 1139 412 1140 418 1139 415 b 1136 405 1138 409 1137 407 b 1133 421 1136 410 1135 416 l 1122 441 b 1110 447 1119 445 1115 447 l 1083 447 l 1120 386 b 1122 376 1121 384 1122 381 l 1122 346 l 1153 346 l 1153 376 m 197 421 b 205 414 202 421 205 419 b 203 408 205 412 204 410 b 198 406 201 407 200 406 l 187 406 l 187 421 l 197 421 m 830 379 b 823 397 825 384 823 390 b 830 414 823 403 825 409 b 847 421 835 419 840 421 b 864 414 854 421 859 419 b 870 397 868 409 870 403 b 864 379 870 390 868 384 b 847 373 859 375 854 373 b 830 379 840 373 835 375 m 349 398 b 352 405 350 399 351 401 b 353 417 353 409 353 413 l 355 417 b 358 398 355 408 356 402 l 364 385 l 344 385 l 349 398 m 706 386 b 689 373 696 378 690 374 b 681 369 687 372 684 371 b 672 364 678 366 675 365 b 662 362 669 364 666 363 b 649 359 658 361 653 360 b 628 356 642 357 635 356 b 586 364 612 356 598 359 b 550 386 574 369 562 377 m 50 218 l 50 247 l 78 247 l 78 254 l 50 254 l 50 277 l 84 277 l 84 285 l 43 285 l 43 218 m 108 230 b 102 244 104 233 102 238 l 102 285 l 95 285 l 95 244 b 102 224 95 236 97 229 b 121 217 107 219 113 217 b 141 224 129 217 136 219 b 149 244 146 230 149 236 l 149 285 l 140 285 l 140 244 b 135 229 140 238 138 233 b 121 224 132 226 127 224 b 108 230 115 224 111 226 m 202 218 l 202 225 l 174 225 l 174 285 l 166 285 l 166 218 m 254 218 l 254 225 l 223 225 l 223 285 l 217 285 l 217 218 m 343 284 b 342 282 342 284 342 283 l 321 233 b 320 226 321 231 320 228 l 319 226 b 318 233 319 228 319 231 l 296 282 b 291 285 296 284 295 285 l 286 285 l 316 218 l 323 218 l 351 285 l 346 285 b 343 284 345 285 344 285 m 403 225 l 368 225 l 368 248 l 397 248 l 397 256 l 368 256 l 368 277 l 403 277 l 403 285 l 362 285 l 362 218 l 403 218 m 435 246 l 455 221 b 463 218 458 219 460 218 l 467 218 l 447 245 b 444 247 447 246 446 247 l 444 247 b 455 253 448 248 451 250 b 461 265 459 256 461 260 b 455 279 461 271 459 275 b 441 285 451 283 446 285 l 417 285 l 417 218 l 426 218 l 426 246 m 482 220 b 493 217 486 218 489 217 b 509 222 500 217 505 218 b 514 237 512 226 514 231 b 495 257 514 247 508 253 b 484 268 488 260 484 264 b 494 278 484 275 487 278 b 506 275 498 278 502 277 b 510 277 507 274 509 275 l 511 279 b 494 285 508 283 502 285 b 481 281 489 285 484 284 b 475 268 477 278 475 274 b 493 250 475 261 481 255 b 508 237 503 246 508 242 b 504 227 508 233 506 230 b 493 224 501 225 497 224 b 479 230 488 225 484 227 b 476 230 479 230 478 231 b 473 228 475 230 474 229 l 472 227 b 482 220 474 224 478 222 m 536 285 l 530 285 l 530 218 l 536 218 m 561 275 b 551 251 554 268 551 260 b 561 227 551 241 554 233 b 586 217 568 220 576 217 b 611 226 596 217 604 220 b 621 251 617 233 621 241 b 611 276 621 261 617 269 b 586 285 604 282 596 285 b 561 275 576 285 568 282 m 680 235 b 681 230 680 233 681 231 l 646 283 b 640 285 644 284 642 285 l 634 285 l 634 218 l 642 218 l 642 270 l 641 275 l 680 220 b 682 218 680 219 681 218 l 689 218 l 689 285 l 680 285 l 680 235 m 567 232 b 558 251 561 238 558 244 b 566 270 558 258 561 265 b 586 278 572 275 579 278 b 605 270 593 278 599 275 b 613 251 610 265 613 258 b 605 232 613 244 610 238 b 586 224 599 227 593 224 b 567 232 579 224 573 227 m 441 277 b 449 274 444 277 446 276 b 453 265 451 271 453 269 b 449 257 453 262 451 259 b 441 254 446 255 444 254 l 426 254 l 426 277 l 441 277 m 1178 273 l 1176 270 b 1177 264 1174 268 1174 266 l 1186 255 l 727 255 l 727 248 l 1185 248 l 1177 239 b 1176 233 1175 237 1175 235 l 1178 230 l 1196 248 b 1198 252 1197 248 1198 250 b 1196 256 1198 253 1197 255 m 479 170 b 464 134 469 161 464 149 b 478 99 464 120 469 108 b 514 84 487 89 499 84 b 551 99 529 84 541 89 b 566 134 561 108 566 120 b 551 170 566 148 561 160 b 514 184 541 179 529 184 b 479 170 500 184 488 179 m 800 84 b 826 93 811 84 819 87 b 836 116 832 99 836 107 b 806 149 836 134 826 145 b 796 155 799 151 796 153 b 800 158 796 157 797 158 b 806 157 801 158 803 158 b 812 155 809 156 811 155 b 825 163 818 155 822 158 l 830 172 b 817 181 827 176 822 179 b 800 184 811 183 805 184 b 776 176 791 184 782 181 b 767 155 770 171 767 164 b 775 136 767 147 769 141 b 800 123 780 132 788 127 b 806 116 804 122 806 119 b 800 111 806 113 804 111 b 791 113 797 111 794 111 b 786 116 788 114 787 115 b 778 118 784 117 781 118 b 765 111 774 118 769 116 l 761 100 b 800 84 773 90 786 84 m 897 99 b 932 84 906 89 918 84 b 954 90 940 84 947 86 b 969 104 961 94 966 98 l 963 113 b 953 117 960 116 957 117 b 944 114 949 117 946 116 b 931 111 939 112 935 111 b 916 117 925 111 920 113 b 910 134 912 122 910 127 b 916 151 910 141 912 146 b 931 158 920 155 925 158 b 939 156 934 158 937 157 b 944 154 941 155 943 154 b 952 151 946 152 949 151 b 963 155 957 151 960 152 l 969 164 b 954 178 966 170 961 174 b 932 184 947 182 940 184 b 897 170 918 184 906 179 b 883 134 887 160 883 148 b 897 99 883 120 887 108 m 991 170 b 976 134 981 161 976 149 b 991 99 976 120 981 108 b 1027 84 1000 89 1013 84 b 1063 99 1042 84 1054 89 b 1078 134 1073 108 1078 120 b 1063 170 1078 149 1073 161 b 1027 184 1054 179 1042 184 b 991 170 1013 184 1000 179 m 116 113 l 89 113 b 75 108 84 113 79 111 l 113 158 b 116 170 115 161 116 165 l 116 183 l 41 183 l 41 157 l 69 157 b 78 161 73 157 76 158 l 43 111 b 38 106 41 109 39 107 b 37 99 38 104 37 102 l 37 85 l 116 85 m 196 113 l 157 113 l 157 122 l 189 122 l 189 146 l 157 146 l 157 157 l 196 157 l 196 183 l 130 183 l 130 85 l 196 85 m 228 157 l 228 85 l 256 85 l 256 157 l 279 157 l 279 183 l 202 183 l 202 157 m 270 85 l 292 85 b 299 88 295 85 297 86 b 304 96 301 90 303 93 l 307 102 l 342 102 l 345 96 b 351 88 346 93 348 90 b 358 85 353 86 356 85 l 380 85 l 338 183 l 313 183 m 417 85 l 417 119 l 449 119 l 449 143 l 417 143 l 417 157 l 455 157 l 455 183 l 388 183 l 388 85 m 640 149 b 643 131 640 141 641 135 l 614 174 b 609 181 612 177 611 180 b 601 183 608 182 605 183 l 579 183 l 579 85 l 608 85 l 608 125 b 604 142 608 131 607 137 l 605 142 l 638 91 b 649 85 641 87 644 85 l 669 85 l 669 183 l 640 183 l 640 149 m 704 157 l 704 85 l 733 85 l 733 157 l 759 157 l 759 183 l 680 183 l 680 157 m 1153 139 b 1150 128 1151 136 1150 133 l 1148 128 b 1145 139 1148 133 1147 136 l 1129 174 b 1123 180 1127 176 1125 179 b 1116 183 1122 182 1119 183 l 1092 183 l 1092 85 l 1120 85 l 1120 128 b 1116 143 1120 132 1119 137 l 1118 143 l 1136 102 b 1150 94 1138 97 1143 94 b 1161 102 1154 94 1158 97 l 1180 143 b 1178 136 1179 141 1179 138 b 1178 128 1178 133 1178 131 l 1178 85 l 1205 85 l 1205 183 l 1181 183 b 1170 174 1177 183 1173 180 m 498 117 b 492 134 494 122 492 127 b 498 151 492 141 494 146 b 514 158 503 155 508 158 b 530 151 521 158 526 155 b 536 134 534 147 536 141 b 530 117 536 127 534 122 b 514 111 526 113 521 111 b 498 117 508 111 503 113 m 1011 117 b 1005 134 1007 122 1005 127 b 1011 151 1005 141 1007 147 b 1027 158 1016 155 1021 158 b 1044 151 1033 158 1039 155 b 1051 134 1048 146 1051 141 b 1044 117 1051 127 1048 122 b 1027 111 1039 113 1033 111 b 1011 117 1021 111 1016 113 m 321 134 b 324 152 323 139 324 145 l 326 152 b 329 134 326 143 327 137 l 335 120 l 316 120 l 321 134 m 848 88 b 859 84 851 86 854 84 b 869 88 863 84 866 86 b 873 99 872 91 873 95 b 869 110 873 103 872 107 b 859 114 866 113 863 114 b 848 110 854 114 851 113 b 844 99 845 107 844 103 b 848 88 844 95 845 91 "},"7":{"ha":1217,"x_min":0,"x_max":0,"o":"m 38 314 l 38 476 l 485 476 l 485 478 l 485 490 b 485 491 485 491 485 491 l 485 493 b 486 499 485 495 486 497 b 487 505 487 501 487 503 b 487 509 487 506 487 507 b 489 514 487 510 488 512 b 540 591 497 545 514 571 b 628 621 565 611 595 621 b 700 602 654 621 678 615 b 752 550 722 589 739 571 b 771 478 765 528 771 504 l 771 476 l 1217 476 l 1217 314 m 695 361 b 743 410 715 373 731 389 b 761 476 755 430 761 452 b 743 542 761 500 755 522 b 695 590 731 562 715 578 b 629 607 675 601 653 607 b 562 590 605 607 583 601 b 514 542 542 578 526 562 b 497 476 502 522 497 500 b 514 409 497 452 502 430 b 562 361 526 389 542 373 b 629 343 583 349 605 343 b 695 361 653 343 675 349 m 697 570 b 706 564 700 568 703 566 l 548 564 b 566 577 552 568 558 573 b 585 585 574 581 581 584 b 628 594 596 591 611 594 b 672 585 642 594 657 591 l 689 575 b 697 570 692 573 694 572 m 745 476 b 739 435 745 461 743 448 b 718 399 736 425 729 413 l 563 399 l 716 555 b 745 476 736 529 745 503 m 539 395 b 516 433 529 408 521 421 b 509 476 511 447 509 461 b 510 494 509 484 509 490 b 517 517 511 503 513 510 b 537 550 521 530 528 541 l 694 550 l 539 395 m 90 423 l 90 347 l 119 347 l 119 423 l 145 423 l 145 450 l 64 450 l 64 423 m 196 379 l 208 356 b 220 347 211 350 215 347 l 246 347 l 228 379 b 210 389 222 386 216 389 l 213 389 b 228 397 218 389 223 392 b 236 414 233 401 236 407 b 225 439 236 424 232 433 b 199 450 218 446 209 450 l 157 450 l 157 347 l 187 347 l 187 379 m 286 450 l 257 450 l 257 347 l 286 347 m 296 347 l 320 347 b 333 357 325 347 329 350 l 336 364 l 371 364 l 376 357 b 388 347 379 350 383 347 l 411 347 l 367 450 l 341 450 m 487 347 l 487 374 l 450 374 l 450 450 l 422 450 l 422 347 m 809 435 b 795 397 799 425 795 412 b 809 359 795 381 799 369 b 847 344 819 349 832 344 b 886 359 863 344 876 349 b 901 397 896 369 901 381 b 886 435 901 412 896 425 b 847 450 876 445 863 450 b 809 435 832 450 819 445 m 980 412 b 983 392 980 404 981 398 l 951 438 b 946 445 950 442 948 444 b 939 447 945 447 942 447 l 914 447 l 914 346 l 945 346 l 945 386 b 942 405 945 389 944 396 l 976 352 b 989 346 980 348 984 346 l 1010 346 l 1010 447 l 980 447 l 980 412 m 1095 346 l 1095 373 l 1059 373 l 1059 447 l 1030 447 l 1030 346 m 1153 376 b 1155 386 1153 380 1154 384 l 1192 447 l 1164 447 b 1153 441 1159 447 1155 445 l 1141 421 b 1139 412 1140 418 1139 415 b 1136 405 1138 409 1137 407 b 1133 421 1136 410 1135 416 l 1122 441 b 1110 447 1119 445 1115 447 l 1083 447 l 1120 386 b 1122 376 1121 384 1122 381 l 1122 346 l 1153 346 l 1153 376 m 197 421 b 205 414 202 421 205 419 b 203 408 205 412 204 410 b 198 406 201 407 200 406 l 187 406 l 187 421 l 197 421 m 830 379 b 823 397 825 384 823 390 b 830 414 823 403 825 409 b 847 421 835 419 840 421 b 864 414 854 421 859 419 b 870 397 868 409 870 403 b 864 379 870 390 868 384 b 847 373 859 375 854 373 b 830 379 840 373 835 375 m 349 398 b 352 405 350 399 351 401 b 353 417 353 409 353 413 l 355 417 b 358 398 355 408 356 402 l 364 385 l 344 385 l 349 398 m 706 386 b 689 373 696 378 690 374 b 681 369 687 372 684 371 b 672 364 678 366 675 365 b 662 362 669 364 666 363 b 649 359 658 361 653 360 b 628 356 642 357 635 356 b 586 364 612 356 598 359 b 550 386 574 369 562 377 m 50 218 l 50 247 l 78 247 l 78 254 l 50 254 l 50 277 l 84 277 l 84 285 l 43 285 l 43 218 m 108 230 b 102 244 104 233 102 238 l 102 285 l 95 285 l 95 244 b 102 224 95 236 97 229 b 121 217 107 219 113 217 b 141 224 129 217 136 219 b 149 244 146 230 149 236 l 149 285 l 140 285 l 140 244 b 135 229 140 238 138 233 b 121 224 132 226 127 224 b 108 230 115 224 111 226 m 202 218 l 202 225 l 174 225 l 174 285 l 166 285 l 166 218 m 254 218 l 254 225 l 223 225 l 223 285 l 217 285 l 217 218 m 343 284 b 342 282 342 284 342 283 l 321 233 b 320 226 321 231 320 228 l 319 226 b 318 233 319 228 319 231 l 296 282 b 291 285 296 284 295 285 l 286 285 l 316 218 l 323 218 l 351 285 l 346 285 b 343 284 345 285 344 285 m 403 225 l 368 225 l 368 248 l 397 248 l 397 256 l 368 256 l 368 277 l 403 277 l 403 285 l 362 285 l 362 218 l 403 218 m 435 246 l 455 221 b 463 218 458 219 460 218 l 467 218 l 447 245 b 444 247 447 246 446 247 l 444 247 b 455 253 448 248 451 250 b 461 265 459 256 461 260 b 455 279 461 271 459 275 b 441 285 451 283 446 285 l 417 285 l 417 218 l 426 218 l 426 246 m 482 220 b 493 217 486 218 489 217 b 509 222 500 217 505 218 b 514 237 512 226 514 231 b 495 257 514 247 508 253 b 484 268 488 260 484 264 b 494 278 484 275 487 278 b 506 275 498 278 502 277 b 510 277 507 274 509 275 l 511 279 b 494 285 508 283 502 285 b 481 281 489 285 484 284 b 475 268 477 278 475 274 b 493 250 475 261 481 255 b 508 237 503 246 508 242 b 504 227 508 233 506 230 b 493 224 501 225 497 224 b 479 230 488 225 484 227 b 476 230 479 230 478 231 b 473 228 475 230 474 229 l 472 227 b 482 220 474 224 478 222 m 536 285 l 530 285 l 530 218 l 536 218 m 561 275 b 551 251 554 268 551 260 b 561 227 551 241 554 233 b 586 217 568 220 576 217 b 611 226 596 217 604 220 b 621 251 617 233 621 241 b 611 276 621 261 617 269 b 586 285 604 282 596 285 b 561 275 576 285 568 282 m 680 235 b 681 230 680 233 681 231 l 646 283 b 640 285 644 284 642 285 l 634 285 l 634 218 l 642 218 l 642 270 l 641 275 l 680 220 b 682 218 680 219 681 218 l 689 218 l 689 285 l 680 285 l 680 235 m 567 232 b 558 251 561 238 558 244 b 566 270 558 258 561 265 b 586 278 572 275 579 278 b 605 270 593 278 599 275 b 613 251 610 265 613 258 b 605 232 613 244 610 238 b 586 224 599 227 593 224 b 567 232 579 224 573 227 m 441 277 b 449 274 444 277 446 276 b 453 265 451 271 453 269 b 449 257 453 262 451 259 b 441 254 446 255 444 254 l 426 254 l 426 277 l 441 277 m 1178 273 l 1176 270 b 1177 264 1174 268 1174 266 l 1186 255 l 727 255 l 727 248 l 1185 248 l 1177 239 b 1176 233 1175 237 1175 235 l 1178 230 l 1196 248 b 1198 252 1197 248 1198 250 b 1196 256 1198 253 1197 255 m 479 170 b 464 134 469 161 464 149 b 478 99 464 120 469 108 b 514 84 487 89 499 84 b 551 99 529 84 541 89 b 566 134 561 108 566 120 b 551 170 566 148 561 160 b 514 184 541 179 529 184 b 479 170 500 184 488 179 m 800 84 b 826 93 811 84 819 87 b 836 116 832 99 836 107 b 806 149 836 134 826 145 b 796 155 799 151 796 153 b 800 158 796 157 797 158 b 806 157 801 158 803 158 b 812 155 809 156 811 155 b 825 163 818 155 822 158 l 830 172 b 817 181 827 176 822 179 b 800 184 811 183 805 184 b 776 176 791 184 782 181 b 767 155 770 171 767 164 b 775 136 767 147 769 141 b 800 123 780 132 788 127 b 806 116 804 122 806 119 b 800 111 806 113 804 111 b 791 113 797 111 794 111 b 786 116 788 114 787 115 b 778 118 784 117 781 118 b 765 111 774 118 769 116 l 761 100 b 800 84 773 90 786 84 m 897 99 b 932 84 906 89 918 84 b 954 90 940 84 947 86 b 969 104 961 94 966 98 l 963 113 b 953 117 960 116 957 117 b 944 114 949 117 946 116 b 931 111 939 112 935 111 b 916 117 925 111 920 113 b 910 134 912 122 910 127 b 916 151 910 141 912 146 b 931 158 920 155 925 158 b 939 156 934 158 937 157 b 944 154 941 155 943 154 b 952 151 946 152 949 151 b 963 155 957 151 960 152 l 969 164 b 954 178 966 170 961 174 b 932 184 947 182 940 184 b 897 170 918 184 906 179 b 883 134 887 160 883 148 b 897 99 883 120 887 108 m 991 170 b 976 134 981 161 976 149 b 991 99 976 120 981 108 b 1027 84 1000 89 1013 84 b 1063 99 1042 84 1054 89 b 1078 134 1073 108 1078 120 b 1063 170 1078 149 1073 161 b 1027 184 1054 179 1042 184 b 991 170 1013 184 1000 179 m 116 113 l 89 113 b 75 108 84 113 79 111 l 113 158 b 116 170 115 161 116 165 l 116 183 l 41 183 l 41 157 l 69 157 b 78 161 73 157 76 158 l 43 111 b 38 106 41 109 39 107 b 37 99 38 104 37 102 l 37 85 l 116 85 m 196 113 l 157 113 l 157 122 l 189 122 l 189 146 l 157 146 l 157 157 l 196 157 l 196 183 l 130 183 l 130 85 l 196 85 m 228 157 l 228 85 l 256 85 l 256 157 l 279 157 l 279 183 l 202 183 l 202 157 m 270 85 l 292 85 b 299 88 295 85 297 86 b 304 96 301 90 303 93 l 307 102 l 342 102 l 345 96 b 351 88 346 93 348 90 b 358 85 353 86 356 85 l 380 85 l 338 183 l 313 183 m 417 85 l 417 119 l 449 119 l 449 143 l 417 143 l 417 157 l 455 157 l 455 183 l 388 183 l 388 85 m 640 149 b 643 131 640 141 641 135 l 614 174 b 609 181 612 177 611 180 b 601 183 608 182 605 183 l 579 183 l 579 85 l 608 85 l 608 125 b 604 142 608 131 607 137 l 605 142 l 638 91 b 649 85 641 87 644 85 l 669 85 l 669 183 l 640 183 l 640 149 m 704 157 l 704 85 l 733 85 l 733 157 l 759 157 l 759 183 l 680 183 l 680 157 m 1153 139 b 1150 128 1151 136 1150 133 l 1148 128 b 1145 139 1148 133 1147 136 l 1129 174 b 1123 180 1127 176 1125 179 b 1116 183 1122 182 1119 183 l 1092 183 l 1092 85 l 1120 85 l 1120 128 b 1116 143 1120 132 1119 137 l 1118 143 l 1136 102 b 1150 94 1138 97 1143 94 b 1161 102 1154 94 1158 97 l 1180 143 b 1178 136 1179 141 1179 138 b 1178 128 1178 133 1178 131 l 1178 85 l 1205 85 l 1205 183 l 1181 183 b 1170 174 1177 183 1173 180 m 498 117 b 492 134 494 122 492 127 b 498 151 492 141 494 146 b 514 158 503 155 508 158 b 530 151 521 158 526 155 b 536 134 534 147 536 141 b 530 117 536 127 534 122 b 514 111 526 113 521 111 b 498 117 508 111 503 113 m 1011 117 b 1005 134 1007 122 1005 127 b 1011 151 1005 141 1007 147 b 1027 158 1016 155 1021 158 b 1044 151 1033 158 1039 155 b 1051 134 1048 146 1051 141 b 1044 117 1051 127 1048 122 b 1027 111 1039 113 1033 111 b 1011 117 1021 111 1016 113 m 321 134 b 324 152 323 139 324 145 l 326 152 b 329 134 326 143 327 137 l 335 120 l 316 120 l 321 134 m 848 88 b 859 84 851 86 854 84 b 869 88 863 84 866 86 b 873 99 872 91 873 95 b 869 110 873 103 872 107 b 859 114 866 113 863 114 b 848 110 854 114 851 113 b 844 99 845 107 844 103 b 848 88 844 95 845 91 "},"8":{"ha":1217,"x_min":0,"x_max":0,"o":"m 38 314 l 38 476 l 485 476 l 485 478 l 485 490 b 485 491 485 491 485 491 l 485 493 b 486 499 485 495 486 497 b 487 505 487 501 487 503 b 487 509 487 506 487 507 b 489 514 487 510 488 512 b 540 591 497 545 514 571 b 628 621 565 611 595 621 b 700 602 654 621 678 615 b 752 550 722 589 739 571 b 771 478 765 528 771 504 l 771 476 l 1217 476 l 1217 314 m 695 361 b 743 410 715 373 731 389 b 761 476 755 430 761 452 b 743 542 761 500 755 522 b 695 590 731 562 715 578 b 629 607 675 601 653 607 b 562 590 605 607 583 601 b 514 542 542 578 526 562 b 497 476 502 522 497 500 b 514 409 497 452 502 430 b 562 361 526 389 542 373 b 629 343 583 349 605 343 b 695 361 653 343 675 349 m 697 570 b 706 564 700 568 703 566 l 548 564 b 566 577 552 568 558 573 b 585 585 574 581 581 584 b 628 594 596 591 611 594 b 672 585 642 594 657 591 l 689 575 b 697 570 692 573 694 572 m 745 476 b 739 435 745 461 743 448 b 718 399 736 425 729 413 l 563 399 l 716 555 b 745 476 736 529 745 503 m 539 395 b 516 433 529 408 521 421 b 509 476 511 447 509 461 b 510 494 509 484 509 490 b 517 517 511 503 513 510 b 537 550 521 530 528 541 l 694 550 l 539 395 m 90 423 l 90 347 l 119 347 l 119 423 l 145 423 l 145 450 l 64 450 l 64 423 m 196 379 l 208 356 b 220 347 211 350 215 347 l 246 347 l 228 379 b 210 389 222 386 216 389 l 213 389 b 228 397 218 389 223 392 b 236 414 233 401 236 407 b 225 439 236 424 232 433 b 199 450 218 446 209 450 l 157 450 l 157 347 l 187 347 l 187 379 m 286 450 l 257 450 l 257 347 l 286 347 m 296 347 l 320 347 b 333 357 325 347 329 350 l 336 364 l 371 364 l 376 357 b 388 347 379 350 383 347 l 411 347 l 367 450 l 341 450 m 487 347 l 487 374 l 450 374 l 450 450 l 422 450 l 422 347 m 809 435 b 795 397 799 425 795 412 b 809 359 795 381 799 369 b 847 344 819 349 832 344 b 886 359 863 344 876 349 b 901 397 896 369 901 381 b 886 435 901 412 896 425 b 847 450 876 445 863 450 b 809 435 832 450 819 445 m 980 412 b 983 392 980 404 981 398 l 951 438 b 946 445 950 442 948 444 b 939 447 945 447 942 447 l 914 447 l 914 346 l 945 346 l 945 386 b 942 405 945 389 944 396 l 976 352 b 989 346 980 348 984 346 l 1010 346 l 1010 447 l 980 447 l 980 412 m 1095 346 l 1095 373 l 1059 373 l 1059 447 l 1030 447 l 1030 346 m 1153 376 b 1155 386 1153 380 1154 384 l 1192 447 l 1164 447 b 1153 441 1159 447 1155 445 l 1141 421 b 1139 412 1140 418 1139 415 b 1136 405 1138 409 1137 407 b 1133 421 1136 410 1135 416 l 1122 441 b 1110 447 1119 445 1115 447 l 1083 447 l 1120 386 b 1122 376 1121 384 1122 381 l 1122 346 l 1153 346 l 1153 376 m 197 421 b 205 414 202 421 205 419 b 203 408 205 412 204 410 b 198 406 201 407 200 406 l 187 406 l 187 421 l 197 421 m 830 379 b 823 397 825 384 823 390 b 830 414 823 403 825 409 b 847 421 835 419 840 421 b 864 414 854 421 859 419 b 870 397 868 409 870 403 b 864 379 870 390 868 384 b 847 373 859 375 854 373 b 830 379 840 373 835 375 m 349 398 b 352 405 350 399 351 401 b 353 417 353 409 353 413 l 355 417 b 358 398 355 408 356 402 l 364 385 l 344 385 l 349 398 m 706 386 b 689 373 696 378 690 374 b 681 369 687 372 684 371 b 672 364 678 366 675 365 b 662 362 669 364 666 363 b 649 359 658 361 653 360 b 628 356 642 357 635 356 b 586 364 612 356 598 359 b 550 386 574 369 562 377 m 50 218 l 50 247 l 78 247 l 78 254 l 50 254 l 50 277 l 84 277 l 84 285 l 43 285 l 43 218 m 108 230 b 102 244 104 233 102 238 l 102 285 l 95 285 l 95 244 b 102 224 95 236 97 229 b 121 217 107 219 113 217 b 141 224 129 217 136 219 b 149 244 146 230 149 236 l 149 285 l 140 285 l 140 244 b 135 229 140 238 138 233 b 121 224 132 226 127 224 b 108 230 115 224 111 226 m 202 218 l 202 225 l 174 225 l 174 285 l 166 285 l 166 218 m 254 218 l 254 225 l 223 225 l 223 285 l 217 285 l 217 218 m 343 284 b 342 282 342 284 342 283 l 321 233 b 320 226 321 231 320 228 l 319 226 b 318 233 319 228 319 231 l 296 282 b 291 285 296 284 295 285 l 286 285 l 316 218 l 323 218 l 351 285 l 346 285 b 343 284 345 285 344 285 m 403 225 l 368 225 l 368 248 l 397 248 l 397 256 l 368 256 l 368 277 l 403 277 l 403 285 l 362 285 l 362 218 l 403 218 m 435 246 l 455 221 b 463 218 458 219 460 218 l 467 218 l 447 245 b 444 247 447 246 446 247 l 444 247 b 455 253 448 248 451 250 b 461 265 459 256 461 260 b 455 279 461 271 459 275 b 441 285 451 283 446 285 l 417 285 l 417 218 l 426 218 l 426 246 m 482 220 b 493 217 486 218 489 217 b 509 222 500 217 505 218 b 514 237 512 226 514 231 b 495 257 514 247 508 253 b 484 268 488 260 484 264 b 494 278 484 275 487 278 b 506 275 498 278 502 277 b 510 277 507 274 509 275 l 511 279 b 494 285 508 283 502 285 b 481 281 489 285 484 284 b 475 268 477 278 475 274 b 493 250 475 261 481 255 b 508 237 503 246 508 242 b 504 227 508 233 506 230 b 493 224 501 225 497 224 b 479 230 488 225 484 227 b 476 230 479 230 478 231 b 473 228 475 230 474 229 l 472 227 b 482 220 474 224 478 222 m 536 285 l 530 285 l 530 218 l 536 218 m 561 275 b 551 251 554 268 551 260 b 561 227 551 241 554 233 b 586 217 568 220 576 217 b 611 226 596 217 604 220 b 621 251 617 233 621 241 b 611 276 621 261 617 269 b 586 285 604 282 596 285 b 561 275 576 285 568 282 m 680 235 b 681 230 680 233 681 231 l 646 283 b 640 285 644 284 642 285 l 634 285 l 634 218 l 642 218 l 642 270 l 641 275 l 680 220 b 682 218 680 219 681 218 l 689 218 l 689 285 l 680 285 l 680 235 m 567 232 b 558 251 561 238 558 244 b 566 270 558 258 561 265 b 586 278 572 275 579 278 b 605 270 593 278 599 275 b 613 251 610 265 613 258 b 605 232 613 244 610 238 b 586 224 599 227 593 224 b 567 232 579 224 573 227 m 441 277 b 449 274 444 277 446 276 b 453 265 451 271 453 269 b 449 257 453 262 451 259 b 441 254 446 255 444 254 l 426 254 l 426 277 l 441 277 m 1178 273 l 1176 270 b 1177 264 1174 268 1174 266 l 1186 255 l 727 255 l 727 248 l 1185 248 l 1177 239 b 1176 233 1175 237 1175 235 l 1178 230 l 1196 248 b 1198 252 1197 248 1198 250 b 1196 256 1198 253 1197 255 m 479 170 b 464 134 469 161 464 149 b 478 99 464 120 469 108 b 514 84 487 89 499 84 b 551 99 529 84 541 89 b 566 134 561 108 566 120 b 551 170 566 148 561 160 b 514 184 541 179 529 184 b 479 170 500 184 488 179 m 800 84 b 826 93 811 84 819 87 b 836 116 832 99 836 107 b 806 149 836 134 826 145 b 796 155 799 151 796 153 b 800 158 796 157 797 158 b 806 157 801 158 803 158 b 812 155 809 156 811 155 b 825 163 818 155 822 158 l 830 172 b 817 181 827 176 822 179 b 800 184 811 183 805 184 b 776 176 791 184 782 181 b 767 155 770 171 767 164 b 775 136 767 147 769 141 b 800 123 780 132 788 127 b 806 116 804 122 806 119 b 800 111 806 113 804 111 b 791 113 797 111 794 111 b 786 116 788 114 787 115 b 778 118 784 117 781 118 b 765 111 774 118 769 116 l 761 100 b 800 84 773 90 786 84 m 897 99 b 932 84 906 89 918 84 b 954 90 940 84 947 86 b 969 104 961 94 966 98 l 963 113 b 953 117 960 116 957 117 b 944 114 949 117 946 116 b 931 111 939 112 935 111 b 916 117 925 111 920 113 b 910 134 912 122 910 127 b 916 151 910 141 912 146 b 931 158 920 155 925 158 b 939 156 934 158 937 157 b 944 154 941 155 943 154 b 952 151 946 152 949 151 b 963 155 957 151 960 152 l 969 164 b 954 178 966 170 961 174 b 932 184 947 182 940 184 b 897 170 918 184 906 179 b 883 134 887 160 883 148 b 897 99 883 120 887 108 m 991 170 b 976 134 981 161 976 149 b 991 99 976 120 981 108 b 1027 84 1000 89 1013 84 b 1063 99 1042 84 1054 89 b 1078 134 1073 108 1078 120 b 1063 170 1078 149 1073 161 b 1027 184 1054 179 1042 184 b 991 170 1013 184 1000 179 m 116 113 l 89 113 b 75 108 84 113 79 111 l 113 158 b 116 170 115 161 116 165 l 116 183 l 41 183 l 41 157 l 69 157 b 78 161 73 157 76 158 l 43 111 b 38 106 41 109 39 107 b 37 99 38 104 37 102 l 37 85 l 116 85 m 196 113 l 157 113 l 157 122 l 189 122 l 189 146 l 157 146 l 157 157 l 196 157 l 196 183 l 130 183 l 130 85 l 196 85 m 228 157 l 228 85 l 256 85 l 256 157 l 279 157 l 279 183 l 202 183 l 202 157 m 270 85 l 292 85 b 299 88 295 85 297 86 b 304 96 301 90 303 93 l 307 102 l 342 102 l 345 96 b 351 88 346 93 348 90 b 358 85 353 86 356 85 l 380 85 l 338 183 l 313 183 m 417 85 l 417 119 l 449 119 l 449 143 l 417 143 l 417 157 l 455 157 l 455 183 l 388 183 l 388 85 m 640 149 b 643 131 640 141 641 135 l 614 174 b 609 181 612 177 611 180 b 601 183 608 182 605 183 l 579 183 l 579 85 l 608 85 l 608 125 b 604 142 608 131 607 137 l 605 142 l 638 91 b 649 85 641 87 644 85 l 669 85 l 669 183 l 640 183 l 640 149 m 704 157 l 704 85 l 733 85 l 733 157 l 759 157 l 759 183 l 680 183 l 680 157 m 1153 139 b 1150 128 1151 136 1150 133 l 1148 128 b 1145 139 1148 133 1147 136 l 1129 174 b 1123 180 1127 176 1125 179 b 1116 183 1122 182 1119 183 l 1092 183 l 1092 85 l 1120 85 l 1120 128 b 1116 143 1120 132 1119 137 l 1118 143 l 1136 102 b 1150 94 1138 97 1143 94 b 1161 102 1154 94 1158 97 l 1180 143 b 1178 136 1179 141 1179 138 b 1178 128 1178 133 1178 131 l 1178 85 l 1205 85 l 1205 183 l 1181 183 b 1170 174 1177 183 1173 180 m 498 117 b 492 134 494 122 492 127 b 498 151 492 141 494 146 b 514 158 503 155 508 158 b 530 151 521 158 526 155 b 536 134 534 147 536 141 b 530 117 536 127 534 122 b 514 111 526 113 521 111 b 498 117 508 111 503 113 m 1011 117 b 1005 134 1007 122 1005 127 b 1011 151 1005 141 1007 147 b 1027 158 1016 155 1021 158 b 1044 151 1033 158 1039 155 b 1051 134 1048 146 1051 141 b 1044 117 1051 127 1048 122 b 1027 111 1039 113 1033 111 b 1011 117 1021 111 1016 113 m 321 134 b 324 152 323 139 324 145 l 326 152 b 329 134 326 143 327 137 l 335 120 l 316 120 l 321 134 m 848 88 b 859 84 851 86 854 84 b 869 88 863 84 866 86 b 873 99 872 91 873 95 b 869 110 873 103 872 107 b 859 114 866 113 863 114 b 848 110 854 114 851 113 b 844 99 845 107 844 103 b 848 88 844 95 845 91 "},"9":{"ha":1217,"x_min":0,"x_max":0,"o":"m 38 314 l 38 476 l 485 476 l 485 478 l 485 490 b 485 491 485 491 485 491 l 485 493 b 486 499 485 495 486 497 b 487 505 487 501 487 503 b 487 509 487 506 487 507 b 489 514 487 510 488 512 b 540 591 497 545 514 571 b 628 621 565 611 595 621 b 700 602 654 621 678 615 b 752 550 722 589 739 571 b 771 478 765 528 771 504 l 771 476 l 1217 476 l 1217 314 m 695 361 b 743 410 715 373 731 389 b 761 476 755 430 761 452 b 743 542 761 500 755 522 b 695 590 731 562 715 578 b 629 607 675 601 653 607 b 562 590 605 607 583 601 b 514 542 542 578 526 562 b 497 476 502 522 497 500 b 514 409 497 452 502 430 b 562 361 526 389 542 373 b 629 343 583 349 605 343 b 695 361 653 343 675 349 m 697 570 b 706 564 700 568 703 566 l 548 564 b 566 577 552 568 558 573 b 585 585 574 581 581 584 b 628 594 596 591 611 594 b 672 585 642 594 657 591 l 689 575 b 697 570 692 573 694 572 m 745 476 b 739 435 745 461 743 448 b 718 399 736 425 729 413 l 563 399 l 716 555 b 745 476 736 529 745 503 m 539 395 b 516 433 529 408 521 421 b 509 476 511 447 509 461 b 510 494 509 484 509 490 b 517 517 511 503 513 510 b 537 550 521 530 528 541 l 694 550 l 539 395 m 90 423 l 90 347 l 119 347 l 119 423 l 145 423 l 145 450 l 64 450 l 64 423 m 196 379 l 208 356 b 220 347 211 350 215 347 l 246 347 l 228 379 b 210 389 222 386 216 389 l 213 389 b 228 397 218 389 223 392 b 236 414 233 401 236 407 b 225 439 236 424 232 433 b 199 450 218 446 209 450 l 157 450 l 157 347 l 187 347 l 187 379 m 286 450 l 257 450 l 257 347 l 286 347 m 296 347 l 320 347 b 333 357 325 347 329 350 l 336 364 l 371 364 l 376 357 b 388 347 379 350 383 347 l 411 347 l 367 450 l 341 450 m 487 347 l 487 374 l 450 374 l 450 450 l 422 450 l 422 347 m 809 435 b 795 397 799 425 795 412 b 809 359 795 381 799 369 b 847 344 819 349 832 344 b 886 359 863 344 876 349 b 901 397 896 369 901 381 b 886 435 901 412 896 425 b 847 450 876 445 863 450 b 809 435 832 450 819 445 m 980 412 b 983 392 980 404 981 398 l 951 438 b 946 445 950 442 948 444 b 939 447 945 447 942 447 l 914 447 l 914 346 l 945 346 l 945 386 b 942 405 945 389 944 396 l 976 352 b 989 346 980 348 984 346 l 1010 346 l 1010 447 l 980 447 l 980 412 m 1095 346 l 1095 373 l 1059 373 l 1059 447 l 1030 447 l 1030 346 m 1153 376 b 1155 386 1153 380 1154 384 l 1192 447 l 1164 447 b 1153 441 1159 447 1155 445 l 1141 421 b 1139 412 1140 418 1139 415 b 1136 405 1138 409 1137 407 b 1133 421 1136 410 1135 416 l 1122 441 b 1110 447 1119 445 1115 447 l 1083 447 l 1120 386 b 1122 376 1121 384 1122 381 l 1122 346 l 1153 346 l 1153 376 m 197 421 b 205 414 202 421 205 419 b 203 408 205 412 204 410 b 198 406 201 407 200 406 l 187 406 l 187 421 l 197 421 m 830 379 b 823 397 825 384 823 390 b 830 414 823 403 825 409 b 847 421 835 419 840 421 b 864 414 854 421 859 419 b 870 397 868 409 870 403 b 864 379 870 390 868 384 b 847 373 859 375 854 373 b 830 379 840 373 835 375 m 349 398 b 352 405 350 399 351 401 b 353 417 353 409 353 413 l 355 417 b 358 398 355 408 356 402 l 364 385 l 344 385 l 349 398 m 706 386 b 689 373 696 378 690 374 b 681 369 687 372 684 371 b 672 364 678 366 675 365 b 662 362 669 364 666 363 b 649 359 658 361 653 360 b 628 356 642 357 635 356 b 586 364 612 356 598 359 b 550 386 574 369 562 377 m 50 218 l 50 247 l 78 247 l 78 254 l 50 254 l 50 277 l 84 277 l 84 285 l 43 285 l 43 218 m 108 230 b 102 244 104 233 102 238 l 102 285 l 95 285 l 95 244 b 102 224 95 236 97 229 b 121 217 107 219 113 217 b 141 224 129 217 136 219 b 149 244 146 230 149 236 l 149 285 l 140 285 l 140 244 b 135 229 140 238 138 233 b 121 224 132 226 127 224 b 108 230 115 224 111 226 m 202 218 l 202 225 l 174 225 l 174 285 l 166 285 l 166 218 m 254 218 l 254 225 l 223 225 l 223 285 l 217 285 l 217 218 m 343 284 b 342 282 342 284 342 283 l 321 233 b 320 226 321 231 320 228 l 319 226 b 318 233 319 228 319 231 l 296 282 b 291 285 296 284 295 285 l 286 285 l 316 218 l 323 218 l 351 285 l 346 285 b 343 284 345 285 344 285 m 403 225 l 368 225 l 368 248 l 397 248 l 397 256 l 368 256 l 368 277 l 403 277 l 403 285 l 362 285 l 362 218 l 403 218 m 435 246 l 455 221 b 463 218 458 219 460 218 l 467 218 l 447 245 b 444 247 447 246 446 247 l 444 247 b 455 253 448 248 451 250 b 461 265 459 256 461 260 b 455 279 461 271 459 275 b 441 285 451 283 446 285 l 417 285 l 417 218 l 426 218 l 426 246 m 482 220 b 493 217 486 218 489 217 b 509 222 500 217 505 218 b 514 237 512 226 514 231 b 495 257 514 247 508 253 b 484 268 488 260 484 264 b 494 278 484 275 487 278 b 506 275 498 278 502 277 b 510 277 507 274 509 275 l 511 279 b 494 285 508 283 502 285 b 481 281 489 285 484 284 b 475 268 477 278 475 274 b 493 250 475 261 481 255 b 508 237 503 246 508 242 b 504 227 508 233 506 230 b 493 224 501 225 497 224 b 479 230 488 225 484 227 b 476 230 479 230 478 231 b 473 228 475 230 474 229 l 472 227 b 482 220 474 224 478 222 m 536 285 l 530 285 l 530 218 l 536 218 m 561 275 b 551 251 554 268 551 260 b 561 227 551 241 554 233 b 586 217 568 220 576 217 b 611 226 596 217 604 220 b 621 251 617 233 621 241 b 611 276 621 261 617 269 b 586 285 604 282 596 285 b 561 275 576 285 568 282 m 680 235 b 681 230 680 233 681 231 l 646 283 b 640 285 644 284 642 285 l 634 285 l 634 218 l 642 218 l 642 270 l 641 275 l 680 220 b 682 218 680 219 681 218 l 689 218 l 689 285 l 680 285 l 680 235 m 567 232 b 558 251 561 238 558 244 b 566 270 558 258 561 265 b 586 278 572 275 579 278 b 605 270 593 278 599 275 b 613 251 610 265 613 258 b 605 232 613 244 610 238 b 586 224 599 227 593 224 b 567 232 579 224 573 227 m 441 277 b 449 274 444 277 446 276 b 453 265 451 271 453 269 b 449 257 453 262 451 259 b 441 254 446 255 444 254 l 426 254 l 426 277 l 441 277 m 1178 273 l 1176 270 b 1177 264 1174 268 1174 266 l 1186 255 l 727 255 l 727 248 l 1185 248 l 1177 239 b 1176 233 1175 237 1175 235 l 1178 230 l 1196 248 b 1198 252 1197 248 1198 250 b 1196 256 1198 253 1197 255 m 479 170 b 464 134 469 161 464 149 b 478 99 464 120 469 108 b 514 84 487 89 499 84 b 551 99 529 84 541 89 b 566 134 561 108 566 120 b 551 170 566 148 561 160 b 514 184 541 179 529 184 b 479 170 500 184 488 179 m 800 84 b 826 93 811 84 819 87 b 836 116 832 99 836 107 b 806 149 836 134 826 145 b 796 155 799 151 796 153 b 800 158 796 157 797 158 b 806 157 801 158 803 158 b 812 155 809 156 811 155 b 825 163 818 155 822 158 l 830 172 b 817 181 827 176 822 179 b 800 184 811 183 805 184 b 776 176 791 184 782 181 b 767 155 770 171 767 164 b 775 136 767 147 769 141 b 800 123 780 132 788 127 b 806 116 804 122 806 119 b 800 111 806 113 804 111 b 791 113 797 111 794 111 b 786 116 788 114 787 115 b 778 118 784 117 781 118 b 765 111 774 118 769 116 l 761 100 b 800 84 773 90 786 84 m 897 99 b 932 84 906 89 918 84 b 954 90 940 84 947 86 b 969 104 961 94 966 98 l 963 113 b 953 117 960 116 957 117 b 944 114 949 117 946 116 b 931 111 939 112 935 111 b 916 117 925 111 920 113 b 910 134 912 122 910 127 b 916 151 910 141 912 146 b 931 158 920 155 925 158 b 939 156 934 158 937 157 b 944 154 941 155 943 154 b 952 151 946 152 949 151 b 963 155 957 151 960 152 l 969 164 b 954 178 966 170 961 174 b 932 184 947 182 940 184 b 897 170 918 184 906 179 b 883 134 887 160 883 148 b 897 99 883 120 887 108 m 991 170 b 976 134 981 161 976 149 b 991 99 976 120 981 108 b 1027 84 1000 89 1013 84 b 1063 99 1042 84 1054 89 b 1078 134 1073 108 1078 120 b 1063 170 1078 149 1073 161 b 1027 184 1054 179 1042 184 b 991 170 1013 184 1000 179 m 116 113 l 89 113 b 75 108 84 113 79 111 l 113 158 b 116 170 115 161 116 165 l 116 183 l 41 183 l 41 157 l 69 157 b 78 161 73 157 76 158 l 43 111 b 38 106 41 109 39 107 b 37 99 38 104 37 102 l 37 85 l 116 85 m 196 113 l 157 113 l 157 122 l 189 122 l 189 146 l 157 146 l 157 157 l 196 157 l 196 183 l 130 183 l 130 85 l 196 85 m 228 157 l 228 85 l 256 85 l 256 157 l 279 157 l 279 183 l 202 183 l 202 157 m 270 85 l 292 85 b 299 88 295 85 297 86 b 304 96 301 90 303 93 l 307 102 l 342 102 l 345 96 b 351 88 346 93 348 90 b 358 85 353 86 356 85 l 380 85 l 338 183 l 313 183 m 417 85 l 417 119 l 449 119 l 449 143 l 417 143 l 417 157 l 455 157 l 455 183 l 388 183 l 388 85 m 640 149 b 643 131 640 141 641 135 l 614 174 b 609 181 612 177 611 180 b 601 183 608 182 605 183 l 579 183 l 579 85 l 608 85 l 608 125 b 604 142 608 131 607 137 l 605 142 l 638 91 b 649 85 641 87 644 85 l 669 85 l 669 183 l 640 183 l 640 149 m 704 157 l 704 85 l 733 85 l 733 157 l 759 157 l 759 183 l 680 183 l 680 157 m 1153 139 b 1150 128 1151 136 1150 133 l 1148 128 b 1145 139 1148 133 1147 136 l 1129 174 b 1123 180 1127 176 1125 179 b 1116 183 1122 182 1119 183 l 1092 183 l 1092 85 l 1120 85 l 1120 128 b 1116 143 1120 132 1119 137 l 1118 143 l 1136 102 b 1150 94 1138 97 1143 94 b 1161 102 1154 94 1158 97 l 1180 143 b 1178 136 1179 141 1179 138 b 1178 128 1178 133 1178 131 l 1178 85 l 1205 85 l 1205 183 l 1181 183 b 1170 174 1177 183 1173 180 m 498 117 b 492 134 494 122 492 127 b 498 151 492 141 494 146 b 514 158 503 155 508 158 b 530 151 521 158 526 155 b 536 134 534 147 536 141 b 530 117 536 127 534 122 b 514 111 526 113 521 111 b 498 117 508 111 503 113 m 1011 117 b 1005 134 1007 122 1005 127 b 1011 151 1005 141 1007 147 b 1027 158 1016 155 1021 158 b 1044 151 1033 158 1039 155 b 1051 134 1048 146 1051 141 b 1044 117 1051 127 1048 122 b 1027 111 1039 113 1033 111 b 1011 117 1021 111 1016 113 m 321 134 b 324 152 323 139 324 145 l 326 152 b 329 134 326 143 327 137 l 335 120 l 316 120 l 321 134 m 848 88 b 859 84 851 86 854 84 b 869 88 863 84 866 86 b 873 99 872 91 873 95 b 869 110 873 103 872 107 b 859 114 866 113 863 114 b 848 110 854 114 851 113 b 844 99 845 107 844 103 b 848 88 844 95 845 91 "},"":{"ha":716,"x_min":0,"x_max":0,"o":"m 133 -265 l 133 1167 l 587 1167 l 587 -265 m 240 1024 l 334 1024 l 334 971 l 239 971 l 239 924 l 477 924 l 477 971 l 382 971 l 382 1024 l 477 1024 l 477 1071 l 240 1071 m 239 738 l 477 738 l 477 786 l 382 786 l 382 886 l 239 886 m 287 786 l 287 838 l 334 838 l 334 786 m 239 652 l 334 652 l 334 599 l 239 599 l 239 551 l 382 551 l 382 652 l 477 652 l 477 699 l 239 699 m 429 518 l 239 518 l 239 470 l 477 470 l 477 613 l 429 613 m 334 358 l 382 358 l 382 391 l 429 391 l 429 323 l 287 323 l 287 438 l 239 438 l 239 276 l 477 276 l 477 438 l 334 438 m 239 28 l 477 28 l 477 190 l 239 190 m 287 75 l 287 143 l 429 143 l 429 75 m 239 -52 l 340 -52 l 239 -119 l 239 -167 l 477 -167 l 477 -119 l 331 -119 l 431 -52 l 477 -52 l 477 -4 l 239 -4 "},"":{"ha":716,"x_min":0,"x_max":0,"o":"m 587 -265 l 587 1167 l 133 1167 l 133 -265 m 240 1071 l 477 1071 l 477 1024 l 382 1024 l 382 971 l 477 971 l 477 924 l 239 924 l 239 971 l 334 971 l 334 1024 l 240 1024 m 239 886 l 382 886 l 382 786 l 477 786 l 477 738 l 239 738 m 334 786 l 334 838 l 287 838 l 287 786 m 239 699 l 477 699 l 477 652 l 382 652 l 382 551 l 239 551 l 239 599 l 334 599 l 334 652 l 239 652 m 429 613 l 477 613 l 477 470 l 239 470 l 239 518 l 429 518 m 334 438 l 477 438 l 477 276 l 239 276 l 239 438 l 287 438 l 287 323 l 429 323 l 429 391 l 382 391 l 382 358 l 334 358 m 239 190 l 477 190 l 477 28 l 239 28 m 429 75 l 429 143 l 287 143 l 287 75 m 239 -4 l 477 -4 l 477 -52 l 431 -52 l 331 -119 l 477 -119 l 477 -167 l 239 -167 l 239 -119 l 340 -52 l 239 -52 "},"":{"ha":716,"x_min":0,"x_max":0,"o":"m 133 -265 l 133 1167 l 587 1167 l 587 -265 m 240 1024 l 334 1024 l 334 971 l 239 971 l 239 924 l 477 924 l 477 971 l 382 971 l 382 1024 l 477 1024 l 477 1071 l 240 1071 m 239 738 l 477 738 l 477 786 l 382 786 l 382 886 l 239 886 m 287 786 l 287 838 l 334 838 l 334 786 m 239 652 l 334 652 l 334 599 l 239 599 l 239 551 l 382 551 l 382 652 l 477 652 l 477 699 l 239 699 m 429 518 l 239 518 l 239 470 l 477 470 l 477 613 l 429 613 m 334 358 l 382 358 l 382 391 l 429 391 l 429 323 l 287 323 l 287 438 l 239 438 l 239 276 l 477 276 l 477 438 l 334 438 m 239 28 l 477 28 l 477 190 l 239 190 m 287 75 l 287 143 l 429 143 l 429 75 m 239 -52 l 340 -52 l 239 -119 l 239 -167 l 477 -167 l 477 -119 l 331 -119 l 431 -52 l 477 -52 l 477 -4 l 239 -4 "},"":{"ha":716,"x_min":0,"x_max":0,"o":"m 587 -265 l 587 1167 l 133 1167 l 133 -265 m 240 1071 l 477 1071 l 477 1024 l 382 1024 l 382 971 l 477 971 l 477 924 l 239 924 l 239 971 l 334 971 l 334 1024 l 240 1024 m 239 886 l 382 886 l 382 786 l 477 786 l 477 738 l 239 738 m 334 786 l 334 838 l 287 838 l 287 786 m 239 699 l 477 699 l 477 652 l 382 652 l 382 551 l 239 551 l 239 599 l 334 599 l 334 652 l 239 652 m 429 613 l 477 613 l 477 470 l 239 470 l 239 518 l 429 518 m 334 438 l 477 438 l 477 276 l 239 276 l 239 438 l 287 438 l 287 323 l 429 323 l 429 391 l 382 391 l 382 358 l 334 358 m 239 190 l 477 190 l 477 28 l 239 28 m 429 75 l 429 143 l 287 143 l 287 75 m 239 -4 l 477 -4 l 477 -52 l 431 -52 l 331 -119 l 477 -119 l 477 -167 l 239 -167 l 239 -119 l 340 -52 l 239 -52 "},"":{"ha":716,"x_min":0,"x_max":0,"o":"m 133 -265 l 133 1167 l 587 1167 l 587 -265 m 240 1024 l 334 1024 l 334 971 l 239 971 l 239 924 l 477 924 l 477 971 l 382 971 l 382 1024 l 477 1024 l 477 1071 l 240 1071 m 239 738 l 477 738 l 477 786 l 382 786 l 382 886 l 239 886 m 287 786 l 287 838 l 334 838 l 334 786 m 239 652 l 334 652 l 334 599 l 239 599 l 239 551 l 382 551 l 382 652 l 477 652 l 477 699 l 239 699 m 429 518 l 239 518 l 239 470 l 477 470 l 477 613 l 429 613 m 334 358 l 382 358 l 382 391 l 429 391 l 429 323 l 287 323 l 287 438 l 239 438 l 239 276 l 477 276 l 477 438 l 334 438 m 239 28 l 477 28 l 477 190 l 239 190 m 287 75 l 287 143 l 429 143 l 429 75 m 239 -52 l 340 -52 l 239 -119 l 239 -167 l 477 -167 l 477 -119 l 331 -119 l 431 -52 l 477 -52 l 477 -4 l 239 -4 "},"":{"ha":716,"x_min":0,"x_max":0,"o":"m 587 -265 l 587 1167 l 133 1167 l 133 -265 m 240 1071 l 477 1071 l 477 1024 l 382 1024 l 382 971 l 477 971 l 477 924 l 239 924 l 239 971 l 334 971 l 334 1024 l 240 1024 m 239 886 l 382 886 l 382 786 l 477 786 l 477 738 l 239 738 m 334 786 l 334 838 l 287 838 l 287 786 m 239 699 l 477 699 l 477 652 l 382 652 l 382 551 l 239 551 l 239 599 l 334 599 l 334 652 l 239 652 m 429 613 l 477 613 l 477 470 l 239 470 l 239 518 l 429 518 m 334 438 l 477 438 l 477 276 l 239 276 l 239 438 l 287 438 l 287 323 l 429 323 l 429 391 l 382 391 l 382 358 l 334 358 m 239 190 l 477 190 l 477 28 l 239 28 m 429 75 l 429 143 l 287 143 l 287 75 m 239 -4 l 477 -4 l 477 -52 l 431 -52 l 331 -119 l 477 -119 l 477 -167 l 239 -167 l 239 -119 l 340 -52 l 239 -52 "},"":{"ha":716,"x_min":0,"x_max":0,"o":"m 133 -265 l 133 1167 l 587 1167 l 587 -265 m 240 1024 l 334 1024 l 334 971 l 239 971 l 239 924 l 477 924 l 477 971 l 382 971 l 382 1024 l 477 1024 l 477 1071 l 240 1071 m 239 738 l 477 738 l 477 786 l 382 786 l 382 886 l 239 886 m 287 786 l 287 838 l 334 838 l 334 786 m 239 652 l 334 652 l 334 599 l 239 599 l 239 551 l 382 551 l 382 652 l 477 652 l 477 699 l 239 699 m 429 518 l 239 518 l 239 470 l 477 470 l 477 613 l 429 613 m 334 358 l 382 358 l 382 391 l 429 391 l 429 323 l 287 323 l 287 438 l 239 438 l 239 276 l 477 276 l 477 438 l 334 438 m 239 28 l 477 28 l 477 190 l 239 190 m 287 75 l 287 143 l 429 143 l 429 75 m 239 -52 l 340 -52 l 239 -119 l 239 -167 l 477 -167 l 477 -119 l 331 -119 l 431 -52 l 477 -52 l 477 -4 l 239 -4 "},"":{"ha":716,"x_min":0,"x_max":0,"o":"m 587 -265 l 587 1167 l 133 1167 l 133 -265 m 240 1071 l 477 1071 l 477 1024 l 382 1024 l 382 971 l 477 971 l 477 924 l 239 924 l 239 971 l 334 971 l 334 1024 l 240 1024 m 239 886 l 382 886 l 382 786 l 477 786 l 477 738 l 239 738 m 334 786 l 334 838 l 287 838 l 287 786 m 239 699 l 477 699 l 477 652 l 382 652 l 382 551 l 239 551 l 239 599 l 334 599 l 334 652 l 239 652 m 429 613 l 477 613 l 477 470 l 239 470 l 239 518 l 429 518 m 334 438 l 477 438 l 477 276 l 239 276 l 239 438 l 287 438 l 287 323 l 429 323 l 429 391 l 382 391 l 382 358 l 334 358 m 239 190 l 477 190 l 477 28 l 239 28 m 429 75 l 429 143 l 287 143 l 287 75 m 239 -4 l 477 -4 l 477 -52 l 431 -52 l 331 -119 l 477 -119 l 477 -167 l 239 -167 l 239 -119 l 340 -52 l 239 -52 "},"":{"ha":716,"x_min":0,"x_max":0,"o":"m 133 -265 l 133 1167 l 587 1167 l 587 -265 m 240 1024 l 334 1024 l 334 971 l 239 971 l 239 924 l 477 924 l 477 971 l 382 971 l 382 1024 l 477 1024 l 477 1071 l 240 1071 m 239 738 l 477 738 l 477 786 l 382 786 l 382 886 l 239 886 m 287 786 l 287 838 l 334 838 l 334 786 m 239 652 l 334 652 l 334 599 l 239 599 l 239 551 l 382 551 l 382 652 l 477 652 l 477 699 l 239 699 m 429 518 l 239 518 l 239 470 l 477 470 l 477 613 l 429 613 m 334 358 l 382 358 l 382 391 l 429 391 l 429 323 l 287 323 l 287 438 l 239 438 l 239 276 l 477 276 l 477 438 l 334 438 m 239 28 l 477 28 l 477 190 l 239 190 m 287 75 l 287 143 l 429 143 l 429 75 m 239 -52 l 340 -52 l 239 -119 l 239 -167 l 477 -167 l 477 -119 l 331 -119 l 431 -52 l 477 -52 l 477 -4 l 239 -4 "},"":{"ha":716,"x_min":0,"x_max":0,"o":"m 587 -265 l 587 1167 l 133 1167 l 133 -265 m 240 1071 l 477 1071 l 477 1024 l 382 1024 l 382 971 l 477 971 l 477 924 l 239 924 l 239 971 l 334 971 l 334 1024 l 240 1024 m 239 886 l 382 886 l 382 786 l 477 786 l 477 738 l 239 738 m 334 786 l 334 838 l 287 838 l 287 786 m 239 699 l 477 699 l 477 652 l 382 652 l 382 551 l 239 551 l 239 599 l 334 599 l 334 652 l 239 652 m 429 613 l 477 613 l 477 470 l 239 470 l 239 518 l 429 518 m 334 438 l 477 438 l 477 276 l 239 276 l 239 438 l 287 438 l 287 323 l 429 323 l 429 391 l 382 391 l 382 358 l 334 358 m 239 190 l 477 190 l 477 28 l 239 28 m 429 75 l 429 143 l 287 143 l 287 75 m 239 -4 l 477 -4 l 477 -52 l 431 -52 l 331 -119 l 477 -119 l 477 -167 l 239 -167 l 239 -119 l 340 -52 l 239 -52 "},"":{"ha":716,"x_min":0,"x_max":0,"o":"m 133 -265 l 133 1167 l 587 1167 l 587 -265 m 240 1024 l 334 1024 l 334 971 l 239 971 l 239 924 l 477 924 l 477 971 l 382 971 l 382 1024 l 477 1024 l 477 1071 l 240 1071 m 239 738 l 477 738 l 477 786 l 382 786 l 382 886 l 239 886 m 287 786 l 287 838 l 334 838 l 334 786 m 239 652 l 334 652 l 334 599 l 239 599 l 239 551 l 382 551 l 382 652 l 477 652 l 477 699 l 239 699 m 429 518 l 239 518 l 239 470 l 477 470 l 477 613 l 429 613 m 334 358 l 382 358 l 382 391 l 429 391 l 429 323 l 287 323 l 287 438 l 239 438 l 239 276 l 477 276 l 477 438 l 334 438 m 239 28 l 477 28 l 477 190 l 239 190 m 287 75 l 287 143 l 429 143 l 429 75 m 239 -52 l 340 -52 l 239 -119 l 239 -167 l 477 -167 l 477 -119 l 331 -119 l 431 -52 l 477 -52 l 477 -4 l 239 -4 "},"":{"ha":716,"x_min":0,"x_max":0,"o":"m 587 -265 l 587 1167 l 133 1167 l 133 -265 m 240 1071 l 477 1071 l 477 1024 l 382 1024 l 382 971 l 477 971 l 477 924 l 239 924 l 239 971 l 334 971 l 334 1024 l 240 1024 m 239 886 l 382 886 l 382 786 l 477 786 l 477 738 l 239 738 m 334 786 l 334 838 l 287 838 l 287 786 m 239 699 l 477 699 l 477 652 l 382 652 l 382 551 l 239 551 l 239 599 l 334 599 l 334 652 l 239 652 m 429 613 l 477 613 l 477 470 l 239 470 l 239 518 l 429 518 m 334 438 l 477 438 l 477 276 l 239 276 l 239 438 l 287 438 l 287 323 l 429 323 l 429 391 l 382 391 l 382 358 l 334 358 m 239 190 l 477 190 l 477 28 l 239 28 m 429 75 l 429 143 l 287 143 l 287 75 m 239 -4 l 477 -4 l 477 -52 l 431 -52 l 331 -119 l 477 -119 l 477 -167 l 239 -167 l 239 -119 l 340 -52 l 239 -52 "},"":{"ha":716,"x_min":0,"x_max":0,"o":"m 133 -265 l 133 1167 l 587 1167 l 587 -265 m 240 1024 l 334 1024 l 334 971 l 239 971 l 239 924 l 477 924 l 477 971 l 382 971 l 382 1024 l 477 1024 l 477 1071 l 240 1071 m 239 738 l 477 738 l 477 786 l 382 786 l 382 886 l 239 886 m 287 786 l 287 838 l 334 838 l 334 786 m 239 652 l 334 652 l 334 599 l 239 599 l 239 551 l 382 551 l 382 652 l 477 652 l 477 699 l 239 699 m 429 518 l 239 518 l 239 470 l 477 470 l 477 613 l 429 613 m 334 358 l 382 358 l 382 391 l 429 391 l 429 323 l 287 323 l 287 438 l 239 438 l 239 276 l 477 276 l 477 438 l 334 438 m 239 28 l 477 28 l 477 190 l 239 190 m 287 75 l 287 143 l 429 143 l 429 75 m 239 -52 l 340 -52 l 239 -119 l 239 -167 l 477 -167 l 477 -119 l 331 -119 l 431 -52 l 477 -52 l 477 -4 l 239 -4 "},"":{"ha":716,"x_min":0,"x_max":0,"o":"m 587 -265 l 587 1167 l 133 1167 l 133 -265 m 240 1071 l 477 1071 l 477 1024 l 382 1024 l 382 971 l 477 971 l 477 924 l 239 924 l 239 971 l 334 971 l 334 1024 l 240 1024 m 239 886 l 382 886 l 382 786 l 477 786 l 477 738 l 239 738 m 334 786 l 334 838 l 287 838 l 287 786 m 239 699 l 477 699 l 477 652 l 382 652 l 382 551 l 239 551 l 239 599 l 334 599 l 334 652 l 239 652 m 429 613 l 477 613 l 477 470 l 239 470 l 239 518 l 429 518 m 334 438 l 477 438 l 477 276 l 239 276 l 239 438 l 287 438 l 287 323 l 429 323 l 429 391 l 382 391 l 382 358 l 334 358 m 239 190 l 477 190 l 477 28 l 239 28 m 429 75 l 429 143 l 287 143 l 287 75 m 239 -4 l 477 -4 l 477 -52 l 431 -52 l 331 -119 l 477 -119 l 477 -167 l 239 -167 l 239 -119 l 340 -52 l 239 -52 "},"":{"ha":716,"x_min":0,"x_max":0,"o":"m 133 -265 l 133 1167 l 587 1167 l 587 -265 m 240 1024 l 334 1024 l 334 971 l 239 971 l 239 924 l 477 924 l 477 971 l 382 971 l 382 1024 l 477 1024 l 477 1071 l 240 1071 m 239 738 l 477 738 l 477 786 l 382 786 l 382 886 l 239 886 m 287 786 l 287 838 l 334 838 l 334 786 m 239 652 l 334 652 l 334 599 l 239 599 l 239 551 l 382 551 l 382 652 l 477 652 l 477 699 l 239 699 m 429 518 l 239 518 l 239 470 l 477 470 l 477 613 l 429 613 m 334 358 l 382 358 l 382 391 l 429 391 l 429 323 l 287 323 l 287 438 l 239 438 l 239 276 l 477 276 l 477 438 l 334 438 m 239 28 l 477 28 l 477 190 l 239 190 m 287 75 l 287 143 l 429 143 l 429 75 m 239 -52 l 340 -52 l 239 -119 l 239 -167 l 477 -167 l 477 -119 l 331 -119 l 431 -52 l 477 -52 l 477 -4 l 239 -4 "},"":{"ha":716,"x_min":0,"x_max":0,"o":"m 587 -265 l 587 1167 l 133 1167 l 133 -265 m 240 1071 l 477 1071 l 477 1024 l 382 1024 l 382 971 l 477 971 l 477 924 l 239 924 l 239 971 l 334 971 l 334 1024 l 240 1024 m 239 886 l 382 886 l 382 786 l 477 786 l 477 738 l 239 738 m 334 786 l 334 838 l 287 838 l 287 786 m 239 699 l 477 699 l 477 652 l 382 652 l 382 551 l 239 551 l 239 599 l 334 599 l 334 652 l 239 652 m 429 613 l 477 613 l 477 470 l 239 470 l 239 518 l 429 518 m 334 438 l 477 438 l 477 276 l 239 276 l 239 438 l 287 438 l 287 323 l 429 323 l 429 391 l 382 391 l 382 358 l 334 358 m 239 190 l 477 190 l 477 28 l 239 28 m 429 75 l 429 143 l 287 143 l 287 75 m 239 -4 l 477 -4 l 477 -52 l 431 -52 l 331 -119 l 477 -119 l 477 -167 l 239 -167 l 239 -119 l 340 -52 l 239 -52 "},"":{"ha":716,"x_min":0,"x_max":0,"o":"m 133 -265 l 133 1167 l 587 1167 l 587 -265 m 240 1024 l 334 1024 l 334 971 l 239 971 l 239 924 l 477 924 l 477 971 l 382 971 l 382 1024 l 477 1024 l 477 1071 l 240 1071 m 239 738 l 477 738 l 477 786 l 382 786 l 382 886 l 239 886 m 287 786 l 287 838 l 334 838 l 334 786 m 239 652 l 334 652 l 334 599 l 239 599 l 239 551 l 382 551 l 382 652 l 477 652 l 477 699 l 239 699 m 429 518 l 239 518 l 239 470 l 477 470 l 477 613 l 429 613 m 334 358 l 382 358 l 382 391 l 429 391 l 429 323 l 287 323 l 287 438 l 239 438 l 239 276 l 477 276 l 477 438 l 334 438 m 239 28 l 477 28 l 477 190 l 239 190 m 287 75 l 287 143 l 429 143 l 429 75 m 239 -52 l 340 -52 l 239 -119 l 239 -167 l 477 -167 l 477 -119 l 331 -119 l 431 -52 l 477 -52 l 477 -4 l 239 -4 "},"":{"ha":716,"x_min":0,"x_max":0,"o":"m 587 -265 l 587 1167 l 133 1167 l 133 -265 m 240 1071 l 477 1071 l 477 1024 l 382 1024 l 382 971 l 477 971 l 477 924 l 239 924 l 239 971 l 334 971 l 334 1024 l 240 1024 m 239 886 l 382 886 l 382 786 l 477 786 l 477 738 l 239 738 m 334 786 l 334 838 l 287 838 l 287 786 m 239 699 l 477 699 l 477 652 l 382 652 l 382 551 l 239 551 l 239 599 l 334 599 l 334 652 l 239 652 m 429 613 l 477 613 l 477 470 l 239 470 l 239 518 l 429 518 m 334 438 l 477 438 l 477 276 l 239 276 l 239 438 l 287 438 l 287 323 l 429 323 l 429 391 l 382 391 l 382 358 l 334 358 m 239 190 l 477 190 l 477 28 l 239 28 m 429 75 l 429 143 l 287 143 l 287 75 m 239 -4 l 477 -4 l 477 -52 l 431 -52 l 331 -119 l 477 -119 l 477 -167 l 239 -167 l 239 -119 l 340 -52 l 239 -52 "},"":{"ha":716,"x_min":0,"x_max":0,"o":"m 133 -265 l 133 1167 l 587 1167 l 587 -265 m 240 1024 l 334 1024 l 334 971 l 239 971 l 239 924 l 477 924 l 477 971 l 382 971 l 382 1024 l 477 1024 l 477 1071 l 240 1071 m 239 738 l 477 738 l 477 786 l 382 786 l 382 886 l 239 886 m 287 786 l 287 838 l 334 838 l 334 786 m 239 652 l 334 652 l 334 599 l 239 599 l 239 551 l 382 551 l 382 652 l 477 652 l 477 699 l 239 699 m 429 518 l 239 518 l 239 470 l 477 470 l 477 613 l 429 613 m 334 358 l 382 358 l 382 391 l 429 391 l 429 323 l 287 323 l 287 438 l 239 438 l 239 276 l 477 276 l 477 438 l 334 438 m 239 28 l 477 28 l 477 190 l 239 190 m 287 75 l 287 143 l 429 143 l 429 75 m 239 -52 l 340 -52 l 239 -119 l 239 -167 l 477 -167 l 477 -119 l 331 -119 l 431 -52 l 477 -52 l 477 -4 l 239 -4 "},"":{"ha":716,"x_min":0,"x_max":0,"o":"m 587 -265 l 587 1167 l 133 1167 l 133 -265 m 240 1071 l 477 1071 l 477 1024 l 382 1024 l 382 971 l 477 971 l 477 924 l 239 924 l 239 971 l 334 971 l 334 1024 l 240 1024 m 239 886 l 382 886 l 382 786 l 477 786 l 477 738 l 239 738 m 334 786 l 334 838 l 287 838 l 287 786 m 239 699 l 477 699 l 477 652 l 382 652 l 382 551 l 239 551 l 239 599 l 334 599 l 334 652 l 239 652 m 429 613 l 477 613 l 477 470 l 239 470 l 239 518 l 429 518 m 334 438 l 477 438 l 477 276 l 239 276 l 239 438 l 287 438 l 287 323 l 429 323 l 429 391 l 382 391 l 382 358 l 334 358 m 239 190 l 477 190 l 477 28 l 239 28 m 429 75 l 429 143 l 287 143 l 287 75 m 239 -4 l 477 -4 l 477 -52 l 431 -52 l 331 -119 l 477 -119 l 477 -167 l 239 -167 l 239 -119 l 340 -52 l 239 -52 "},"":{"ha":716,"x_min":0,"x_max":0,"o":"m 133 -265 l 133 1167 l 587 1167 l 587 -265 m 240 1024 l 334 1024 l 334 971 l 239 971 l 239 924 l 477 924 l 477 971 l 382 971 l 382 1024 l 477 1024 l 477 1071 l 240 1071 m 239 738 l 477 738 l 477 786 l 382 786 l 382 886 l 239 886 m 287 786 l 287 838 l 334 838 l 334 786 m 239 652 l 334 652 l 334 599 l 239 599 l 239 551 l 382 551 l 382 652 l 477 652 l 477 699 l 239 699 m 429 518 l 239 518 l 239 470 l 477 470 l 477 613 l 429 613 m 334 358 l 382 358 l 382 391 l 429 391 l 429 323 l 287 323 l 287 438 l 239 438 l 239 276 l 477 276 l 477 438 l 334 438 m 239 28 l 477 28 l 477 190 l 239 190 m 287 75 l 287 143 l 429 143 l 429 75 m 239 -52 l 340 -52 l 239 -119 l 239 -167 l 477 -167 l 477 -119 l 331 -119 l 431 -52 l 477 -52 l 477 -4 l 239 -4 "},"":{"ha":716,"x_min":0,"x_max":0,"o":"m 587 -265 l 587 1167 l 133 1167 l 133 -265 m 240 1071 l 477 1071 l 477 1024 l 382 1024 l 382 971 l 477 971 l 477 924 l 239 924 l 239 971 l 334 971 l 334 1024 l 240 1024 m 239 886 l 382 886 l 382 786 l 477 786 l 477 738 l 239 738 m 334 786 l 334 838 l 287 838 l 287 786 m 239 699 l 477 699 l 477 652 l 382 652 l 382 551 l 239 551 l 239 599 l 334 599 l 334 652 l 239 652 m 429 613 l 477 613 l 477 470 l 239 470 l 239 518 l 429 518 m 334 438 l 477 438 l 477 276 l 239 276 l 239 438 l 287 438 l 287 323 l 429 323 l 429 391 l 382 391 l 382 358 l 334 358 m 239 190 l 477 190 l 477 28 l 239 28 m 429 75 l 429 143 l 287 143 l 287 75 m 239 -4 l 477 -4 l 477 -52 l 431 -52 l 331 -119 l 477 -119 l 477 -167 l 239 -167 l 239 -119 l 340 -52 l 239 -52 "},"":{"ha":716,"x_min":0,"x_max":0,"o":"m 133 -265 l 133 1167 l 587 1167 l 587 -265 m 240 1024 l 334 1024 l 334 971 l 239 971 l 239 924 l 477 924 l 477 971 l 382 971 l 382 1024 l 477 1024 l 477 1071 l 240 1071 m 239 738 l 477 738 l 477 786 l 382 786 l 382 886 l 239 886 m 287 786 l 287 838 l 334 838 l 334 786 m 239 652 l 334 652 l 334 599 l 239 599 l 239 551 l 382 551 l 382 652 l 477 652 l 477 699 l 239 699 m 429 518 l 239 518 l 239 470 l 477 470 l 477 613 l 429 613 m 334 358 l 382 358 l 382 391 l 429 391 l 429 323 l 287 323 l 287 438 l 239 438 l 239 276 l 477 276 l 477 438 l 334 438 m 239 28 l 477 28 l 477 190 l 239 190 m 287 75 l 287 143 l 429 143 l 429 75 m 239 -52 l 340 -52 l 239 -119 l 239 -167 l 477 -167 l 477 -119 l 331 -119 l 431 -52 l 477 -52 l 477 -4 l 239 -4 "},"":{"ha":716,"x_min":0,"x_max":0,"o":"m 587 -265 l 587 1167 l 133 1167 l 133 -265 m 240 1071 l 477 1071 l 477 1024 l 382 1024 l 382 971 l 477 971 l 477 924 l 239 924 l 239 971 l 334 971 l 334 1024 l 240 1024 m 239 886 l 382 886 l 382 786 l 477 786 l 477 738 l 239 738 m 334 786 l 334 838 l 287 838 l 287 786 m 239 699 l 477 699 l 477 652 l 382 652 l 382 551 l 239 551 l 239 599 l 334 599 l 334 652 l 239 652 m 429 613 l 477 613 l 477 470 l 239 470 l 239 518 l 429 518 m 334 438 l 477 438 l 477 276 l 239 276 l 239 438 l 287 438 l 287 323 l 429 323 l 429 391 l 382 391 l 382 358 l 334 358 m 239 190 l 477 190 l 477 28 l 239 28 m 429 75 l 429 143 l 287 143 l 287 75 m 239 -4 l 477 -4 l 477 -52 l 431 -52 l 331 -119 l 477 -119 l 477 -167 l 239 -167 l 239 -119 l 340 -52 l 239 -52 "},"":{"ha":716,"x_min":0,"x_max":0,"o":"m 133 -265 l 133 1167 l 587 1167 l 587 -265 m 240 1024 l 334 1024 l 334 971 l 239 971 l 239 924 l 477 924 l 477 971 l 382 971 l 382 1024 l 477 1024 l 477 1071 l 240 1071 m 239 738 l 477 738 l 477 786 l 382 786 l 382 886 l 239 886 m 287 786 l 287 838 l 334 838 l 334 786 m 239 652 l 334 652 l 334 599 l 239 599 l 239 551 l 382 551 l 382 652 l 477 652 l 477 699 l 239 699 m 429 518 l 239 518 l 239 470 l 477 470 l 477 613 l 429 613 m 334 358 l 382 358 l 382 391 l 429 391 l 429 323 l 287 323 l 287 438 l 239 438 l 239 276 l 477 276 l 477 438 l 334 438 m 239 28 l 477 28 l 477 190 l 239 190 m 287 75 l 287 143 l 429 143 l 429 75 m 239 -52 l 340 -52 l 239 -119 l 239 -167 l 477 -167 l 477 -119 l 331 -119 l 431 -52 l 477 -52 l 477 -4 l 239 -4 "},"":{"ha":716,"x_min":0,"x_max":0,"o":"m 587 -265 l 587 1167 l 133 1167 l 133 -265 m 240 1071 l 477 1071 l 477 1024 l 382 1024 l 382 971 l 477 971 l 477 924 l 239 924 l 239 971 l 334 971 l 334 1024 l 240 1024 m 239 886 l 382 886 l 382 786 l 477 786 l 477 738 l 239 738 m 334 786 l 334 838 l 287 838 l 287 786 m 239 699 l 477 699 l 477 652 l 382 652 l 382 551 l 239 551 l 239 599 l 334 599 l 334 652 l 239 652 m 429 613 l 477 613 l 477 470 l 239 470 l 239 518 l 429 518 m 334 438 l 477 438 l 477 276 l 239 276 l 239 438 l 287 438 l 287 323 l 429 323 l 429 391 l 382 391 l 382 358 l 334 358 m 239 190 l 477 190 l 477 28 l 239 28 m 429 75 l 429 143 l 287 143 l 287 75 m 239 -4 l 477 -4 l 477 -52 l 431 -52 l 331 -119 l 477 -119 l 477 -167 l 239 -167 l 239 -119 l 340 -52 l 239 -52 "},"":{"ha":716,"x_min":0,"x_max":0,"o":"m 133 -265 l 133 1167 l 587 1167 l 587 -265 m 240 1024 l 334 1024 l 334 971 l 239 971 l 239 924 l 477 924 l 477 971 l 382 971 l 382 1024 l 477 1024 l 477 1071 l 240 1071 m 239 738 l 477 738 l 477 786 l 382 786 l 382 886 l 239 886 m 287 786 l 287 838 l 334 838 l 334 786 m 239 652 l 334 652 l 334 599 l 239 599 l 239 551 l 382 551 l 382 652 l 477 652 l 477 699 l 239 699 m 429 518 l 239 518 l 239 470 l 477 470 l 477 613 l 429 613 m 334 358 l 382 358 l 382 391 l 429 391 l 429 323 l 287 323 l 287 438 l 239 438 l 239 276 l 477 276 l 477 438 l 334 438 m 239 28 l 477 28 l 477 190 l 239 190 m 287 75 l 287 143 l 429 143 l 429 75 m 239 -52 l 340 -52 l 239 -119 l 239 -167 l 477 -167 l 477 -119 l 331 -119 l 431 -52 l 477 -52 l 477 -4 l 239 -4 "},"":{"ha":716,"x_min":0,"x_max":0,"o":"m 587 -265 l 587 1167 l 133 1167 l 133 -265 m 240 1071 l 477 1071 l 477 1024 l 382 1024 l 382 971 l 477 971 l 477 924 l 239 924 l 239 971 l 334 971 l 334 1024 l 240 1024 m 239 886 l 382 886 l 382 786 l 477 786 l 477 738 l 239 738 m 334 786 l 334 838 l 287 838 l 287 786 m 239 699 l 477 699 l 477 652 l 382 652 l 382 551 l 239 551 l 239 599 l 334 599 l 334 652 l 239 652 m 429 613 l 477 613 l 477 470 l 239 470 l 239 518 l 429 518 m 334 438 l 477 438 l 477 276 l 239 276 l 239 438 l 287 438 l 287 323 l 429 323 l 429 391 l 382 391 l 382 358 l 334 358 m 239 190 l 477 190 l 477 28 l 239 28 m 429 75 l 429 143 l 287 143 l 287 75 m 239 -4 l 477 -4 l 477 -52 l 431 -52 l 331 -119 l 477 -119 l 477 -167 l 239 -167 l 239 -119 l 340 -52 l 239 -52 "},"":{"ha":716,"x_min":0,"x_max":0,"o":"m 133 -265 l 133 1167 l 587 1167 l 587 -265 m 240 1024 l 334 1024 l 334 971 l 239 971 l 239 924 l 477 924 l 477 971 l 382 971 l 382 1024 l 477 1024 l 477 1071 l 240 1071 m 239 738 l 477 738 l 477 786 l 382 786 l 382 886 l 239 886 m 287 786 l 287 838 l 334 838 l 334 786 m 239 652 l 334 652 l 334 599 l 239 599 l 239 551 l 382 551 l 382 652 l 477 652 l 477 699 l 239 699 m 429 518 l 239 518 l 239 470 l 477 470 l 477 613 l 429 613 m 334 358 l 382 358 l 382 391 l 429 391 l 429 323 l 287 323 l 287 438 l 239 438 l 239 276 l 477 276 l 477 438 l 334 438 m 239 28 l 477 28 l 477 190 l 239 190 m 287 75 l 287 143 l 429 143 l 429 75 m 239 -52 l 340 -52 l 239 -119 l 239 -167 l 477 -167 l 477 -119 l 331 -119 l 431 -52 l 477 -52 l 477 -4 l 239 -4 "},"":{"ha":716,"x_min":0,"x_max":0,"o":"m 587 -265 l 587 1167 l 133 1167 l 133 -265 m 240 1071 l 477 1071 l 477 1024 l 382 1024 l 382 971 l 477 971 l 477 924 l 239 924 l 239 971 l 334 971 l 334 1024 l 240 1024 m 239 886 l 382 886 l 382 786 l 477 786 l 477 738 l 239 738 m 334 786 l 334 838 l 287 838 l 287 786 m 239 699 l 477 699 l 477 652 l 382 652 l 382 551 l 239 551 l 239 599 l 334 599 l 334 652 l 239 652 m 429 613 l 477 613 l 477 470 l 239 470 l 239 518 l 429 518 m 334 438 l 477 438 l 477 276 l 239 276 l 239 438 l 287 438 l 287 323 l 429 323 l 429 391 l 382 391 l 382 358 l 334 358 m 239 190 l 477 190 l 477 28 l 239 28 m 429 75 l 429 143 l 287 143 l 287 75 m 239 -4 l 477 -4 l 477 -52 l 431 -52 l 331 -119 l 477 -119 l 477 -167 l 239 -167 l 239 -119 l 340 -52 l 239 -52 "},"":{"ha":716,"x_min":0,"x_max":0,"o":"m 133 -265 l 133 1167 l 587 1167 l 587 -265 m 240 1024 l 334 1024 l 334 971 l 239 971 l 239 924 l 477 924 l 477 971 l 382 971 l 382 1024 l 477 1024 l 477 1071 l 240 1071 m 239 738 l 477 738 l 477 786 l 382 786 l 382 886 l 239 886 m 287 786 l 287 838 l 334 838 l 334 786 m 239 652 l 334 652 l 334 599 l 239 599 l 239 551 l 382 551 l 382 652 l 477 652 l 477 699 l 239 699 m 429 518 l 239 518 l 239 470 l 477 470 l 477 613 l 429 613 m 334 358 l 382 358 l 382 391 l 429 391 l 429 323 l 287 323 l 287 438 l 239 438 l 239 276 l 477 276 l 477 438 l 334 438 m 239 28 l 477 28 l 477 190 l 239 190 m 287 75 l 287 143 l 429 143 l 429 75 m 239 -52 l 340 -52 l 239 -119 l 239 -167 l 477 -167 l 477 -119 l 331 -119 l 431 -52 l 477 -52 l 477 -4 l 239 -4 "},"":{"ha":716,"x_min":0,"x_max":0,"o":"m 587 -265 l 587 1167 l 133 1167 l 133 -265 m 240 1071 l 477 1071 l 477 1024 l 382 1024 l 382 971 l 477 971 l 477 924 l 239 924 l 239 971 l 334 971 l 334 1024 l 240 1024 m 239 886 l 382 886 l 382 786 l 477 786 l 477 738 l 239 738 m 334 786 l 334 838 l 287 838 l 287 786 m 239 699 l 477 699 l 477 652 l 382 652 l 382 551 l 239 551 l 239 599 l 334 599 l 334 652 l 239 652 m 429 613 l 477 613 l 477 470 l 239 470 l 239 518 l 429 518 m 334 438 l 477 438 l 477 276 l 239 276 l 239 438 l 287 438 l 287 323 l 429 323 l 429 391 l 382 391 l 382 358 l 334 358 m 239 190 l 477 190 l 477 28 l 239 28 m 429 75 l 429 143 l 287 143 l 287 75 m 239 -4 l 477 -4 l 477 -52 l 431 -52 l 331 -119 l 477 -119 l 477 -167 l 239 -167 l 239 -119 l 340 -52 l 239 -52 "},"":{"ha":716,"x_min":0,"x_max":0,"o":"m 133 -265 l 133 1167 l 587 1167 l 587 -265 m 240 1024 l 334 1024 l 334 971 l 239 971 l 239 924 l 477 924 l 477 971 l 382 971 l 382 1024 l 477 1024 l 477 1071 l 240 1071 m 239 738 l 477 738 l 477 786 l 382 786 l 382 886 l 239 886 m 287 786 l 287 838 l 334 838 l 334 786 m 239 652 l 334 652 l 334 599 l 239 599 l 239 551 l 382 551 l 382 652 l 477 652 l 477 699 l 239 699 m 429 518 l 239 518 l 239 470 l 477 470 l 477 613 l 429 613 m 334 358 l 382 358 l 382 391 l 429 391 l 429 323 l 287 323 l 287 438 l 239 438 l 239 276 l 477 276 l 477 438 l 334 438 m 239 28 l 477 28 l 477 190 l 239 190 m 287 75 l 287 143 l 429 143 l 429 75 m 239 -52 l 340 -52 l 239 -119 l 239 -167 l 477 -167 l 477 -119 l 331 -119 l 431 -52 l 477 -52 l 477 -4 l 239 -4 "},"":{"ha":716,"x_min":0,"x_max":0,"o":"m 587 -265 l 587 1167 l 133 1167 l 133 -265 m 240 1071 l 477 1071 l 477 1024 l 382 1024 l 382 971 l 477 971 l 477 924 l 239 924 l 239 971 l 334 971 l 334 1024 l 240 1024 m 239 886 l 382 886 l 382 786 l 477 786 l 477 738 l 239 738 m 334 786 l 334 838 l 287 838 l 287 786 m 239 699 l 477 699 l 477 652 l 382 652 l 382 551 l 239 551 l 239 599 l 334 599 l 334 652 l 239 652 m 429 613 l 477 613 l 477 470 l 239 470 l 239 518 l 429 518 m 334 438 l 477 438 l 477 276 l 239 276 l 239 438 l 287 438 l 287 323 l 429 323 l 429 391 l 382 391 l 382 358 l 334 358 m 239 190 l 477 190 l 477 28 l 239 28 m 429 75 l 429 143 l 287 143 l 287 75 m 239 -4 l 477 -4 l 477 -52 l 431 -52 l 331 -119 l 477 -119 l 477 -167 l 239 -167 l 239 -119 l 340 -52 l 239 -52 "},"":{"ha":716,"x_min":0,"x_max":0,"o":"m 133 -265 l 133 1167 l 587 1167 l 587 -265 m 240 1024 l 334 1024 l 334 971 l 239 971 l 239 924 l 477 924 l 477 971 l 382 971 l 382 1024 l 477 1024 l 477 1071 l 240 1071 m 239 738 l 477 738 l 477 786 l 382 786 l 382 886 l 239 886 m 287 786 l 287 838 l 334 838 l 334 786 m 239 652 l 334 652 l 334 599 l 239 599 l 239 551 l 382 551 l 382 652 l 477 652 l 477 699 l 239 699 m 429 518 l 239 518 l 239 470 l 477 470 l 477 613 l 429 613 m 334 358 l 382 358 l 382 391 l 429 391 l 429 323 l 287 323 l 287 438 l 239 438 l 239 276 l 477 276 l 477 438 l 334 438 m 239 28 l 477 28 l 477 190 l 239 190 m 287 75 l 287 143 l 429 143 l 429 75 m 239 -52 l 340 -52 l 239 -119 l 239 -167 l 477 -167 l 477 -119 l 331 -119 l 431 -52 l 477 -52 l 477 -4 l 239 -4 "},"":{"ha":716,"x_min":0,"x_max":0,"o":"m 587 -265 l 587 1167 l 133 1167 l 133 -265 m 240 1071 l 477 1071 l 477 1024 l 382 1024 l 382 971 l 477 971 l 477 924 l 239 924 l 239 971 l 334 971 l 334 1024 l 240 1024 m 239 886 l 382 886 l 382 786 l 477 786 l 477 738 l 239 738 m 334 786 l 334 838 l 287 838 l 287 786 m 239 699 l 477 699 l 477 652 l 382 652 l 382 551 l 239 551 l 239 599 l 334 599 l 334 652 l 239 652 m 429 613 l 477 613 l 477 470 l 239 470 l 239 518 l 429 518 m 334 438 l 477 438 l 477 276 l 239 276 l 239 438 l 287 438 l 287 323 l 429 323 l 429 391 l 382 391 l 382 358 l 334 358 m 239 190 l 477 190 l 477 28 l 239 28 m 429 75 l 429 143 l 287 143 l 287 75 m 239 -4 l 477 -4 l 477 -52 l 431 -52 l 331 -119 l 477 -119 l 477 -167 l 239 -167 l 239 -119 l 340 -52 l 239 -52 "},"":{"ha":716,"x_min":0,"x_max":0,"o":"m 133 -265 l 133 1167 l 587 1167 l 587 -265 m 240 1024 l 334 1024 l 334 971 l 239 971 l 239 924 l 477 924 l 477 971 l 382 971 l 382 1024 l 477 1024 l 477 1071 l 240 1071 m 239 738 l 477 738 l 477 786 l 382 786 l 382 886 l 239 886 m 287 786 l 287 838 l 334 838 l 334 786 m 239 652 l 334 652 l 334 599 l 239 599 l 239 551 l 382 551 l 382 652 l 477 652 l 477 699 l 239 699 m 429 518 l 239 518 l 239 470 l 477 470 l 477 613 l 429 613 m 334 358 l 382 358 l 382 391 l 429 391 l 429 323 l 287 323 l 287 438 l 239 438 l 239 276 l 477 276 l 477 438 l 334 438 m 239 28 l 477 28 l 477 190 l 239 190 m 287 75 l 287 143 l 429 143 l 429 75 m 239 -52 l 340 -52 l 239 -119 l 239 -167 l 477 -167 l 477 -119 l 331 -119 l 431 -52 l 477 -52 l 477 -4 l 239 -4 "},"":{"ha":716,"x_min":0,"x_max":0,"o":"m 587 -265 l 587 1167 l 133 1167 l 133 -265 m 240 1071 l 477 1071 l 477 1024 l 382 1024 l 382 971 l 477 971 l 477 924 l 239 924 l 239 971 l 334 971 l 334 1024 l 240 1024 m 239 886 l 382 886 l 382 786 l 477 786 l 477 738 l 239 738 m 334 786 l 334 838 l 287 838 l 287 786 m 239 699 l 477 699 l 477 652 l 382 652 l 382 551 l 239 551 l 239 599 l 334 599 l 334 652 l 239 652 m 429 613 l 477 613 l 477 470 l 239 470 l 239 518 l 429 518 m 334 438 l 477 438 l 477 276 l 239 276 l 239 438 l 287 438 l 287 323 l 429 323 l 429 391 l 382 391 l 382 358 l 334 358 m 239 190 l 477 190 l 477 28 l 239 28 m 429 75 l 429 143 l 287 143 l 287 75 m 239 -4 l 477 -4 l 477 -52 l 431 -52 l 331 -119 l 477 -119 l 477 -167 l 239 -167 l 239 -119 l 340 -52 l 239 -52 "},"":{"ha":716,"x_min":0,"x_max":0,"o":"m 133 -265 l 133 1167 l 587 1167 l 587 -265 m 240 1024 l 334 1024 l 334 971 l 239 971 l 239 924 l 477 924 l 477 971 l 382 971 l 382 1024 l 477 1024 l 477 1071 l 240 1071 m 239 738 l 477 738 l 477 786 l 382 786 l 382 886 l 239 886 m 287 786 l 287 838 l 334 838 l 334 786 m 239 652 l 334 652 l 334 599 l 239 599 l 239 551 l 382 551 l 382 652 l 477 652 l 477 699 l 239 699 m 429 518 l 239 518 l 239 470 l 477 470 l 477 613 l 429 613 m 334 358 l 382 358 l 382 391 l 429 391 l 429 323 l 287 323 l 287 438 l 239 438 l 239 276 l 477 276 l 477 438 l 334 438 m 239 28 l 477 28 l 477 190 l 239 190 m 287 75 l 287 143 l 429 143 l 429 75 m 239 -52 l 340 -52 l 239 -119 l 239 -167 l 477 -167 l 477 -119 l 331 -119 l 431 -52 l 477 -52 l 477 -4 l 239 -4 "},"":{"ha":716,"x_min":0,"x_max":0,"o":"m 587 -265 l 587 1167 l 133 1167 l 133 -265 m 240 1071 l 477 1071 l 477 1024 l 382 1024 l 382 971 l 477 971 l 477 924 l 239 924 l 239 971 l 334 971 l 334 1024 l 240 1024 m 239 886 l 382 886 l 382 786 l 477 786 l 477 738 l 239 738 m 334 786 l 334 838 l 287 838 l 287 786 m 239 699 l 477 699 l 477 652 l 382 652 l 382 551 l 239 551 l 239 599 l 334 599 l 334 652 l 239 652 m 429 613 l 477 613 l 477 470 l 239 470 l 239 518 l 429 518 m 334 438 l 477 438 l 477 276 l 239 276 l 239 438 l 287 438 l 287 323 l 429 323 l 429 391 l 382 391 l 382 358 l 334 358 m 239 190 l 477 190 l 477 28 l 239 28 m 429 75 l 429 143 l 287 143 l 287 75 m 239 -4 l 477 -4 l 477 -52 l 431 -52 l 331 -119 l 477 -119 l 477 -167 l 239 -167 l 239 -119 l 340 -52 l 239 -52 "},"":{"ha":716,"x_min":0,"x_max":0,"o":"m 133 -265 l 133 1167 l 587 1167 l 587 -265 m 240 1024 l 334 1024 l 334 971 l 239 971 l 239 924 l 477 924 l 477 971 l 382 971 l 382 1024 l 477 1024 l 477 1071 l 240 1071 m 239 738 l 477 738 l 477 786 l 382 786 l 382 886 l 239 886 m 287 786 l 287 838 l 334 838 l 334 786 m 239 652 l 334 652 l 334 599 l 239 599 l 239 551 l 382 551 l 382 652 l 477 652 l 477 699 l 239 699 m 429 518 l 239 518 l 239 470 l 477 470 l 477 613 l 429 613 m 334 358 l 382 358 l 382 391 l 429 391 l 429 323 l 287 323 l 287 438 l 239 438 l 239 276 l 477 276 l 477 438 l 334 438 m 239 28 l 477 28 l 477 190 l 239 190 m 287 75 l 287 143 l 429 143 l 429 75 m 239 -52 l 340 -52 l 239 -119 l 239 -167 l 477 -167 l 477 -119 l 331 -119 l 431 -52 l 477 -52 l 477 -4 l 239 -4 "},"":{"ha":716,"x_min":0,"x_max":0,"o":"m 587 -265 l 587 1167 l 133 1167 l 133 -265 m 240 1071 l 477 1071 l 477 1024 l 382 1024 l 382 971 l 477 971 l 477 924 l 239 924 l 239 971 l 334 971 l 334 1024 l 240 1024 m 239 886 l 382 886 l 382 786 l 477 786 l 477 738 l 239 738 m 334 786 l 334 838 l 287 838 l 287 786 m 239 699 l 477 699 l 477 652 l 382 652 l 382 551 l 239 551 l 239 599 l 334 599 l 334 652 l 239 652 m 429 613 l 477 613 l 477 470 l 239 470 l 239 518 l 429 518 m 334 438 l 477 438 l 477 276 l 239 276 l 239 438 l 287 438 l 287 323 l 429 323 l 429 391 l 382 391 l 382 358 l 334 358 m 239 190 l 477 190 l 477 28 l 239 28 m 429 75 l 429 143 l 287 143 l 287 75 m 239 -4 l 477 -4 l 477 -52 l 431 -52 l 331 -119 l 477 -119 l 477 -167 l 239 -167 l 239 -119 l 340 -52 l 239 -52 "},"":{"ha":716,"x_min":0,"x_max":0,"o":"m 133 -265 l 133 1167 l 587 1167 l 587 -265 m 240 1024 l 334 1024 l 334 971 l 239 971 l 239 924 l 477 924 l 477 971 l 382 971 l 382 1024 l 477 1024 l 477 1071 l 240 1071 m 239 738 l 477 738 l 477 786 l 382 786 l 382 886 l 239 886 m 287 786 l 287 838 l 334 838 l 334 786 m 239 652 l 334 652 l 334 599 l 239 599 l 239 551 l 382 551 l 382 652 l 477 652 l 477 699 l 239 699 m 429 518 l 239 518 l 239 470 l 477 470 l 477 613 l 429 613 m 334 358 l 382 358 l 382 391 l 429 391 l 429 323 l 287 323 l 287 438 l 239 438 l 239 276 l 477 276 l 477 438 l 334 438 m 239 28 l 477 28 l 477 190 l 239 190 m 287 75 l 287 143 l 429 143 l 429 75 m 239 -52 l 340 -52 l 239 -119 l 239 -167 l 477 -167 l 477 -119 l 331 -119 l 431 -52 l 477 -52 l 477 -4 l 239 -4 "},"":{"ha":716,"x_min":0,"x_max":0,"o":"m 587 -265 l 587 1167 l 133 1167 l 133 -265 m 240 1071 l 477 1071 l 477 1024 l 382 1024 l 382 971 l 477 971 l 477 924 l 239 924 l 239 971 l 334 971 l 334 1024 l 240 1024 m 239 886 l 382 886 l 382 786 l 477 786 l 477 738 l 239 738 m 334 786 l 334 838 l 287 838 l 287 786 m 239 699 l 477 699 l 477 652 l 382 652 l 382 551 l 239 551 l 239 599 l 334 599 l 334 652 l 239 652 m 429 613 l 477 613 l 477 470 l 239 470 l 239 518 l 429 518 m 334 438 l 477 438 l 477 276 l 239 276 l 239 438 l 287 438 l 287 323 l 429 323 l 429 391 l 382 391 l 382 358 l 334 358 m 239 190 l 477 190 l 477 28 l 239 28 m 429 75 l 429 143 l 287 143 l 287 75 m 239 -4 l 477 -4 l 477 -52 l 431 -52 l 331 -119 l 477 -119 l 477 -167 l 239 -167 l 239 -119 l 340 -52 l 239 -52 "},"":{"ha":716,"x_min":0,"x_max":0,"o":"m 133 -265 l 133 1167 l 587 1167 l 587 -265 m 240 1024 l 334 1024 l 334 971 l 239 971 l 239 924 l 477 924 l 477 971 l 382 971 l 382 1024 l 477 1024 l 477 1071 l 240 1071 m 239 738 l 477 738 l 477 786 l 382 786 l 382 886 l 239 886 m 287 786 l 287 838 l 334 838 l 334 786 m 239 652 l 334 652 l 334 599 l 239 599 l 239 551 l 382 551 l 382 652 l 477 652 l 477 699 l 239 699 m 429 518 l 239 518 l 239 470 l 477 470 l 477 613 l 429 613 m 334 358 l 382 358 l 382 391 l 429 391 l 429 323 l 287 323 l 287 438 l 239 438 l 239 276 l 477 276 l 477 438 l 334 438 m 239 28 l 477 28 l 477 190 l 239 190 m 287 75 l 287 143 l 429 143 l 429 75 m 239 -52 l 340 -52 l 239 -119 l 239 -167 l 477 -167 l 477 -119 l 331 -119 l 431 -52 l 477 -52 l 477 -4 l 239 -4 "},"":{"ha":716,"x_min":0,"x_max":0,"o":"m 587 -265 l 587 1167 l 133 1167 l 133 -265 m 240 1071 l 477 1071 l 477 1024 l 382 1024 l 382 971 l 477 971 l 477 924 l 239 924 l 239 971 l 334 971 l 334 1024 l 240 1024 m 239 886 l 382 886 l 382 786 l 477 786 l 477 738 l 239 738 m 334 786 l 334 838 l 287 838 l 287 786 m 239 699 l 477 699 l 477 652 l 382 652 l 382 551 l 239 551 l 239 599 l 334 599 l 334 652 l 239 652 m 429 613 l 477 613 l 477 470 l 239 470 l 239 518 l 429 518 m 334 438 l 477 438 l 477 276 l 239 276 l 239 438 l 287 438 l 287 323 l 429 323 l 429 391 l 382 391 l 382 358 l 334 358 m 239 190 l 477 190 l 477 28 l 239 28 m 429 75 l 429 143 l 287 143 l 287 75 m 239 -4 l 477 -4 l 477 -52 l 431 -52 l 331 -119 l 477 -119 l 477 -167 l 239 -167 l 239 -119 l 340 -52 l 239 -52 "},"":{"ha":716,"x_min":0,"x_max":0,"o":"m 133 -265 l 133 1167 l 587 1167 l 587 -265 m 240 1024 l 334 1024 l 334 971 l 239 971 l 239 924 l 477 924 l 477 971 l 382 971 l 382 1024 l 477 1024 l 477 1071 l 240 1071 m 239 738 l 477 738 l 477 786 l 382 786 l 382 886 l 239 886 m 287 786 l 287 838 l 334 838 l 334 786 m 239 652 l 334 652 l 334 599 l 239 599 l 239 551 l 382 551 l 382 652 l 477 652 l 477 699 l 239 699 m 429 518 l 239 518 l 239 470 l 477 470 l 477 613 l 429 613 m 334 358 l 382 358 l 382 391 l 429 391 l 429 323 l 287 323 l 287 438 l 239 438 l 239 276 l 477 276 l 477 438 l 334 438 m 239 28 l 477 28 l 477 190 l 239 190 m 287 75 l 287 143 l 429 143 l 429 75 m 239 -52 l 340 -52 l 239 -119 l 239 -167 l 477 -167 l 477 -119 l 331 -119 l 431 -52 l 477 -52 l 477 -4 l 239 -4 "},"":{"ha":716,"x_min":0,"x_max":0,"o":"m 587 -265 l 587 1167 l 133 1167 l 133 -265 m 240 1071 l 477 1071 l 477 1024 l 382 1024 l 382 971 l 477 971 l 477 924 l 239 924 l 239 971 l 334 971 l 334 1024 l 240 1024 m 239 886 l 382 886 l 382 786 l 477 786 l 477 738 l 239 738 m 334 786 l 334 838 l 287 838 l 287 786 m 239 699 l 477 699 l 477 652 l 382 652 l 382 551 l 239 551 l 239 599 l 334 599 l 334 652 l 239 652 m 429 613 l 477 613 l 477 470 l 239 470 l 239 518 l 429 518 m 334 438 l 477 438 l 477 276 l 239 276 l 239 438 l 287 438 l 287 323 l 429 323 l 429 391 l 382 391 l 382 358 l 334 358 m 239 190 l 477 190 l 477 28 l 239 28 m 429 75 l 429 143 l 287 143 l 287 75 m 239 -4 l 477 -4 l 477 -52 l 431 -52 l 331 -119 l 477 -119 l 477 -167 l 239 -167 l 239 -119 l 340 -52 l 239 -52 "},"":{"ha":716,"x_min":0,"x_max":0,"o":"m 133 -265 l 133 1167 l 587 1167 l 587 -265 m 240 1024 l 334 1024 l 334 971 l 239 971 l 239 924 l 477 924 l 477 971 l 382 971 l 382 1024 l 477 1024 l 477 1071 l 240 1071 m 239 738 l 477 738 l 477 786 l 382 786 l 382 886 l 239 886 m 287 786 l 287 838 l 334 838 l 334 786 m 239 652 l 334 652 l 334 599 l 239 599 l 239 551 l 382 551 l 382 652 l 477 652 l 477 699 l 239 699 m 429 518 l 239 518 l 239 470 l 477 470 l 477 613 l 429 613 m 334 358 l 382 358 l 382 391 l 429 391 l 429 323 l 287 323 l 287 438 l 239 438 l 239 276 l 477 276 l 477 438 l 334 438 m 239 28 l 477 28 l 477 190 l 239 190 m 287 75 l 287 143 l 429 143 l 429 75 m 239 -52 l 340 -52 l 239 -119 l 239 -167 l 477 -167 l 477 -119 l 331 -119 l 431 -52 l 477 -52 l 477 -4 l 239 -4 "},"":{"ha":716,"x_min":0,"x_max":0,"o":"m 587 -265 l 587 1167 l 133 1167 l 133 -265 m 240 1071 l 477 1071 l 477 1024 l 382 1024 l 382 971 l 477 971 l 477 924 l 239 924 l 239 971 l 334 971 l 334 1024 l 240 1024 m 239 886 l 382 886 l 382 786 l 477 786 l 477 738 l 239 738 m 334 786 l 334 838 l 287 838 l 287 786 m 239 699 l 477 699 l 477 652 l 382 652 l 382 551 l 239 551 l 239 599 l 334 599 l 334 652 l 239 652 m 429 613 l 477 613 l 477 470 l 239 470 l 239 518 l 429 518 m 334 438 l 477 438 l 477 276 l 239 276 l 239 438 l 287 438 l 287 323 l 429 323 l 429 391 l 382 391 l 382 358 l 334 358 m 239 190 l 477 190 l 477 28 l 239 28 m 429 75 l 429 143 l 287 143 l 287 75 m 239 -4 l 477 -4 l 477 -52 l 431 -52 l 331 -119 l 477 -119 l 477 -167 l 239 -167 l 239 -119 l 340 -52 l 239 -52 "},"":{"ha":716,"x_min":0,"x_max":0,"o":"m 133 -265 l 133 1167 l 587 1167 l 587 -265 m 240 1024 l 334 1024 l 334 971 l 239 971 l 239 924 l 477 924 l 477 971 l 382 971 l 382 1024 l 477 1024 l 477 1071 l 240 1071 m 239 738 l 477 738 l 477 786 l 382 786 l 382 886 l 239 886 m 287 786 l 287 838 l 334 838 l 334 786 m 239 652 l 334 652 l 334 599 l 239 599 l 239 551 l 382 551 l 382 652 l 477 652 l 477 699 l 239 699 m 429 518 l 239 518 l 239 470 l 477 470 l 477 613 l 429 613 m 334 358 l 382 358 l 382 391 l 429 391 l 429 323 l 287 323 l 287 438 l 239 438 l 239 276 l 477 276 l 477 438 l 334 438 m 239 28 l 477 28 l 477 190 l 239 190 m 287 75 l 287 143 l 429 143 l 429 75 m 239 -52 l 340 -52 l 239 -119 l 239 -167 l 477 -167 l 477 -119 l 331 -119 l 431 -52 l 477 -52 l 477 -4 l 239 -4 "},"":{"ha":716,"x_min":0,"x_max":0,"o":"m 587 -265 l 587 1167 l 133 1167 l 133 -265 m 240 1071 l 477 1071 l 477 1024 l 382 1024 l 382 971 l 477 971 l 477 924 l 239 924 l 239 971 l 334 971 l 334 1024 l 240 1024 m 239 886 l 382 886 l 382 786 l 477 786 l 477 738 l 239 738 m 334 786 l 334 838 l 287 838 l 287 786 m 239 699 l 477 699 l 477 652 l 382 652 l 382 551 l 239 551 l 239 599 l 334 599 l 334 652 l 239 652 m 429 613 l 477 613 l 477 470 l 239 470 l 239 518 l 429 518 m 334 438 l 477 438 l 477 276 l 239 276 l 239 438 l 287 438 l 287 323 l 429 323 l 429 391 l 382 391 l 382 358 l 334 358 m 239 190 l 477 190 l 477 28 l 239 28 m 429 75 l 429 143 l 287 143 l 287 75 m 239 -4 l 477 -4 l 477 -52 l 431 -52 l 331 -119 l 477 -119 l 477 -167 l 239 -167 l 239 -119 l 340 -52 l 239 -52 "},"":{"ha":716,"x_min":0,"x_max":0,"o":"m 133 -265 l 133 1167 l 587 1167 l 587 -265 m 240 1024 l 334 1024 l 334 971 l 239 971 l 239 924 l 477 924 l 477 971 l 382 971 l 382 1024 l 477 1024 l 477 1071 l 240 1071 m 239 738 l 477 738 l 477 786 l 382 786 l 382 886 l 239 886 m 287 786 l 287 838 l 334 838 l 334 786 m 239 652 l 334 652 l 334 599 l 239 599 l 239 551 l 382 551 l 382 652 l 477 652 l 477 699 l 239 699 m 429 518 l 239 518 l 239 470 l 477 470 l 477 613 l 429 613 m 334 358 l 382 358 l 382 391 l 429 391 l 429 323 l 287 323 l 287 438 l 239 438 l 239 276 l 477 276 l 477 438 l 334 438 m 239 28 l 477 28 l 477 190 l 239 190 m 287 75 l 287 143 l 429 143 l 429 75 m 239 -52 l 340 -52 l 239 -119 l 239 -167 l 477 -167 l 477 -119 l 331 -119 l 431 -52 l 477 -52 l 477 -4 l 239 -4 "},"":{"ha":716,"x_min":0,"x_max":0,"o":"m 587 -265 l 587 1167 l 133 1167 l 133 -265 m 240 1071 l 477 1071 l 477 1024 l 382 1024 l 382 971 l 477 971 l 477 924 l 239 924 l 239 971 l 334 971 l 334 1024 l 240 1024 m 239 886 l 382 886 l 382 786 l 477 786 l 477 738 l 239 738 m 334 786 l 334 838 l 287 838 l 287 786 m 239 699 l 477 699 l 477 652 l 382 652 l 382 551 l 239 551 l 239 599 l 334 599 l 334 652 l 239 652 m 429 613 l 477 613 l 477 470 l 239 470 l 239 518 l 429 518 m 334 438 l 477 438 l 477 276 l 239 276 l 239 438 l 287 438 l 287 323 l 429 323 l 429 391 l 382 391 l 382 358 l 334 358 m 239 190 l 477 190 l 477 28 l 239 28 m 429 75 l 429 143 l 287 143 l 287 75 m 239 -4 l 477 -4 l 477 -52 l 431 -52 l 331 -119 l 477 -119 l 477 -167 l 239 -167 l 239 -119 l 340 -52 l 239 -52 "},"":{"ha":716,"x_min":0,"x_max":0,"o":"m 133 -265 l 133 1167 l 587 1167 l 587 -265 m 240 1024 l 334 1024 l 334 971 l 239 971 l 239 924 l 477 924 l 477 971 l 382 971 l 382 1024 l 477 1024 l 477 1071 l 240 1071 m 239 738 l 477 738 l 477 786 l 382 786 l 382 886 l 239 886 m 287 786 l 287 838 l 334 838 l 334 786 m 239 652 l 334 652 l 334 599 l 239 599 l 239 551 l 382 551 l 382 652 l 477 652 l 477 699 l 239 699 m 429 518 l 239 518 l 239 470 l 477 470 l 477 613 l 429 613 m 334 358 l 382 358 l 382 391 l 429 391 l 429 323 l 287 323 l 287 438 l 239 438 l 239 276 l 477 276 l 477 438 l 334 438 m 239 28 l 477 28 l 477 190 l 239 190 m 287 75 l 287 143 l 429 143 l 429 75 m 239 -52 l 340 -52 l 239 -119 l 239 -167 l 477 -167 l 477 -119 l 331 -119 l 431 -52 l 477 -52 l 477 -4 l 239 -4 "},"":{"ha":716,"x_min":0,"x_max":0,"o":"m 587 -265 l 587 1167 l 133 1167 l 133 -265 m 240 1071 l 477 1071 l 477 1024 l 382 1024 l 382 971 l 477 971 l 477 924 l 239 924 l 239 971 l 334 971 l 334 1024 l 240 1024 m 239 886 l 382 886 l 382 786 l 477 786 l 477 738 l 239 738 m 334 786 l 334 838 l 287 838 l 287 786 m 239 699 l 477 699 l 477 652 l 382 652 l 382 551 l 239 551 l 239 599 l 334 599 l 334 652 l 239 652 m 429 613 l 477 613 l 477 470 l 239 470 l 239 518 l 429 518 m 334 438 l 477 438 l 477 276 l 239 276 l 239 438 l 287 438 l 287 323 l 429 323 l 429 391 l 382 391 l 382 358 l 334 358 m 239 190 l 477 190 l 477 28 l 239 28 m 429 75 l 429 143 l 287 143 l 287 75 m 239 -4 l 477 -4 l 477 -52 l 431 -52 l 331 -119 l 477 -119 l 477 -167 l 239 -167 l 239 -119 l 340 -52 l 239 -52 "},"":{"ha":716,"x_min":0,"x_max":0,"o":"m 133 -265 l 133 1167 l 587 1167 l 587 -265 m 240 1024 l 334 1024 l 334 971 l 239 971 l 239 924 l 477 924 l 477 971 l 382 971 l 382 1024 l 477 1024 l 477 1071 l 240 1071 m 239 738 l 477 738 l 477 786 l 382 786 l 382 886 l 239 886 m 287 786 l 287 838 l 334 838 l 334 786 m 239 652 l 334 652 l 334 599 l 239 599 l 239 551 l 382 551 l 382 652 l 477 652 l 477 699 l 239 699 m 429 518 l 239 518 l 239 470 l 477 470 l 477 613 l 429 613 m 334 358 l 382 358 l 382 391 l 429 391 l 429 323 l 287 323 l 287 438 l 239 438 l 239 276 l 477 276 l 477 438 l 334 438 m 239 28 l 477 28 l 477 190 l 239 190 m 287 75 l 287 143 l 429 143 l 429 75 m 239 -52 l 340 -52 l 239 -119 l 239 -167 l 477 -167 l 477 -119 l 331 -119 l 431 -52 l 477 -52 l 477 -4 l 239 -4 "},"":{"ha":716,"x_min":0,"x_max":0,"o":"m 587 -265 l 587 1167 l 133 1167 l 133 -265 m 240 1071 l 477 1071 l 477 1024 l 382 1024 l 382 971 l 477 971 l 477 924 l 239 924 l 239 971 l 334 971 l 334 1024 l 240 1024 m 239 886 l 382 886 l 382 786 l 477 786 l 477 738 l 239 738 m 334 786 l 334 838 l 287 838 l 287 786 m 239 699 l 477 699 l 477 652 l 382 652 l 382 551 l 239 551 l 239 599 l 334 599 l 334 652 l 239 652 m 429 613 l 477 613 l 477 470 l 239 470 l 239 518 l 429 518 m 334 438 l 477 438 l 477 276 l 239 276 l 239 438 l 287 438 l 287 323 l 429 323 l 429 391 l 382 391 l 382 358 l 334 358 m 239 190 l 477 190 l 477 28 l 239 28 m 429 75 l 429 143 l 287 143 l 287 75 m 239 -4 l 477 -4 l 477 -52 l 431 -52 l 331 -119 l 477 -119 l 477 -167 l 239 -167 l 239 -119 l 340 -52 l 239 -52 "},"":{"ha":716,"x_min":0,"x_max":0,"o":"m 133 -265 l 133 1167 l 587 1167 l 587 -265 m 240 1024 l 334 1024 l 334 971 l 239 971 l 239 924 l 477 924 l 477 971 l 382 971 l 382 1024 l 477 1024 l 477 1071 l 240 1071 m 239 738 l 477 738 l 477 786 l 382 786 l 382 886 l 239 886 m 287 786 l 287 838 l 334 838 l 334 786 m 239 652 l 334 652 l 334 599 l 239 599 l 239 551 l 382 551 l 382 652 l 477 652 l 477 699 l 239 699 m 429 518 l 239 518 l 239 470 l 477 470 l 477 613 l 429 613 m 334 358 l 382 358 l 382 391 l 429 391 l 429 323 l 287 323 l 287 438 l 239 438 l 239 276 l 477 276 l 477 438 l 334 438 m 239 28 l 477 28 l 477 190 l 239 190 m 287 75 l 287 143 l 429 143 l 429 75 m 239 -52 l 340 -52 l 239 -119 l 239 -167 l 477 -167 l 477 -119 l 331 -119 l 431 -52 l 477 -52 l 477 -4 l 239 -4 "},"":{"ha":716,"x_min":0,"x_max":0,"o":"m 587 -265 l 587 1167 l 133 1167 l 133 -265 m 240 1071 l 477 1071 l 477 1024 l 382 1024 l 382 971 l 477 971 l 477 924 l 239 924 l 239 971 l 334 971 l 334 1024 l 240 1024 m 239 886 l 382 886 l 382 786 l 477 786 l 477 738 l 239 738 m 334 786 l 334 838 l 287 838 l 287 786 m 239 699 l 477 699 l 477 652 l 382 652 l 382 551 l 239 551 l 239 599 l 334 599 l 334 652 l 239 652 m 429 613 l 477 613 l 477 470 l 239 470 l 239 518 l 429 518 m 334 438 l 477 438 l 477 276 l 239 276 l 239 438 l 287 438 l 287 323 l 429 323 l 429 391 l 382 391 l 382 358 l 334 358 m 239 190 l 477 190 l 477 28 l 239 28 m 429 75 l 429 143 l 287 143 l 287 75 m 239 -4 l 477 -4 l 477 -52 l 431 -52 l 331 -119 l 477 -119 l 477 -167 l 239 -167 l 239 -119 l 340 -52 l 239 -52 "},"":{"ha":716,"x_min":0,"x_max":0,"o":"m 133 -265 l 133 1167 l 587 1167 l 587 -265 m 240 1024 l 334 1024 l 334 971 l 239 971 l 239 924 l 477 924 l 477 971 l 382 971 l 382 1024 l 477 1024 l 477 1071 l 240 1071 m 239 738 l 477 738 l 477 786 l 382 786 l 382 886 l 239 886 m 287 786 l 287 838 l 334 838 l 334 786 m 239 652 l 334 652 l 334 599 l 239 599 l 239 551 l 382 551 l 382 652 l 477 652 l 477 699 l 239 699 m 429 518 l 239 518 l 239 470 l 477 470 l 477 613 l 429 613 m 334 358 l 382 358 l 382 391 l 429 391 l 429 323 l 287 323 l 287 438 l 239 438 l 239 276 l 477 276 l 477 438 l 334 438 m 239 28 l 477 28 l 477 190 l 239 190 m 287 75 l 287 143 l 429 143 l 429 75 m 239 -52 l 340 -52 l 239 -119 l 239 -167 l 477 -167 l 477 -119 l 331 -119 l 431 -52 l 477 -52 l 477 -4 l 239 -4 "},"":{"ha":716,"x_min":0,"x_max":0,"o":"m 587 -265 l 587 1167 l 133 1167 l 133 -265 m 240 1071 l 477 1071 l 477 1024 l 382 1024 l 382 971 l 477 971 l 477 924 l 239 924 l 239 971 l 334 971 l 334 1024 l 240 1024 m 239 886 l 382 886 l 382 786 l 477 786 l 477 738 l 239 738 m 334 786 l 334 838 l 287 838 l 287 786 m 239 699 l 477 699 l 477 652 l 382 652 l 382 551 l 239 551 l 239 599 l 334 599 l 334 652 l 239 652 m 429 613 l 477 613 l 477 470 l 239 470 l 239 518 l 429 518 m 334 438 l 477 438 l 477 276 l 239 276 l 239 438 l 287 438 l 287 323 l 429 323 l 429 391 l 382 391 l 382 358 l 334 358 m 239 190 l 477 190 l 477 28 l 239 28 m 429 75 l 429 143 l 287 143 l 287 75 m 239 -4 l 477 -4 l 477 -52 l 431 -52 l 331 -119 l 477 -119 l 477 -167 l 239 -167 l 239 -119 l 340 -52 l 239 -52 "},"":{"ha":716,"x_min":0,"x_max":0,"o":"m 133 -265 l 133 1167 l 587 1167 l 587 -265 m 240 1024 l 334 1024 l 334 971 l 239 971 l 239 924 l 477 924 l 477 971 l 382 971 l 382 1024 l 477 1024 l 477 1071 l 240 1071 m 239 738 l 477 738 l 477 786 l 382 786 l 382 886 l 239 886 m 287 786 l 287 838 l 334 838 l 334 786 m 239 652 l 334 652 l 334 599 l 239 599 l 239 551 l 382 551 l 382 652 l 477 652 l 477 699 l 239 699 m 429 518 l 239 518 l 239 470 l 477 470 l 477 613 l 429 613 m 334 358 l 382 358 l 382 391 l 429 391 l 429 323 l 287 323 l 287 438 l 239 438 l 239 276 l 477 276 l 477 438 l 334 438 m 239 28 l 477 28 l 477 190 l 239 190 m 287 75 l 287 143 l 429 143 l 429 75 m 239 -52 l 340 -52 l 239 -119 l 239 -167 l 477 -167 l 477 -119 l 331 -119 l 431 -52 l 477 -52 l 477 -4 l 239 -4 "},"":{"ha":716,"x_min":0,"x_max":0,"o":"m 587 -265 l 587 1167 l 133 1167 l 133 -265 m 240 1071 l 477 1071 l 477 1024 l 382 1024 l 382 971 l 477 971 l 477 924 l 239 924 l 239 971 l 334 971 l 334 1024 l 240 1024 m 239 886 l 382 886 l 382 786 l 477 786 l 477 738 l 239 738 m 334 786 l 334 838 l 287 838 l 287 786 m 239 699 l 477 699 l 477 652 l 382 652 l 382 551 l 239 551 l 239 599 l 334 599 l 334 652 l 239 652 m 429 613 l 477 613 l 477 470 l 239 470 l 239 518 l 429 518 m 334 438 l 477 438 l 477 276 l 239 276 l 239 438 l 287 438 l 287 323 l 429 323 l 429 391 l 382 391 l 382 358 l 334 358 m 239 190 l 477 190 l 477 28 l 239 28 m 429 75 l 429 143 l 287 143 l 287 75 m 239 -4 l 477 -4 l 477 -52 l 431 -52 l 331 -119 l 477 -119 l 477 -167 l 239 -167 l 239 -119 l 340 -52 l 239 -52 "},"":{"ha":716,"x_min":0,"x_max":0,"o":"m 133 -265 l 133 1167 l 587 1167 l 587 -265 m 240 1024 l 334 1024 l 334 971 l 239 971 l 239 924 l 477 924 l 477 971 l 382 971 l 382 1024 l 477 1024 l 477 1071 l 240 1071 m 239 738 l 477 738 l 477 786 l 382 786 l 382 886 l 239 886 m 287 786 l 287 838 l 334 838 l 334 786 m 239 652 l 334 652 l 334 599 l 239 599 l 239 551 l 382 551 l 382 652 l 477 652 l 477 699 l 239 699 m 429 518 l 239 518 l 239 470 l 477 470 l 477 613 l 429 613 m 334 358 l 382 358 l 382 391 l 429 391 l 429 323 l 287 323 l 287 438 l 239 438 l 239 276 l 477 276 l 477 438 l 334 438 m 239 28 l 477 28 l 477 190 l 239 190 m 287 75 l 287 143 l 429 143 l 429 75 m 239 -52 l 340 -52 l 239 -119 l 239 -167 l 477 -167 l 477 -119 l 331 -119 l 431 -52 l 477 -52 l 477 -4 l 239 -4 "},"":{"ha":716,"x_min":0,"x_max":0,"o":"m 587 -265 l 587 1167 l 133 1167 l 133 -265 m 240 1071 l 477 1071 l 477 1024 l 382 1024 l 382 971 l 477 971 l 477 924 l 239 924 l 239 971 l 334 971 l 334 1024 l 240 1024 m 239 886 l 382 886 l 382 786 l 477 786 l 477 738 l 239 738 m 334 786 l 334 838 l 287 838 l 287 786 m 239 699 l 477 699 l 477 652 l 382 652 l 382 551 l 239 551 l 239 599 l 334 599 l 334 652 l 239 652 m 429 613 l 477 613 l 477 470 l 239 470 l 239 518 l 429 518 m 334 438 l 477 438 l 477 276 l 239 276 l 239 438 l 287 438 l 287 323 l 429 323 l 429 391 l 382 391 l 382 358 l 334 358 m 239 190 l 477 190 l 477 28 l 239 28 m 429 75 l 429 143 l 287 143 l 287 75 m 239 -4 l 477 -4 l 477 -52 l 431 -52 l 331 -119 l 477 -119 l 477 -167 l 239 -167 l 239 -119 l 340 -52 l 239 -52 "},"":{"ha":716,"x_min":0,"x_max":0,"o":"m 133 -265 l 133 1167 l 587 1167 l 587 -265 m 240 1024 l 334 1024 l 334 971 l 239 971 l 239 924 l 477 924 l 477 971 l 382 971 l 382 1024 l 477 1024 l 477 1071 l 240 1071 m 239 738 l 477 738 l 477 786 l 382 786 l 382 886 l 239 886 m 287 786 l 287 838 l 334 838 l 334 786 m 239 652 l 334 652 l 334 599 l 239 599 l 239 551 l 382 551 l 382 652 l 477 652 l 477 699 l 239 699 m 429 518 l 239 518 l 239 470 l 477 470 l 477 613 l 429 613 m 334 358 l 382 358 l 382 391 l 429 391 l 429 323 l 287 323 l 287 438 l 239 438 l 239 276 l 477 276 l 477 438 l 334 438 m 239 28 l 477 28 l 477 190 l 239 190 m 287 75 l 287 143 l 429 143 l 429 75 m 239 -52 l 340 -52 l 239 -119 l 239 -167 l 477 -167 l 477 -119 l 331 -119 l 431 -52 l 477 -52 l 477 -4 l 239 -4 "},"":{"ha":716,"x_min":0,"x_max":0,"o":"m 587 -265 l 587 1167 l 133 1167 l 133 -265 m 240 1071 l 477 1071 l 477 1024 l 382 1024 l 382 971 l 477 971 l 477 924 l 239 924 l 239 971 l 334 971 l 334 1024 l 240 1024 m 239 886 l 382 886 l 382 786 l 477 786 l 477 738 l 239 738 m 334 786 l 334 838 l 287 838 l 287 786 m 239 699 l 477 699 l 477 652 l 382 652 l 382 551 l 239 551 l 239 599 l 334 599 l 334 652 l 239 652 m 429 613 l 477 613 l 477 470 l 239 470 l 239 518 l 429 518 m 334 438 l 477 438 l 477 276 l 239 276 l 239 438 l 287 438 l 287 323 l 429 323 l 429 391 l 382 391 l 382 358 l 334 358 m 239 190 l 477 190 l 477 28 l 239 28 m 429 75 l 429 143 l 287 143 l 287 75 m 239 -4 l 477 -4 l 477 -52 l 431 -52 l 331 -119 l 477 -119 l 477 -167 l 239 -167 l 239 -119 l 340 -52 l 239 -52 "},"":{"ha":716,"x_min":0,"x_max":0,"o":"m 133 -265 l 133 1167 l 587 1167 l 587 -265 m 240 1024 l 334 1024 l 334 971 l 239 971 l 239 924 l 477 924 l 477 971 l 382 971 l 382 1024 l 477 1024 l 477 1071 l 240 1071 m 239 738 l 477 738 l 477 786 l 382 786 l 382 886 l 239 886 m 287 786 l 287 838 l 334 838 l 334 786 m 239 652 l 334 652 l 334 599 l 239 599 l 239 551 l 382 551 l 382 652 l 477 652 l 477 699 l 239 699 m 429 518 l 239 518 l 239 470 l 477 470 l 477 613 l 429 613 m 334 358 l 382 358 l 382 391 l 429 391 l 429 323 l 287 323 l 287 438 l 239 438 l 239 276 l 477 276 l 477 438 l 334 438 m 239 28 l 477 28 l 477 190 l 239 190 m 287 75 l 287 143 l 429 143 l 429 75 m 239 -52 l 340 -52 l 239 -119 l 239 -167 l 477 -167 l 477 -119 l 331 -119 l 431 -52 l 477 -52 l 477 -4 l 239 -4 "},"":{"ha":716,"x_min":0,"x_max":0,"o":"m 587 -265 l 587 1167 l 133 1167 l 133 -265 m 240 1071 l 477 1071 l 477 1024 l 382 1024 l 382 971 l 477 971 l 477 924 l 239 924 l 239 971 l 334 971 l 334 1024 l 240 1024 m 239 886 l 382 886 l 382 786 l 477 786 l 477 738 l 239 738 m 334 786 l 334 838 l 287 838 l 287 786 m 239 699 l 477 699 l 477 652 l 382 652 l 382 551 l 239 551 l 239 599 l 334 599 l 334 652 l 239 652 m 429 613 l 477 613 l 477 470 l 239 470 l 239 518 l 429 518 m 334 438 l 477 438 l 477 276 l 239 276 l 239 438 l 287 438 l 287 323 l 429 323 l 429 391 l 382 391 l 382 358 l 334 358 m 239 190 l 477 190 l 477 28 l 239 28 m 429 75 l 429 143 l 287 143 l 287 75 m 239 -4 l 477 -4 l 477 -52 l 431 -52 l 331 -119 l 477 -119 l 477 -167 l 239 -167 l 239 -119 l 340 -52 l 239 -52 "},"":{"ha":716,"x_min":0,"x_max":0,"o":"m 133 -265 l 133 1167 l 587 1167 l 587 -265 m 240 1024 l 334 1024 l 334 971 l 239 971 l 239 924 l 477 924 l 477 971 l 382 971 l 382 1024 l 477 1024 l 477 1071 l 240 1071 m 239 738 l 477 738 l 477 786 l 382 786 l 382 886 l 239 886 m 287 786 l 287 838 l 334 838 l 334 786 m 239 652 l 334 652 l 334 599 l 239 599 l 239 551 l 382 551 l 382 652 l 477 652 l 477 699 l 239 699 m 429 518 l 239 518 l 239 470 l 477 470 l 477 613 l 429 613 m 334 358 l 382 358 l 382 391 l 429 391 l 429 323 l 287 323 l 287 438 l 239 438 l 239 276 l 477 276 l 477 438 l 334 438 m 239 28 l 477 28 l 477 190 l 239 190 m 287 75 l 287 143 l 429 143 l 429 75 m 239 -52 l 340 -52 l 239 -119 l 239 -167 l 477 -167 l 477 -119 l 331 -119 l 431 -52 l 477 -52 l 477 -4 l 239 -4 "},"":{"ha":716,"x_min":0,"x_max":0,"o":"m 587 -265 l 587 1167 l 133 1167 l 133 -265 m 240 1071 l 477 1071 l 477 1024 l 382 1024 l 382 971 l 477 971 l 477 924 l 239 924 l 239 971 l 334 971 l 334 1024 l 240 1024 m 239 886 l 382 886 l 382 786 l 477 786 l 477 738 l 239 738 m 334 786 l 334 838 l 287 838 l 287 786 m 239 699 l 477 699 l 477 652 l 382 652 l 382 551 l 239 551 l 239 599 l 334 599 l 334 652 l 239 652 m 429 613 l 477 613 l 477 470 l 239 470 l 239 518 l 429 518 m 334 438 l 477 438 l 477 276 l 239 276 l 239 438 l 287 438 l 287 323 l 429 323 l 429 391 l 382 391 l 382 358 l 334 358 m 239 190 l 477 190 l 477 28 l 239 28 m 429 75 l 429 143 l 287 143 l 287 75 m 239 -4 l 477 -4 l 477 -52 l 431 -52 l 331 -119 l 477 -119 l 477 -167 l 239 -167 l 239 -119 l 340 -52 l 239 -52 "},"":{"ha":716,"x_min":0,"x_max":0,"o":"m 133 -265 l 133 1167 l 587 1167 l 587 -265 m 240 1024 l 334 1024 l 334 971 l 239 971 l 239 924 l 477 924 l 477 971 l 382 971 l 382 1024 l 477 1024 l 477 1071 l 240 1071 m 239 738 l 477 738 l 477 786 l 382 786 l 382 886 l 239 886 m 287 786 l 287 838 l 334 838 l 334 786 m 239 652 l 334 652 l 334 599 l 239 599 l 239 551 l 382 551 l 382 652 l 477 652 l 477 699 l 239 699 m 429 518 l 239 518 l 239 470 l 477 470 l 477 613 l 429 613 m 334 358 l 382 358 l 382 391 l 429 391 l 429 323 l 287 323 l 287 438 l 239 438 l 239 276 l 477 276 l 477 438 l 334 438 m 239 28 l 477 28 l 477 190 l 239 190 m 287 75 l 287 143 l 429 143 l 429 75 m 239 -52 l 340 -52 l 239 -119 l 239 -167 l 477 -167 l 477 -119 l 331 -119 l 431 -52 l 477 -52 l 477 -4 l 239 -4 "},"":{"ha":716,"x_min":0,"x_max":0,"o":"m 587 -265 l 587 1167 l 133 1167 l 133 -265 m 240 1071 l 477 1071 l 477 1024 l 382 1024 l 382 971 l 477 971 l 477 924 l 239 924 l 239 971 l 334 971 l 334 1024 l 240 1024 m 239 886 l 382 886 l 382 786 l 477 786 l 477 738 l 239 738 m 334 786 l 334 838 l 287 838 l 287 786 m 239 699 l 477 699 l 477 652 l 382 652 l 382 551 l 239 551 l 239 599 l 334 599 l 334 652 l 239 652 m 429 613 l 477 613 l 477 470 l 239 470 l 239 518 l 429 518 m 334 438 l 477 438 l 477 276 l 239 276 l 239 438 l 287 438 l 287 323 l 429 323 l 429 391 l 382 391 l 382 358 l 334 358 m 239 190 l 477 190 l 477 28 l 239 28 m 429 75 l 429 143 l 287 143 l 287 75 m 239 -4 l 477 -4 l 477 -52 l 431 -52 l 331 -119 l 477 -119 l 477 -167 l 239 -167 l 239 -119 l 340 -52 l 239 -52 "},"":{"ha":716,"x_min":0,"x_max":0,"o":"m 133 -265 l 133 1167 l 587 1167 l 587 -265 m 240 1024 l 334 1024 l 334 971 l 239 971 l 239 924 l 477 924 l 477 971 l 382 971 l 382 1024 l 477 1024 l 477 1071 l 240 1071 m 239 738 l 477 738 l 477 786 l 382 786 l 382 886 l 239 886 m 287 786 l 287 838 l 334 838 l 334 786 m 239 652 l 334 652 l 334 599 l 239 599 l 239 551 l 382 551 l 382 652 l 477 652 l 477 699 l 239 699 m 429 518 l 239 518 l 239 470 l 477 470 l 477 613 l 429 613 m 334 358 l 382 358 l 382 391 l 429 391 l 429 323 l 287 323 l 287 438 l 239 438 l 239 276 l 477 276 l 477 438 l 334 438 m 239 28 l 477 28 l 477 190 l 239 190 m 287 75 l 287 143 l 429 143 l 429 75 m 239 -52 l 340 -52 l 239 -119 l 239 -167 l 477 -167 l 477 -119 l 331 -119 l 431 -52 l 477 -52 l 477 -4 l 239 -4 "},"":{"ha":716,"x_min":0,"x_max":0,"o":"m 587 -265 l 587 1167 l 133 1167 l 133 -265 m 240 1071 l 477 1071 l 477 1024 l 382 1024 l 382 971 l 477 971 l 477 924 l 239 924 l 239 971 l 334 971 l 334 1024 l 240 1024 m 239 886 l 382 886 l 382 786 l 477 786 l 477 738 l 239 738 m 334 786 l 334 838 l 287 838 l 287 786 m 239 699 l 477 699 l 477 652 l 382 652 l 382 551 l 239 551 l 239 599 l 334 599 l 334 652 l 239 652 m 429 613 l 477 613 l 477 470 l 239 470 l 239 518 l 429 518 m 334 438 l 477 438 l 477 276 l 239 276 l 239 438 l 287 438 l 287 323 l 429 323 l 429 391 l 382 391 l 382 358 l 334 358 m 239 190 l 477 190 l 477 28 l 239 28 m 429 75 l 429 143 l 287 143 l 287 75 m 239 -4 l 477 -4 l 477 -52 l 431 -52 l 331 -119 l 477 -119 l 477 -167 l 239 -167 l 239 -119 l 340 -52 l 239 -52 "},"":{"ha":716,"x_min":0,"x_max":0,"o":"m 133 -265 l 133 1167 l 587 1167 l 587 -265 m 240 1024 l 334 1024 l 334 971 l 239 971 l 239 924 l 477 924 l 477 971 l 382 971 l 382 1024 l 477 1024 l 477 1071 l 240 1071 m 239 738 l 477 738 l 477 786 l 382 786 l 382 886 l 239 886 m 287 786 l 287 838 l 334 838 l 334 786 m 239 652 l 334 652 l 334 599 l 239 599 l 239 551 l 382 551 l 382 652 l 477 652 l 477 699 l 239 699 m 429 518 l 239 518 l 239 470 l 477 470 l 477 613 l 429 613 m 334 358 l 382 358 l 382 391 l 429 391 l 429 323 l 287 323 l 287 438 l 239 438 l 239 276 l 477 276 l 477 438 l 334 438 m 239 28 l 477 28 l 477 190 l 239 190 m 287 75 l 287 143 l 429 143 l 429 75 m 239 -52 l 340 -52 l 239 -119 l 239 -167 l 477 -167 l 477 -119 l 331 -119 l 431 -52 l 477 -52 l 477 -4 l 239 -4 "},"":{"ha":716,"x_min":0,"x_max":0,"o":"m 587 -265 l 587 1167 l 133 1167 l 133 -265 m 240 1071 l 477 1071 l 477 1024 l 382 1024 l 382 971 l 477 971 l 477 924 l 239 924 l 239 971 l 334 971 l 334 1024 l 240 1024 m 239 886 l 382 886 l 382 786 l 477 786 l 477 738 l 239 738 m 334 786 l 334 838 l 287 838 l 287 786 m 239 699 l 477 699 l 477 652 l 382 652 l 382 551 l 239 551 l 239 599 l 334 599 l 334 652 l 239 652 m 429 613 l 477 613 l 477 470 l 239 470 l 239 518 l 429 518 m 334 438 l 477 438 l 477 276 l 239 276 l 239 438 l 287 438 l 287 323 l 429 323 l 429 391 l 382 391 l 382 358 l 334 358 m 239 190 l 477 190 l 477 28 l 239 28 m 429 75 l 429 143 l 287 143 l 287 75 m 239 -4 l 477 -4 l 477 -52 l 431 -52 l 331 -119 l 477 -119 l 477 -167 l 239 -167 l 239 -119 l 340 -52 l 239 -52 "},"":{"ha":716,"x_min":0,"x_max":0,"o":"m 133 -265 l 133 1167 l 587 1167 l 587 -265 m 240 1024 l 334 1024 l 334 971 l 239 971 l 239 924 l 477 924 l 477 971 l 382 971 l 382 1024 l 477 1024 l 477 1071 l 240 1071 m 239 738 l 477 738 l 477 786 l 382 786 l 382 886 l 239 886 m 287 786 l 287 838 l 334 838 l 334 786 m 239 652 l 334 652 l 334 599 l 239 599 l 239 551 l 382 551 l 382 652 l 477 652 l 477 699 l 239 699 m 429 518 l 239 518 l 239 470 l 477 470 l 477 613 l 429 613 m 334 358 l 382 358 l 382 391 l 429 391 l 429 323 l 287 323 l 287 438 l 239 438 l 239 276 l 477 276 l 477 438 l 334 438 m 239 28 l 477 28 l 477 190 l 239 190 m 287 75 l 287 143 l 429 143 l 429 75 m 239 -52 l 340 -52 l 239 -119 l 239 -167 l 477 -167 l 477 -119 l 331 -119 l 431 -52 l 477 -52 l 477 -4 l 239 -4 "},"":{"ha":716,"x_min":0,"x_max":0,"o":"m 587 -265 l 587 1167 l 133 1167 l 133 -265 m 240 1071 l 477 1071 l 477 1024 l 382 1024 l 382 971 l 477 971 l 477 924 l 239 924 l 239 971 l 334 971 l 334 1024 l 240 1024 m 239 886 l 382 886 l 382 786 l 477 786 l 477 738 l 239 738 m 334 786 l 334 838 l 287 838 l 287 786 m 239 699 l 477 699 l 477 652 l 382 652 l 382 551 l 239 551 l 239 599 l 334 599 l 334 652 l 239 652 m 429 613 l 477 613 l 477 470 l 239 470 l 239 518 l 429 518 m 334 438 l 477 438 l 477 276 l 239 276 l 239 438 l 287 438 l 287 323 l 429 323 l 429 391 l 382 391 l 382 358 l 334 358 m 239 190 l 477 190 l 477 28 l 239 28 m 429 75 l 429 143 l 287 143 l 287 75 m 239 -4 l 477 -4 l 477 -52 l 431 -52 l 331 -119 l 477 -119 l 477 -167 l 239 -167 l 239 -119 l 340 -52 l 239 -52 "},"":{"ha":716,"x_min":0,"x_max":0,"o":"m 133 -265 l 133 1167 l 587 1167 l 587 -265 m 240 1024 l 334 1024 l 334 971 l 239 971 l 239 924 l 477 924 l 477 971 l 382 971 l 382 1024 l 477 1024 l 477 1071 l 240 1071 m 239 738 l 477 738 l 477 786 l 382 786 l 382 886 l 239 886 m 287 786 l 287 838 l 334 838 l 334 786 m 239 652 l 334 652 l 334 599 l 239 599 l 239 551 l 382 551 l 382 652 l 477 652 l 477 699 l 239 699 m 429 518 l 239 518 l 239 470 l 477 470 l 477 613 l 429 613 m 334 358 l 382 358 l 382 391 l 429 391 l 429 323 l 287 323 l 287 438 l 239 438 l 239 276 l 477 276 l 477 438 l 334 438 m 239 28 l 477 28 l 477 190 l 239 190 m 287 75 l 287 143 l 429 143 l 429 75 m 239 -52 l 340 -52 l 239 -119 l 239 -167 l 477 -167 l 477 -119 l 331 -119 l 431 -52 l 477 -52 l 477 -4 l 239 -4 "},"":{"ha":716,"x_min":0,"x_max":0,"o":"m 587 -265 l 587 1167 l 133 1167 l 133 -265 m 240 1071 l 477 1071 l 477 1024 l 382 1024 l 382 971 l 477 971 l 477 924 l 239 924 l 239 971 l 334 971 l 334 1024 l 240 1024 m 239 886 l 382 886 l 382 786 l 477 786 l 477 738 l 239 738 m 334 786 l 334 838 l 287 838 l 287 786 m 239 699 l 477 699 l 477 652 l 382 652 l 382 551 l 239 551 l 239 599 l 334 599 l 334 652 l 239 652 m 429 613 l 477 613 l 477 470 l 239 470 l 239 518 l 429 518 m 334 438 l 477 438 l 477 276 l 239 276 l 239 438 l 287 438 l 287 323 l 429 323 l 429 391 l 382 391 l 382 358 l 334 358 m 239 190 l 477 190 l 477 28 l 239 28 m 429 75 l 429 143 l 287 143 l 287 75 m 239 -4 l 477 -4 l 477 -52 l 431 -52 l 331 -119 l 477 -119 l 477 -167 l 239 -167 l 239 -119 l 340 -52 l 239 -52 "},"":{"ha":716,"x_min":0,"x_max":0,"o":"m 133 -265 l 133 1167 l 587 1167 l 587 -265 m 240 1024 l 334 1024 l 334 971 l 239 971 l 239 924 l 477 924 l 477 971 l 382 971 l 382 1024 l 477 1024 l 477 1071 l 240 1071 m 239 738 l 477 738 l 477 786 l 382 786 l 382 886 l 239 886 m 287 786 l 287 838 l 334 838 l 334 786 m 239 652 l 334 652 l 334 599 l 239 599 l 239 551 l 382 551 l 382 652 l 477 652 l 477 699 l 239 699 m 429 518 l 239 518 l 239 470 l 477 470 l 477 613 l 429 613 m 334 358 l 382 358 l 382 391 l 429 391 l 429 323 l 287 323 l 287 438 l 239 438 l 239 276 l 477 276 l 477 438 l 334 438 m 239 28 l 477 28 l 477 190 l 239 190 m 287 75 l 287 143 l 429 143 l 429 75 m 239 -52 l 340 -52 l 239 -119 l 239 -167 l 477 -167 l 477 -119 l 331 -119 l 431 -52 l 477 -52 l 477 -4 l 239 -4 "},"":{"ha":716,"x_min":0,"x_max":0,"o":"m 587 -265 l 587 1167 l 133 1167 l 133 -265 m 240 1071 l 477 1071 l 477 1024 l 382 1024 l 382 971 l 477 971 l 477 924 l 239 924 l 239 971 l 334 971 l 334 1024 l 240 1024 m 239 886 l 382 886 l 382 786 l 477 786 l 477 738 l 239 738 m 334 786 l 334 838 l 287 838 l 287 786 m 239 699 l 477 699 l 477 652 l 382 652 l 382 551 l 239 551 l 239 599 l 334 599 l 334 652 l 239 652 m 429 613 l 477 613 l 477 470 l 239 470 l 239 518 l 429 518 m 334 438 l 477 438 l 477 276 l 239 276 l 239 438 l 287 438 l 287 323 l 429 323 l 429 391 l 382 391 l 382 358 l 334 358 m 239 190 l 477 190 l 477 28 l 239 28 m 429 75 l 429 143 l 287 143 l 287 75 m 239 -4 l 477 -4 l 477 -52 l 431 -52 l 331 -119 l 477 -119 l 477 -167 l 239 -167 l 239 -119 l 340 -52 l 239 -52 "},"":{"ha":716,"x_min":0,"x_max":0,"o":"m 133 -265 l 133 1167 l 587 1167 l 587 -265 m 240 1024 l 334 1024 l 334 971 l 239 971 l 239 924 l 477 924 l 477 971 l 382 971 l 382 1024 l 477 1024 l 477 1071 l 240 1071 m 239 738 l 477 738 l 477 786 l 382 786 l 382 886 l 239 886 m 287 786 l 287 838 l 334 838 l 334 786 m 239 652 l 334 652 l 334 599 l 239 599 l 239 551 l 382 551 l 382 652 l 477 652 l 477 699 l 239 699 m 429 518 l 239 518 l 239 470 l 477 470 l 477 613 l 429 613 m 334 358 l 382 358 l 382 391 l 429 391 l 429 323 l 287 323 l 287 438 l 239 438 l 239 276 l 477 276 l 477 438 l 334 438 m 239 28 l 477 28 l 477 190 l 239 190 m 287 75 l 287 143 l 429 143 l 429 75 m 239 -52 l 340 -52 l 239 -119 l 239 -167 l 477 -167 l 477 -119 l 331 -119 l 431 -52 l 477 -52 l 477 -4 l 239 -4 "},"":{"ha":716,"x_min":0,"x_max":0,"o":"m 587 -265 l 587 1167 l 133 1167 l 133 -265 m 240 1071 l 477 1071 l 477 1024 l 382 1024 l 382 971 l 477 971 l 477 924 l 239 924 l 239 971 l 334 971 l 334 1024 l 240 1024 m 239 886 l 382 886 l 382 786 l 477 786 l 477 738 l 239 738 m 334 786 l 334 838 l 287 838 l 287 786 m 239 699 l 477 699 l 477 652 l 382 652 l 382 551 l 239 551 l 239 599 l 334 599 l 334 652 l 239 652 m 429 613 l 477 613 l 477 470 l 239 470 l 239 518 l 429 518 m 334 438 l 477 438 l 477 276 l 239 276 l 239 438 l 287 438 l 287 323 l 429 323 l 429 391 l 382 391 l 382 358 l 334 358 m 239 190 l 477 190 l 477 28 l 239 28 m 429 75 l 429 143 l 287 143 l 287 75 m 239 -4 l 477 -4 l 477 -52 l 431 -52 l 331 -119 l 477 -119 l 477 -167 l 239 -167 l 239 -119 l 340 -52 l 239 -52 "},"":{"ha":716,"x_min":0,"x_max":0,"o":"m 133 -265 l 133 1167 l 587 1167 l 587 -265 m 240 1024 l 334 1024 l 334 971 l 239 971 l 239 924 l 477 924 l 477 971 l 382 971 l 382 1024 l 477 1024 l 477 1071 l 240 1071 m 239 738 l 477 738 l 477 786 l 382 786 l 382 886 l 239 886 m 287 786 l 287 838 l 334 838 l 334 786 m 239 652 l 334 652 l 334 599 l 239 599 l 239 551 l 382 551 l 382 652 l 477 652 l 477 699 l 239 699 m 429 518 l 239 518 l 239 470 l 477 470 l 477 613 l 429 613 m 334 358 l 382 358 l 382 391 l 429 391 l 429 323 l 287 323 l 287 438 l 239 438 l 239 276 l 477 276 l 477 438 l 334 438 m 239 28 l 477 28 l 477 190 l 239 190 m 287 75 l 287 143 l 429 143 l 429 75 m 239 -52 l 340 -52 l 239 -119 l 239 -167 l 477 -167 l 477 -119 l 331 -119 l 431 -52 l 477 -52 l 477 -4 l 239 -4 "},"":{"ha":716,"x_min":0,"x_max":0,"o":"m 587 -265 l 587 1167 l 133 1167 l 133 -265 m 240 1071 l 477 1071 l 477 1024 l 382 1024 l 382 971 l 477 971 l 477 924 l 239 924 l 239 971 l 334 971 l 334 1024 l 240 1024 m 239 886 l 382 886 l 382 786 l 477 786 l 477 738 l 239 738 m 334 786 l 334 838 l 287 838 l 287 786 m 239 699 l 477 699 l 477 652 l 382 652 l 382 551 l 239 551 l 239 599 l 334 599 l 334 652 l 239 652 m 429 613 l 477 613 l 477 470 l 239 470 l 239 518 l 429 518 m 334 438 l 477 438 l 477 276 l 239 276 l 239 438 l 287 438 l 287 323 l 429 323 l 429 391 l 382 391 l 382 358 l 334 358 m 239 190 l 477 190 l 477 28 l 239 28 m 429 75 l 429 143 l 287 143 l 287 75 m 239 -4 l 477 -4 l 477 -52 l 431 -52 l 331 -119 l 477 -119 l 477 -167 l 239 -167 l 239 -119 l 340 -52 l 239 -52 "},"":{"ha":716,"x_min":0,"x_max":0,"o":"m 133 -265 l 133 1167 l 587 1167 l 587 -265 m 240 1024 l 334 1024 l 334 971 l 239 971 l 239 924 l 477 924 l 477 971 l 382 971 l 382 1024 l 477 1024 l 477 1071 l 240 1071 m 239 738 l 477 738 l 477 786 l 382 786 l 382 886 l 239 886 m 287 786 l 287 838 l 334 838 l 334 786 m 239 652 l 334 652 l 334 599 l 239 599 l 239 551 l 382 551 l 382 652 l 477 652 l 477 699 l 239 699 m 429 518 l 239 518 l 239 470 l 477 470 l 477 613 l 429 613 m 334 358 l 382 358 l 382 391 l 429 391 l 429 323 l 287 323 l 287 438 l 239 438 l 239 276 l 477 276 l 477 438 l 334 438 m 239 28 l 477 28 l 477 190 l 239 190 m 287 75 l 287 143 l 429 143 l 429 75 m 239 -52 l 340 -52 l 239 -119 l 239 -167 l 477 -167 l 477 -119 l 331 -119 l 431 -52 l 477 -52 l 477 -4 l 239 -4 "},"":{"ha":716,"x_min":0,"x_max":0,"o":"m 587 -265 l 587 1167 l 133 1167 l 133 -265 m 240 1071 l 477 1071 l 477 1024 l 382 1024 l 382 971 l 477 971 l 477 924 l 239 924 l 239 971 l 334 971 l 334 1024 l 240 1024 m 239 886 l 382 886 l 382 786 l 477 786 l 477 738 l 239 738 m 334 786 l 334 838 l 287 838 l 287 786 m 239 699 l 477 699 l 477 652 l 382 652 l 382 551 l 239 551 l 239 599 l 334 599 l 334 652 l 239 652 m 429 613 l 477 613 l 477 470 l 239 470 l 239 518 l 429 518 m 334 438 l 477 438 l 477 276 l 239 276 l 239 438 l 287 438 l 287 323 l 429 323 l 429 391 l 382 391 l 382 358 l 334 358 m 239 190 l 477 190 l 477 28 l 239 28 m 429 75 l 429 143 l 287 143 l 287 75 m 239 -4 l 477 -4 l 477 -52 l 431 -52 l 331 -119 l 477 -119 l 477 -167 l 239 -167 l 239 -119 l 340 -52 l 239 -52 "},"":{"ha":716,"x_min":0,"x_max":0,"o":"m 133 -265 l 133 1167 l 587 1167 l 587 -265 m 240 1024 l 334 1024 l 334 971 l 239 971 l 239 924 l 477 924 l 477 971 l 382 971 l 382 1024 l 477 1024 l 477 1071 l 240 1071 m 239 738 l 477 738 l 477 786 l 382 786 l 382 886 l 239 886 m 287 786 l 287 838 l 334 838 l 334 786 m 239 652 l 334 652 l 334 599 l 239 599 l 239 551 l 382 551 l 382 652 l 477 652 l 477 699 l 239 699 m 429 518 l 239 518 l 239 470 l 477 470 l 477 613 l 429 613 m 334 358 l 382 358 l 382 391 l 429 391 l 429 323 l 287 323 l 287 438 l 239 438 l 239 276 l 477 276 l 477 438 l 334 438 m 239 28 l 477 28 l 477 190 l 239 190 m 287 75 l 287 143 l 429 143 l 429 75 m 239 -52 l 340 -52 l 239 -119 l 239 -167 l 477 -167 l 477 -119 l 331 -119 l 431 -52 l 477 -52 l 477 -4 l 239 -4 "},"":{"ha":716,"x_min":0,"x_max":0,"o":"m 587 -265 l 587 1167 l 133 1167 l 133 -265 m 240 1071 l 477 1071 l 477 1024 l 382 1024 l 382 971 l 477 971 l 477 924 l 239 924 l 239 971 l 334 971 l 334 1024 l 240 1024 m 239 886 l 382 886 l 382 786 l 477 786 l 477 738 l 239 738 m 334 786 l 334 838 l 287 838 l 287 786 m 239 699 l 477 699 l 477 652 l 382 652 l 382 551 l 239 551 l 239 599 l 334 599 l 334 652 l 239 652 m 429 613 l 477 613 l 477 470 l 239 470 l 239 518 l 429 518 m 334 438 l 477 438 l 477 276 l 239 276 l 239 438 l 287 438 l 287 323 l 429 323 l 429 391 l 382 391 l 382 358 l 334 358 m 239 190 l 477 190 l 477 28 l 239 28 m 429 75 l 429 143 l 287 143 l 287 75 m 239 -4 l 477 -4 l 477 -52 l 431 -52 l 331 -119 l 477 -119 l 477 -167 l 239 -167 l 239 -119 l 340 -52 l 239 -52 "},"":{"ha":716,"x_min":0,"x_max":0,"o":"m 133 -265 l 133 1167 l 587 1167 l 587 -265 m 240 1024 l 334 1024 l 334 971 l 239 971 l 239 924 l 477 924 l 477 971 l 382 971 l 382 1024 l 477 1024 l 477 1071 l 240 1071 m 239 738 l 477 738 l 477 786 l 382 786 l 382 886 l 239 886 m 287 786 l 287 838 l 334 838 l 334 786 m 239 652 l 334 652 l 334 599 l 239 599 l 239 551 l 382 551 l 382 652 l 477 652 l 477 699 l 239 699 m 429 518 l 239 518 l 239 470 l 477 470 l 477 613 l 429 613 m 334 358 l 382 358 l 382 391 l 429 391 l 429 323 l 287 323 l 287 438 l 239 438 l 239 276 l 477 276 l 477 438 l 334 438 m 239 28 l 477 28 l 477 190 l 239 190 m 287 75 l 287 143 l 429 143 l 429 75 m 239 -52 l 340 -52 l 239 -119 l 239 -167 l 477 -167 l 477 -119 l 331 -119 l 431 -52 l 477 -52 l 477 -4 l 239 -4 "},"":{"ha":716,"x_min":0,"x_max":0,"o":"m 587 -265 l 587 1167 l 133 1167 l 133 -265 m 240 1071 l 477 1071 l 477 1024 l 382 1024 l 382 971 l 477 971 l 477 924 l 239 924 l 239 971 l 334 971 l 334 1024 l 240 1024 m 239 886 l 382 886 l 382 786 l 477 786 l 477 738 l 239 738 m 334 786 l 334 838 l 287 838 l 287 786 m 239 699 l 477 699 l 477 652 l 382 652 l 382 551 l 239 551 l 239 599 l 334 599 l 334 652 l 239 652 m 429 613 l 477 613 l 477 470 l 239 470 l 239 518 l 429 518 m 334 438 l 477 438 l 477 276 l 239 276 l 239 438 l 287 438 l 287 323 l 429 323 l 429 391 l 382 391 l 382 358 l 334 358 m 239 190 l 477 190 l 477 28 l 239 28 m 429 75 l 429 143 l 287 143 l 287 75 m 239 -4 l 477 -4 l 477 -52 l 431 -52 l 331 -119 l 477 -119 l 477 -167 l 239 -167 l 239 -119 l 340 -52 l 239 -52 "},"":{"ha":716,"x_min":0,"x_max":0,"o":"m 133 -265 l 133 1167 l 587 1167 l 587 -265 m 240 1024 l 334 1024 l 334 971 l 239 971 l 239 924 l 477 924 l 477 971 l 382 971 l 382 1024 l 477 1024 l 477 1071 l 240 1071 m 239 738 l 477 738 l 477 786 l 382 786 l 382 886 l 239 886 m 287 786 l 287 838 l 334 838 l 334 786 m 239 652 l 334 652 l 334 599 l 239 599 l 239 551 l 382 551 l 382 652 l 477 652 l 477 699 l 239 699 m 429 518 l 239 518 l 239 470 l 477 470 l 477 613 l 429 613 m 334 358 l 382 358 l 382 391 l 429 391 l 429 323 l 287 323 l 287 438 l 239 438 l 239 276 l 477 276 l 477 438 l 334 438 m 239 28 l 477 28 l 477 190 l 239 190 m 287 75 l 287 143 l 429 143 l 429 75 m 239 -52 l 340 -52 l 239 -119 l 239 -167 l 477 -167 l 477 -119 l 331 -119 l 431 -52 l 477 -52 l 477 -4 l 239 -4 "},"":{"ha":716,"x_min":0,"x_max":0,"o":"m 587 -265 l 587 1167 l 133 1167 l 133 -265 m 240 1071 l 477 1071 l 477 1024 l 382 1024 l 382 971 l 477 971 l 477 924 l 239 924 l 239 971 l 334 971 l 334 1024 l 240 1024 m 239 886 l 382 886 l 382 786 l 477 786 l 477 738 l 239 738 m 334 786 l 334 838 l 287 838 l 287 786 m 239 699 l 477 699 l 477 652 l 382 652 l 382 551 l 239 551 l 239 599 l 334 599 l 334 652 l 239 652 m 429 613 l 477 613 l 477 470 l 239 470 l 239 518 l 429 518 m 334 438 l 477 438 l 477 276 l 239 276 l 239 438 l 287 438 l 287 323 l 429 323 l 429 391 l 382 391 l 382 358 l 334 358 m 239 190 l 477 190 l 477 28 l 239 28 m 429 75 l 429 143 l 287 143 l 287 75 m 239 -4 l 477 -4 l 477 -52 l 431 -52 l 331 -119 l 477 -119 l 477 -167 l 239 -167 l 239 -119 l 340 -52 l 239 -52 "},"":{"ha":716,"x_min":0,"x_max":0,"o":"m 133 -265 l 133 1167 l 587 1167 l 587 -265 m 240 1024 l 334 1024 l 334 971 l 239 971 l 239 924 l 477 924 l 477 971 l 382 971 l 382 1024 l 477 1024 l 477 1071 l 240 1071 m 239 738 l 477 738 l 477 786 l 382 786 l 382 886 l 239 886 m 287 786 l 287 838 l 334 838 l 334 786 m 239 652 l 334 652 l 334 599 l 239 599 l 239 551 l 382 551 l 382 652 l 477 652 l 477 699 l 239 699 m 429 518 l 239 518 l 239 470 l 477 470 l 477 613 l 429 613 m 334 358 l 382 358 l 382 391 l 429 391 l 429 323 l 287 323 l 287 438 l 239 438 l 239 276 l 477 276 l 477 438 l 334 438 m 239 28 l 477 28 l 477 190 l 239 190 m 287 75 l 287 143 l 429 143 l 429 75 m 239 -52 l 340 -52 l 239 -119 l 239 -167 l 477 -167 l 477 -119 l 331 -119 l 431 -52 l 477 -52 l 477 -4 l 239 -4 "},"":{"ha":716,"x_min":0,"x_max":0,"o":"m 587 -265 l 587 1167 l 133 1167 l 133 -265 m 240 1071 l 477 1071 l 477 1024 l 382 1024 l 382 971 l 477 971 l 477 924 l 239 924 l 239 971 l 334 971 l 334 1024 l 240 1024 m 239 886 l 382 886 l 382 786 l 477 786 l 477 738 l 239 738 m 334 786 l 334 838 l 287 838 l 287 786 m 239 699 l 477 699 l 477 652 l 382 652 l 382 551 l 239 551 l 239 599 l 334 599 l 334 652 l 239 652 m 429 613 l 477 613 l 477 470 l 239 470 l 239 518 l 429 518 m 334 438 l 477 438 l 477 276 l 239 276 l 239 438 l 287 438 l 287 323 l 429 323 l 429 391 l 382 391 l 382 358 l 334 358 m 239 190 l 477 190 l 477 28 l 239 28 m 429 75 l 429 143 l 287 143 l 287 75 m 239 -4 l 477 -4 l 477 -52 l 431 -52 l 331 -119 l 477 -119 l 477 -167 l 239 -167 l 239 -119 l 340 -52 l 239 -52 "},"":{"ha":716,"x_min":0,"x_max":0,"o":"m 133 -265 l 133 1167 l 587 1167 l 587 -265 m 240 1024 l 334 1024 l 334 971 l 239 971 l 239 924 l 477 924 l 477 971 l 382 971 l 382 1024 l 477 1024 l 477 1071 l 240 1071 m 239 738 l 477 738 l 477 786 l 382 786 l 382 886 l 239 886 m 287 786 l 287 838 l 334 838 l 334 786 m 239 652 l 334 652 l 334 599 l 239 599 l 239 551 l 382 551 l 382 652 l 477 652 l 477 699 l 239 699 m 429 518 l 239 518 l 239 470 l 477 470 l 477 613 l 429 613 m 334 358 l 382 358 l 382 391 l 429 391 l 429 323 l 287 323 l 287 438 l 239 438 l 239 276 l 477 276 l 477 438 l 334 438 m 239 28 l 477 28 l 477 190 l 239 190 m 287 75 l 287 143 l 429 143 l 429 75 m 239 -52 l 340 -52 l 239 -119 l 239 -167 l 477 -167 l 477 -119 l 331 -119 l 431 -52 l 477 -52 l 477 -4 l 239 -4 "},"":{"ha":716,"x_min":0,"x_max":0,"o":"m 587 -265 l 587 1167 l 133 1167 l 133 -265 m 240 1071 l 477 1071 l 477 1024 l 382 1024 l 382 971 l 477 971 l 477 924 l 239 924 l 239 971 l 334 971 l 334 1024 l 240 1024 m 239 886 l 382 886 l 382 786 l 477 786 l 477 738 l 239 738 m 334 786 l 334 838 l 287 838 l 287 786 m 239 699 l 477 699 l 477 652 l 382 652 l 382 551 l 239 551 l 239 599 l 334 599 l 334 652 l 239 652 m 429 613 l 477 613 l 477 470 l 239 470 l 239 518 l 429 518 m 334 438 l 477 438 l 477 276 l 239 276 l 239 438 l 287 438 l 287 323 l 429 323 l 429 391 l 382 391 l 382 358 l 334 358 m 239 190 l 477 190 l 477 28 l 239 28 m 429 75 l 429 143 l 287 143 l 287 75 m 239 -4 l 477 -4 l 477 -52 l 431 -52 l 331 -119 l 477 -119 l 477 -167 l 239 -167 l 239 -119 l 340 -52 l 239 -52 "},"":{"ha":716,"x_min":0,"x_max":0,"o":"m 133 -265 l 133 1167 l 587 1167 l 587 -265 m 240 1024 l 334 1024 l 334 971 l 239 971 l 239 924 l 477 924 l 477 971 l 382 971 l 382 1024 l 477 1024 l 477 1071 l 240 1071 m 239 738 l 477 738 l 477 786 l 382 786 l 382 886 l 239 886 m 287 786 l 287 838 l 334 838 l 334 786 m 239 652 l 334 652 l 334 599 l 239 599 l 239 551 l 382 551 l 382 652 l 477 652 l 477 699 l 239 699 m 429 518 l 239 518 l 239 470 l 477 470 l 477 613 l 429 613 m 334 358 l 382 358 l 382 391 l 429 391 l 429 323 l 287 323 l 287 438 l 239 438 l 239 276 l 477 276 l 477 438 l 334 438 m 239 28 l 477 28 l 477 190 l 239 190 m 287 75 l 287 143 l 429 143 l 429 75 m 239 -52 l 340 -52 l 239 -119 l 239 -167 l 477 -167 l 477 -119 l 331 -119 l 431 -52 l 477 -52 l 477 -4 l 239 -4 "},"":{"ha":716,"x_min":0,"x_max":0,"o":"m 587 -265 l 587 1167 l 133 1167 l 133 -265 m 240 1071 l 477 1071 l 477 1024 l 382 1024 l 382 971 l 477 971 l 477 924 l 239 924 l 239 971 l 334 971 l 334 1024 l 240 1024 m 239 886 l 382 886 l 382 786 l 477 786 l 477 738 l 239 738 m 334 786 l 334 838 l 287 838 l 287 786 m 239 699 l 477 699 l 477 652 l 382 652 l 382 551 l 239 551 l 239 599 l 334 599 l 334 652 l 239 652 m 429 613 l 477 613 l 477 470 l 239 470 l 239 518 l 429 518 m 334 438 l 477 438 l 477 276 l 239 276 l 239 438 l 287 438 l 287 323 l 429 323 l 429 391 l 382 391 l 382 358 l 334 358 m 239 190 l 477 190 l 477 28 l 239 28 m 429 75 l 429 143 l 287 143 l 287 75 m 239 -4 l 477 -4 l 477 -52 l 431 -52 l 331 -119 l 477 -119 l 477 -167 l 239 -167 l 239 -119 l 340 -52 l 239 -52 "},"":{"ha":716,"x_min":0,"x_max":0,"o":"m 133 -265 l 133 1167 l 587 1167 l 587 -265 m 240 1024 l 334 1024 l 334 971 l 239 971 l 239 924 l 477 924 l 477 971 l 382 971 l 382 1024 l 477 1024 l 477 1071 l 240 1071 m 239 738 l 477 738 l 477 786 l 382 786 l 382 886 l 239 886 m 287 786 l 287 838 l 334 838 l 334 786 m 239 652 l 334 652 l 334 599 l 239 599 l 239 551 l 382 551 l 382 652 l 477 652 l 477 699 l 239 699 m 429 518 l 239 518 l 239 470 l 477 470 l 477 613 l 429 613 m 334 358 l 382 358 l 382 391 l 429 391 l 429 323 l 287 323 l 287 438 l 239 438 l 239 276 l 477 276 l 477 438 l 334 438 m 239 28 l 477 28 l 477 190 l 239 190 m 287 75 l 287 143 l 429 143 l 429 75 m 239 -52 l 340 -52 l 239 -119 l 239 -167 l 477 -167 l 477 -119 l 331 -119 l 431 -52 l 477 -52 l 477 -4 l 239 -4 "},"":{"ha":716,"x_min":0,"x_max":0,"o":"m 587 -265 l 587 1167 l 133 1167 l 133 -265 m 240 1071 l 477 1071 l 477 1024 l 382 1024 l 382 971 l 477 971 l 477 924 l 239 924 l 239 971 l 334 971 l 334 1024 l 240 1024 m 239 886 l 382 886 l 382 786 l 477 786 l 477 738 l 239 738 m 334 786 l 334 838 l 287 838 l 287 786 m 239 699 l 477 699 l 477 652 l 382 652 l 382 551 l 239 551 l 239 599 l 334 599 l 334 652 l 239 652 m 429 613 l 477 613 l 477 470 l 239 470 l 239 518 l 429 518 m 334 438 l 477 438 l 477 276 l 239 276 l 239 438 l 287 438 l 287 323 l 429 323 l 429 391 l 382 391 l 382 358 l 334 358 m 239 190 l 477 190 l 477 28 l 239 28 m 429 75 l 429 143 l 287 143 l 287 75 m 239 -4 l 477 -4 l 477 -52 l 431 -52 l 331 -119 l 477 -119 l 477 -167 l 239 -167 l 239 -119 l 340 -52 l 239 -52 "}," ":{"ha":373,"x_min":0,"x_max":0,"o":""},"!":{"ha":467,"x_min":0,"x_max":0,"o":"m 137 332 b 108 362 117 332 108 342 l 107 1137 b 137 1167 107 1157 117 1167 l 331 1167 b 361 1137 351 1167 361 1157 l 361 362 b 332 332 361 342 351 332 m 134 0 b 105 30 114 0 105 10 l 105 205 b 134 235 105 225 114 235 l 332 235 b 362 205 352 235 362 225 l 362 30 b 332 0 362 10 352 0 "},"\"":{"ha":546,"x_min":0,"x_max":0,"o":"m 75 692 b 45 722 55 692 45 702 l 45 1019 b 75 1049 45 1039 55 1049 l 203 1049 b 233 1019 223 1049 233 1039 l 233 722 b 203 692 233 702 223 692 m 343 692 b 313 722 323 692 313 702 l 313 1019 b 343 1049 313 1039 323 1049 l 471 1049 b 501 1019 491 1049 501 1039 l 501 722 b 471 692 501 702 491 692 "},"#":{"ha":925,"x_min":0,"x_max":0,"o":"m 114 0 b 92 9 104 0 97 3 b 87 33 87 14 85 22 l 116 220 l 37 220 b 8 250 17 220 7 230 l 10 373 b 19 397 11 383 14 391 b 41 405 24 402 32 405 l 145 405 l 176 595 l 90 595 b 61 625 70 595 61 605 l 63 748 b 72 771 64 758 67 766 b 94 779 77 776 85 779 l 205 779 l 244 1022 b 276 1049 247 1040 258 1049 l 436 1049 b 458 1041 446 1049 454 1046 b 464 1016 463 1035 465 1027 l 426 779 l 589 779 l 629 1022 b 661 1049 632 1040 642 1049 l 821 1049 b 844 1041 831 1049 839 1046 b 848 1016 849 1035 850 1027 l 809 779 l 888 779 b 917 748 907 779 917 769 l 915 625 b 907 603 915 616 913 608 b 885 595 902 598 894 595 l 780 595 l 749 405 l 834 405 b 863 373 853 405 863 394 l 862 250 b 854 227 862 240 859 233 b 832 220 849 222 841 220 l 721 220 l 690 28 b 658 0 687 9 676 0 l 498 0 b 476 9 488 0 481 3 b 470 33 471 14 469 22 l 501 220 l 337 220 l 306 28 b 274 0 303 9 292 0 m 561 595 l 397 595 l 365 405 l 530 405 "},"$":{"ha":896,"x_min":0,"x_max":0,"o":"m 811 169 b 717 58 789 125 758 88 b 573 -5 677 28 628 7 l 573 -146 b 543 -175 573 -166 563 -175 l 361 -175 b 332 -146 341 -175 332 -166 l 332 -6 b 172 54 275 5 222 26 b 39 164 123 83 78 119 b 30 184 33 170 30 177 b 41 206 30 191 34 199 l 173 332 b 193 341 180 338 186 341 b 215 330 201 341 209 338 b 322 256 247 297 283 272 b 444 231 361 239 402 231 b 539 252 487 231 518 238 b 570 311 560 267 570 286 b 557 355 570 328 566 343 b 504 393 547 368 530 380 b 389 434 478 405 439 419 b 174 545 305 459 233 496 b 84 760 114 594 84 666 b 111 890 84 806 93 849 b 192 995 128 930 155 966 b 332 1058 229 1025 275 1046 l 332 1219 b 361 1249 332 1239 341 1249 l 543 1249 b 573 1219 563 1249 573 1239 l 573 1054 b 700 1005 618 1043 660 1027 b 811 931 740 984 777 960 b 822 909 818 925 822 917 b 813 889 822 903 819 896 l 692 753 b 671 741 686 745 679 741 b 650 749 664 741 657 743 b 558 803 623 771 592 789 b 455 825 524 818 490 825 b 379 805 422 825 397 818 b 353 750 362 792 353 773 b 369 715 353 737 359 725 b 414 688 380 705 395 696 b 501 656 433 681 462 670 b 510 653 504 655 507 654 b 522 649 514 652 517 650 b 697 569 593 624 651 597 b 805 465 744 541 780 506 b 843 317 830 424 843 374 b 811 169 843 262 832 213 "},"%":{"ha":1713,"x_min":0,"x_max":0,"o":""},"&":{"ha":1171,"x_min":0,"x_max":0,"o":"m 251 23 b 104 142 188 52 139 92 b 52 302 70 191 52 245 b 88 449 52 356 64 405 b 199 554 112 493 149 528 b 124 643 164 579 139 609 b 101 761 109 676 101 716 b 140 924 101 823 114 877 b 254 1033 167 970 205 1007 b 430 1072 304 1059 362 1072 b 598 1037 494 1072 550 1060 b 712 938 646 1014 684 981 b 759 789 739 896 755 846 b 753 767 760 780 758 772 b 730 759 748 761 740 759 l 550 759 b 529 765 541 759 534 761 b 517 786 524 770 520 777 b 483 825 511 802 499 816 b 424 840 466 835 447 840 b 363 819 397 840 377 833 b 343 761 350 805 343 785 b 351 717 343 744 345 729 b 382 683 356 705 367 694 b 447 653 397 672 419 662 b 470 616 465 646 473 634 l 447 483 b 414 455 444 467 433 457 b 331 416 379 451 351 438 b 301 335 311 394 301 367 b 320 271 301 312 307 290 b 374 225 332 252 350 236 b 462 208 399 214 428 208 b 550 231 496 208 525 216 b 610 298 576 247 596 269 b 634 399 625 326 633 360 l 590 409 l 552 418 b 529 446 536 422 529 431 b 529 454 529 449 529 452 l 556 595 b 582 620 559 612 568 620 b 591 618 584 620 587 619 b 616 612 600 616 608 614 b 638 607 625 610 632 609 l 671 600 b 781 577 707 591 744 584 b 863 568 817 571 845 568 b 910 578 882 568 897 571 b 940 615 923 585 933 597 b 968 639 946 631 955 639 l 977 638 l 1142 598 b 1166 572 1158 594 1166 585 b 1165 563 1166 568 1165 565 b 1078 411 1150 500 1122 449 b 916 354 1035 373 981 354 b 868 356 902 354 886 355 b 812 156 864 280 846 213 b 674 24 778 99 732 55 b 469 -22 615 -6 547 -22 b 251 23 387 -22 315 -7 "},"'":{"ha":278,"x_min":0,"x_max":0,"o":"m 75 692 b 45 722 55 692 45 702 l 45 1019 b 75 1049 45 1039 55 1049 l 203 1049 b 233 1019 223 1049 233 1039 l 233 722 b 203 692 233 702 223 692 "},"(":{"ha":499,"x_min":0,"x_max":0,"o":"m 481 -219 b 464 -242 481 -228 475 -235 l 327 -317 b 309 -323 322 -321 316 -323 b 286 -309 301 -323 293 -318 b 105 43 201 -199 141 -82 b 52 462 70 168 52 308 b 105 880 52 616 70 755 b 284 1233 140 1005 200 1122 b 307 1246 290 1242 298 1246 b 325 1241 313 1246 319 1245 l 464 1166 b 481 1142 475 1159 481 1151 b 475 1125 481 1137 479 1132 b 356 830 424 1040 385 942 b 314 463 328 718 314 596 b 356 94 314 329 328 206 b 475 -202 384 -19 424 -117 b 481 -219 479 -208 481 -214 "},")":{"ha":499,"x_min":0,"x_max":0,"o":"m 190 -323 b 172 -317 183 -323 177 -321 l 34 -242 b 18 -219 23 -235 18 -228 b 24 -201 18 -214 20 -208 b 143 94 75 -117 114 -19 b 185 463 171 206 185 329 b 143 830 185 596 171 718 b 24 1125 114 942 75 1040 b 18 1142 20 1132 18 1137 b 34 1166 18 1151 23 1159 l 174 1241 b 192 1246 179 1245 185 1246 b 215 1233 201 1246 209 1242 b 394 880 299 1122 359 1005 b 447 462 429 755 447 616 b 394 43 447 308 429 168 b 213 -309 358 -82 298 -199 b 190 -323 206 -318 199 -323 "},"*":{"ha":616,"x_min":0,"x_max":0,"o":"m 556 906 b 564 883 561 901 564 893 l 564 798 b 556 776 564 788 561 781 b 533 770 550 771 543 769 l 417 777 l 482 682 b 488 664 486 676 488 670 b 473 641 488 655 483 647 l 400 599 b 383 594 395 595 389 594 b 360 611 374 594 366 599 l 309 714 l 258 611 b 234 594 252 599 244 594 b 217 599 228 594 223 595 l 145 641 b 129 664 134 647 129 655 b 136 682 129 670 131 676 l 200 777 l 83 769 b 60 776 73 769 66 771 b 52 798 55 781 52 788 l 52 885 b 60 907 52 895 55 902 b 83 913 66 912 73 914 l 199 906 l 135 1000 b 128 1018 131 1006 128 1012 b 144 1041 128 1027 134 1035 l 217 1084 b 234 1089 222 1088 228 1089 b 258 1072 244 1089 252 1084 l 308 969 l 360 1072 b 384 1089 366 1083 374 1089 b 400 1083 389 1089 395 1087 l 473 1042 b 489 1019 484 1035 489 1027 b 482 1001 489 1013 487 1007 l 418 906 l 533 912 b 556 906 543 913 551 911 "},"+":{"ha":812,"x_min":0,"x_max":0,"o":"m 341 156 b 311 186 321 156 311 166 l 311 426 l 82 426 b 52 456 62 426 52 436 l 52 575 b 82 605 52 595 62 605 l 311 605 l 311 845 b 341 875 311 865 321 875 l 467 875 b 497 845 487 875 497 865 l 497 605 l 730 605 b 760 575 750 605 760 595 l 760 456 b 730 426 760 436 750 426 l 497 426 l 497 186 b 467 156 497 166 487 156 "},",":{"ha":386,"x_min":0,"x_max":0,"o":"m 157 -242 b 135 -232 149 -242 142 -239 l 95 -195 b 84 -172 87 -188 84 -181 b 95 -152 84 -166 87 -159 b 168 -72 127 -123 151 -97 b 193 -7 184 -47 193 -26 l 193 0 l 106 0 b 76 30 86 0 76 10 l 76 205 b 106 235 76 225 86 235 l 304 235 b 334 205 324 235 334 225 l 334 53 b 290 -100 334 -1 319 -52 b 178 -233 260 -148 223 -193 b 157 -242 171 -239 164 -242 "},"-":{"ha":707,"x_min":0,"x_max":0,"o":"m 82 350 b 52 380 62 350 52 360 l 52 530 b 82 560 52 550 62 560 l 625 560 b 655 530 645 560 655 550 l 655 380 b 625 350 655 360 645 350 "},".":{"ha":362,"x_min":0,"x_max":0,"o":"m 82 0 b 52 30 62 0 52 10 l 52 205 b 82 235 52 225 62 235 l 280 235 b 310 205 300 235 310 225 l 310 30 b 280 0 310 10 300 0 "},"/":{"ha":830,"x_min":0,"x_max":0,"o":"m 261 -312 b 240 -318 255 -316 248 -318 l 38 -318 b 19 -312 30 -318 23 -316 b 12 -297 14 -309 12 -304 b 15 -283 12 -292 13 -287 l 559 1026 b 573 1044 563 1034 567 1040 b 594 1049 578 1047 585 1049 l 792 1049 b 812 1044 801 1049 807 1047 b 818 1028 816 1040 818 1035 b 815 1014 818 1023 817 1019 l 274 -295 b 261 -312 271 -303 266 -309 "},":":{"ha":389,"x_min":0,"x_max":0,"o":"m 82 694 b 52 724 62 694 52 704 l 52 922 b 82 952 52 942 62 952 l 304 952 b 334 922 324 952 334 942 l 334 724 b 304 694 334 704 324 694 m 82 -3 b 52 27 62 -3 52 7 l 52 225 b 82 255 52 245 62 255 l 304 255 b 334 225 324 255 334 245 l 334 27 b 304 -3 334 7 324 -3 "},";":{"ha":370,"x_min":0,"x_max":0,"o":"m 82 694 b 52 724 62 694 52 704 l 52 900 b 82 930 52 920 62 930 l 280 930 b 310 900 300 930 310 920 l 310 724 b 280 694 310 704 300 694 m 141 -242 b 119 -232 133 -242 126 -239 l 79 -195 b 68 -172 72 -188 68 -181 b 79 -152 68 -165 72 -158 b 152 -72 111 -123 135 -97 b 177 -7 169 -47 177 -26 l 177 0 l 90 0 b 60 30 70 0 60 10 l 60 205 b 90 235 60 225 70 235 l 288 235 b 318 205 308 235 318 225 l 318 53 b 274 -100 318 -1 303 -52 b 162 -233 245 -148 207 -193 b 141 -242 156 -239 149 -242 "},"<":{"ha":803,"x_min":0,"x_max":0,"o":"m 750 143 b 745 124 750 135 749 129 b 730 117 741 120 736 117 b 715 121 726 117 721 118 l 75 420 b 52 455 60 427 52 438 l 52 558 b 75 593 52 575 60 586 l 715 890 b 730 894 721 893 726 894 b 745 887 736 894 741 891 b 750 868 749 882 750 876 l 750 700 b 727 665 750 683 743 672 l 344 506 l 727 347 b 750 313 743 341 750 329 "},"=":{"ha":821,"x_min":0,"x_max":0,"o":"m 82 581 b 52 611 62 581 52 591 l 52 751 b 82 781 52 771 62 781 l 739 781 b 769 751 759 781 769 771 l 769 611 b 739 581 769 591 759 581 m 82 237 b 52 267 62 237 52 247 l 52 407 b 82 437 52 427 62 437 l 739 437 b 769 407 759 437 769 427 l 769 267 b 739 237 769 247 759 237 "},">":{"ha":803,"x_min":0,"x_max":0,"o":"m 87 121 b 72 117 81 118 76 117 b 58 124 66 117 62 120 b 52 143 54 129 52 135 l 52 313 b 75 347 52 329 60 341 l 458 506 l 75 665 b 52 700 60 672 52 683 l 52 868 b 58 887 52 876 54 882 b 72 894 62 891 66 894 b 87 890 76 894 81 893 l 728 593 b 750 558 743 586 750 575 l 750 455 b 728 420 750 438 743 427 "},"?":{"ha":796,"x_min":0,"x_max":0,"o":"m 497 337 b 475 332 492 334 484 332 l 291 332 b 269 341 282 332 274 335 b 261 366 264 347 261 355 l 261 379 b 297 551 261 446 273 503 b 410 686 321 599 359 644 b 492 770 446 716 473 744 b 521 855 512 797 521 825 b 493 933 521 888 512 914 b 414 962 474 952 448 962 b 295 855 343 962 303 926 b 264 821 292 833 282 821 l 84 821 b 61 830 74 821 66 824 b 54 856 56 836 53 845 b 155 1103 60 963 93 1045 b 422 1190 216 1161 305 1190 b 601 1148 488 1190 547 1176 b 729 1029 655 1120 697 1080 b 776 850 760 977 776 917 b 750 716 776 799 767 754 b 684 618 732 677 710 644 b 591 539 658 591 626 565 b 523 461 558 516 536 490 b 505 368 511 432 505 401 l 505 350 b 497 337 505 345 502 340 m 291 0 b 261 30 271 0 261 10 l 261 205 b 291 235 261 225 271 235 l 489 235 b 519 205 509 235 519 225 l 519 30 b 489 0 519 10 509 0 "},"@":{"ha":1361,"x_min":0,"x_max":0,"o":"m 985 959 b 1219 750 1081 910 1160 840 b 1308 445 1278 661 1308 559 b 1271 261 1308 375 1296 313 b 1169 139 1247 208 1213 167 b 1021 96 1125 110 1076 96 b 893 133 969 96 926 108 b 815 226 859 157 833 188 b 737 162 794 198 768 177 b 633 139 706 146 672 139 b 507 174 588 139 546 151 b 413 274 468 198 436 231 b 377 418 389 316 377 364 b 411 562 377 471 388 519 b 503 662 434 604 464 638 b 626 697 541 685 582 697 b 728 677 663 697 697 690 b 806 617 758 663 784 643 l 827 664 b 862 686 833 679 845 686 l 939 686 b 969 656 959 686 969 676 l 969 358 b 992 291 969 328 977 305 b 1047 270 1007 277 1025 270 b 1105 312 1075 270 1094 284 b 1121 431 1115 339 1121 379 b 1064 650 1121 511 1102 585 b 908 804 1026 715 974 767 b 684 859 841 841 767 859 b 459 803 602 859 527 841 b 299 646 392 765 338 712 b 240 420 260 579 240 503 b 298 196 240 338 260 263 b 457 35 336 128 389 74 b 684 -24 524 -4 600 -24 b 789 -13 721 -24 756 -20 b 904 26 822 -5 860 8 b 919 30 909 29 915 30 b 944 11 930 30 938 24 l 990 -87 b 994 -103 993 -92 994 -98 b 976 -127 994 -114 988 -122 b 831 -179 924 -151 876 -168 b 681 -196 786 -190 736 -196 b 361 -116 564 -196 457 -169 b 135 104 265 -62 190 11 b 52 414 80 197 52 300 b 137 730 52 530 80 635 b 365 952 193 824 269 898 b 679 1033 461 1006 565 1033 b 985 959 786 1033 888 1009 m 749 342 b 779 416 769 361 779 386 b 749 489 779 445 769 470 b 675 519 729 509 704 519 b 602 489 646 519 622 509 b 573 416 583 470 573 445 b 587 363 573 396 577 378 b 624 326 596 347 608 335 b 675 312 639 317 656 312 b 749 342 705 312 730 322 "},"A":{"ha":1059,"x_min":0,"x_max":0,"o":"m 1039 22 b 1033 6 1039 15 1037 9 b 1014 0 1028 2 1022 0 l 799 0 b 765 25 782 0 771 8 l 718 164 l 341 164 l 293 25 b 260 0 288 8 277 0 l 46 0 b 27 6 38 0 31 2 b 19 22 22 9 19 15 b 22 34 19 26 20 30 l 404 1027 b 438 1051 410 1043 421 1051 l 623 1051 b 657 1027 640 1051 651 1043 l 1037 34 b 1039 22 1039 30 1039 26 m 542 682 l 529 730 l 517 682 l 417 388 l 642 388 "},"B":{"ha":990,"x_min":0,"x_max":0,"o":"m 105 1019 b 134 1049 105 1039 114 1049 l 539 1049 b 724 1014 609 1049 671 1037 b 848 913 778 990 819 956 b 892 762 877 869 892 819 b 876 678 892 733 886 705 b 833 606 865 651 851 627 b 774 562 815 586 796 571 b 860 507 806 551 835 533 b 918 417 885 482 905 452 b 939 308 932 382 939 346 b 895 147 939 247 925 193 b 770 38 866 100 824 64 b 582 0 716 13 654 0 l 134 0 b 105 30 114 0 105 10 m 592 668 b 621 733 612 686 621 707 b 594 795 621 759 612 779 b 522 818 576 810 552 818 l 373 818 l 373 641 l 515 641 b 592 668 547 641 573 650 m 638 255 b 668 338 658 276 668 303 b 653 391 668 356 663 374 b 611 431 643 408 629 421 b 549 446 593 441 572 446 l 373 446 l 373 224 l 559 224 b 638 255 592 224 619 234 "},"C":{"ha":984,"x_min":0,"x_max":0,"o":"m 321 55 b 124 252 238 103 172 169 b 52 526 76 336 52 427 b 124 800 52 626 76 717 b 321 997 172 884 238 949 b 598 1069 404 1045 497 1069 b 775 1041 660 1069 719 1060 b 929 961 832 1022 883 995 b 942 939 937 955 942 947 b 934 919 942 932 939 926 l 813 761 b 791 748 806 752 799 748 b 771 755 784 748 778 750 b 688 796 746 772 718 786 b 598 812 659 807 628 812 b 463 774 550 812 505 799 b 363 671 421 749 388 714 b 325 526 337 627 325 578 b 363 381 325 473 337 425 b 463 277 388 337 421 302 b 598 239 505 252 550 239 b 689 252 632 239 663 243 b 773 297 715 261 743 276 b 793 304 780 302 787 304 b 815 291 801 304 809 300 l 934 132 b 942 111 940 124 942 117 b 931 92 942 104 939 98 b 777 10 885 57 833 29 b 598 -19 720 -9 660 -19 b 321 55 497 -19 405 6 "},"D":{"ha":1104,"x_min":0,"x_max":0,"o":"m 105 1019 b 134 1049 105 1039 114 1049 l 500 1049 b 778 980 601 1049 694 1026 b 979 792 863 935 930 872 b 1052 525 1028 712 1052 623 b 979 258 1052 427 1028 338 b 780 69 930 177 864 114 b 502 0 695 23 603 0 l 134 0 b 105 30 114 0 105 10 m 649 291 b 745 386 690 314 722 345 b 780 525 768 426 780 473 b 745 663 780 576 768 622 b 649 758 722 703 690 735 b 510 792 607 780 561 792 l 373 792 l 373 258 l 511 258 b 649 291 562 258 608 269 "},"E":{"ha":930,"x_min":0,"x_max":0,"o":"m 134 0 b 105 30 114 0 105 10 l 105 1019 b 134 1049 105 1039 114 1049 l 837 1049 b 867 1019 857 1049 867 1039 l 867 836 b 837 806 867 816 857 806 l 373 806 l 373 643 l 730 643 b 759 613 749 643 759 633 l 759 445 b 730 415 759 425 749 415 l 373 415 l 373 243 l 848 243 b 878 213 868 243 878 233 l 878 30 b 848 0 878 10 868 0 "},"F":{"ha":855,"x_min":0,"x_max":0,"o":"m 134 0 b 105 30 114 0 105 10 l 105 1019 b 134 1049 105 1039 114 1049 l 794 1049 b 824 1019 814 1049 824 1039 l 824 836 b 794 806 824 816 814 806 l 373 806 l 373 583 l 686 583 b 716 553 706 583 716 573 l 716 385 b 686 355 716 365 706 355 l 373 355 l 373 30 b 343 0 373 10 363 0 "},"G":{"ha":1027,"x_min":0,"x_max":0,"o":"m 930 485 b 960 455 950 485 960 475 l 960 119 b 942 83 960 103 954 91 b 782 8 895 51 842 26 b 598 -19 723 -10 661 -19 b 321 55 497 -19 405 6 b 124 252 238 103 172 169 b 52 526 76 336 52 427 b 124 800 52 626 76 717 b 321 997 172 884 238 949 b 598 1069 404 1045 497 1069 b 775 1041 660 1069 719 1060 b 929 961 832 1022 883 995 b 942 939 937 955 942 947 b 934 919 942 932 939 926 l 813 761 b 791 748 806 752 799 748 b 771 755 784 748 778 750 b 688 796 746 772 718 786 b 598 812 659 807 628 812 b 463 774 550 812 505 799 b 363 671 421 749 388 714 b 325 526 337 627 325 578 b 363 378 325 472 337 423 b 463 271 388 333 421 297 b 598 231 505 245 550 231 b 706 247 638 231 674 237 l 706 455 b 736 485 706 475 716 485 "},"H":{"ha":1130,"x_min":0,"x_max":0,"o":"m 134 0 b 105 30 114 0 105 10 l 105 1019 b 134 1049 105 1039 114 1049 l 343 1049 b 373 1019 363 1049 373 1039 l 373 677 l 756 677 l 756 1019 b 786 1049 756 1039 766 1049 l 995 1049 b 1025 1019 1015 1049 1025 1039 l 1025 30 b 995 0 1025 10 1015 0 l 786 0 b 756 30 766 0 756 10 l 756 420 l 373 420 l 373 30 b 343 0 373 10 363 0 "},"I":{"ha":478,"x_min":0,"x_max":0,"o":"m 134 0 b 105 30 114 0 105 10 l 105 1019 b 134 1049 105 1039 114 1049 l 343 1049 b 373 1019 363 1049 373 1039 l 373 30 b 343 0 373 10 363 0 "},"J":{"ha":702,"x_min":0,"x_max":0,"o":"m 144 2 b 17 70 100 18 58 41 b 5 91 9 76 5 83 b 13 113 5 97 8 104 l 123 270 b 145 283 129 279 136 283 b 165 276 152 283 159 281 b 267 236 205 249 239 236 b 328 261 293 236 313 244 b 349 338 342 278 349 303 l 349 1019 b 379 1049 349 1039 359 1049 l 588 1049 b 618 1019 608 1049 618 1039 l 618 319 b 576 137 618 249 604 189 b 455 19 548 86 508 47 b 270 -22 403 -9 341 -22 b 144 2 230 -22 188 -14 "},"K":{"ha":1079,"x_min":0,"x_max":0,"o":"m 1053 18 b 1046 5 1053 12 1051 8 b 1027 0 1042 2 1035 0 l 774 0 b 738 19 758 0 746 6 l 488 408 l 373 273 l 373 30 b 343 0 373 10 363 0 l 134 0 b 105 30 114 0 105 10 l 105 1019 b 134 1049 105 1039 114 1049 l 343 1049 b 373 1019 363 1049 373 1039 l 373 638 l 691 1032 b 727 1049 700 1043 712 1049 l 985 1049 b 1004 1045 993 1049 999 1048 b 1010 1032 1008 1042 1010 1037 b 1001 1013 1010 1026 1007 1020 l 662 613 l 1047 36 b 1053 18 1051 30 1053 24 "},"L":{"ha":829,"x_min":0,"x_max":0,"o":"m 134 0 b 105 30 114 0 105 10 l 105 1019 b 134 1049 105 1039 114 1049 l 343 1049 b 373 1019 363 1049 373 1039 l 373 257 l 778 257 b 808 227 798 257 808 247 l 808 30 b 778 0 808 10 798 0 "},"M":{"ha":1357,"x_min":0,"x_max":0,"o":"m 86 0 b 63 8 76 0 68 3 b 57 31 58 14 57 21 l 185 1022 b 195 1042 186 1030 190 1037 b 217 1049 201 1047 208 1049 l 464 1049 b 497 1024 482 1049 493 1041 l 678 372 l 858 1024 b 891 1049 862 1041 873 1049 l 1139 1049 b 1161 1042 1148 1049 1155 1047 b 1171 1022 1166 1037 1170 1030 l 1299 31 b 1293 7 1300 21 1298 13 b 1271 -1 1288 2 1281 -1 l 1059 -1 b 1027 28 1040 -1 1030 9 l 965 618 l 803 25 b 771 0 799 8 788 0 l 588 0 b 556 25 571 0 560 8 l 394 618 l 329 28 b 297 0 326 9 316 0 "},"N":{"ha":1125,"x_min":0,"x_max":0,"o":"m 134 0 b 105 30 114 0 105 10 l 105 1019 b 134 1049 105 1039 114 1049 l 365 1049 b 401 1030 381 1049 393 1043 l 759 456 l 759 1019 b 789 1049 759 1039 769 1049 l 990 1049 b 1020 1019 1010 1049 1020 1039 l 1020 30 b 990 0 1020 10 1010 0 l 785 0 b 749 19 769 0 757 6 l 366 626 l 366 30 b 336 0 366 10 356 0 "},"O":{"ha":1195,"x_min":0,"x_max":0,"o":"m 321 55 b 124 252 238 103 172 169 b 52 526 76 336 52 427 b 124 800 52 626 76 717 b 321 997 172 884 238 949 b 598 1069 404 1045 497 1069 b 874 997 699 1069 791 1045 b 1071 800 958 949 1023 883 b 1143 526 1119 717 1143 626 b 1071 253 1143 427 1119 336 b 874 55 1023 169 957 103 b 598 -19 791 6 699 -19 b 321 55 497 -19 405 6 m 733 277 b 833 380 775 302 808 336 b 871 526 858 425 871 473 b 833 671 871 578 858 627 b 733 774 808 714 774 749 b 598 812 691 799 646 812 b 463 774 550 812 505 799 b 363 671 421 749 388 714 b 325 526 337 627 325 578 b 363 381 325 473 337 425 b 463 277 388 337 421 302 b 598 239 505 252 550 239 b 733 277 646 239 691 252 "},"P":{"ha":951,"x_min":0,"x_max":0,"o":"m 134 0 b 105 30 114 0 105 10 l 105 1019 b 134 1049 105 1039 114 1049 l 538 1049 b 737 1004 614 1049 680 1034 b 870 878 794 973 838 931 b 916 697 901 824 916 764 b 871 505 916 624 901 560 b 742 376 842 450 798 407 b 541 330 685 345 619 330 l 373 330 l 373 30 b 343 0 373 10 363 0 m 585 588 b 631 632 604 599 619 613 b 647 694 642 651 647 672 b 631 753 647 716 642 736 b 585 792 619 770 604 783 b 520 806 566 802 544 806 l 373 806 l 373 573 l 520 573 b 585 588 544 573 565 578 "},"Q":{"ha":1195,"x_min":0,"x_max":0,"o":"m 1090 289 b 943 102 1055 215 1006 153 b 729 -4 880 51 809 16 l 729 -187 b 699 -217 729 -207 719 -217 l 490 -217 b 460 -187 470 -217 460 -207 l 460 -1 b 249 105 381 18 310 54 b 104 291 187 156 139 218 b 52 526 70 364 52 443 b 124 800 52 626 76 717 b 321 997 172 884 238 949 b 598 1069 404 1045 497 1069 b 874 997 699 1069 791 1045 b 1071 800 958 949 1023 883 b 1143 526 1119 717 1143 626 b 1090 289 1143 442 1126 363 m 733 277 b 833 380 775 302 808 336 b 871 526 858 425 871 473 b 833 671 871 578 858 627 b 733 774 808 714 774 749 b 598 812 691 799 646 812 b 463 774 550 812 505 799 b 363 671 421 749 388 714 b 325 526 337 627 325 578 b 363 381 325 473 337 425 b 463 277 388 337 421 302 b 598 239 505 252 550 239 b 733 277 646 239 691 252 "},"R":{"ha":1002,"x_min":0,"x_max":0,"o":"m 105 1019 b 134 1049 105 1039 114 1049 l 558 1049 b 750 1004 630 1049 694 1034 b 880 878 805 974 849 932 b 927 692 911 824 927 762 b 886 521 927 625 913 568 b 771 405 858 473 820 435 l 956 35 b 960 19 959 29 960 24 b 953 5 960 13 958 9 b 934 0 948 2 942 0 l 695 0 b 660 22 679 0 667 7 l 514 335 b 482 335 506 335 496 335 l 373 335 l 373 30 b 343 0 373 10 363 0 l 134 0 b 105 30 114 0 105 10 m 595 580 b 638 628 614 592 628 608 b 654 691 649 648 654 669 b 620 782 654 731 643 761 b 535 814 597 803 569 814 l 373 814 l 373 562 l 533 562 b 595 580 556 562 577 568 "},"S":{"ha":897,"x_min":0,"x_max":0,"o":"m 231 28 b 46 164 160 59 98 104 b 37 184 40 170 37 177 b 48 206 37 191 40 199 l 180 332 b 200 341 186 338 193 341 b 222 330 208 341 215 338 b 329 256 254 297 289 272 b 451 231 368 239 409 231 b 546 252 493 231 525 238 b 577 311 567 267 577 286 b 563 355 577 328 573 343 b 510 393 554 368 537 380 b 396 434 484 405 446 419 b 174 551 313 458 239 497 b 76 768 109 604 76 677 b 117 918 76 822 90 872 b 243 1028 145 964 186 1000 b 450 1069 299 1055 368 1069 b 649 1032 519 1069 586 1057 b 818 931 712 1007 768 973 b 829 909 825 925 829 917 b 820 889 829 903 826 896 l 699 753 b 677 741 692 745 685 741 b 657 749 671 741 664 743 b 562 805 629 771 598 789 b 458 827 527 820 492 827 b 352 765 388 827 352 807 b 370 721 352 748 358 733 b 416 691 381 709 396 699 b 504 657 435 682 464 671 b 529 649 510 656 518 653 b 704 569 599 624 658 597 b 812 465 750 541 786 506 b 850 317 837 424 850 374 b 801 141 850 250 834 191 b 664 24 769 90 723 51 b 458 -18 605 -4 536 -18 b 231 28 378 -18 302 -2 "},"T":{"ha":885,"x_min":0,"x_max":0,"o":"m 338 0 b 308 30 318 0 308 10 l 308 799 l 56 799 b 26 829 36 799 26 809 l 26 1019 b 56 1049 26 1039 36 1049 l 829 1049 b 859 1019 849 1049 859 1039 l 859 829 b 829 799 859 809 849 799 l 576 799 l 576 30 b 547 0 576 10 567 0 "}}}
